<svg width="711" height="811" viewBox="0 0 711 811" fill="none" xmlns="http://www.w3.org/2000/svg">
<path d="M264.416 589.798C266.774 583.583 272.728 579.474 279.375 579.474H436.867C443.346 579.474 449.185 583.381 451.657 589.37L533.643 788.02C537.99 798.552 530.247 810.124 518.853 810.124H204.006C192.808 810.124 185.074 798.918 189.046 788.448L264.416 589.798Z" fill="url(#paint0_linear_1307_16278)"/>
<path d="M360.602 90.291C553.891 90.291 710.584 203.631 710.584 343.443C710.584 414.868 687.309 481.072 621.534 527.098C558.556 571.167 455.147 596.596 360.602 596.596C263.785 596.596 160.69 573.053 97.3291 527.098C34.1931 481.306 10.6191 413.225 10.6191 343.443C10.6192 203.631 167.312 90.291 360.602 90.291Z" fill="black"/>
<path d="M710.583 343.443C710.583 414.868 687.309 481.072 621.534 527.097C558.555 571.166 455.147 596.596 360.601 596.596C263.785 596.596 160.69 573.052 97.3293 527.097C34.1932 481.305 10.6191 413.225 10.6191 343.443C10.6191 203.631 167.311 90.291 360.601 90.291C553.891 90.291 710.583 203.631 710.583 343.443Z" fill="black"/>
<path d="M360.602 91.791C456.966 91.7911 544.146 120.046 607.197 165.653C670.25 211.262 709.083 274.139 709.083 343.443C709.083 414.515 685.947 480.194 620.674 525.868C558.027 569.705 454.954 595.096 360.602 595.096C263.951 595.096 161.215 571.58 98.21 525.883C35.5636 480.446 12.1191 412.884 12.1191 343.443C12.1191 274.139 50.9524 211.262 114.006 165.653C177.057 120.046 264.237 91.791 360.602 91.791Z" fill="url(#paint1_radial_1307_16278)" stroke="url(#paint2_linear_1307_16278)" stroke-width="3"/>
<mask id="path-5-inside-1_1307_16278" fill="white">
<path d="M592.83 3.57968C602.895 -3.41972 616.766 0.19858 621.845 11.356C633.674 37.3427 653.451 83.1629 665.885 124.688C680.035 171.945 690.658 225.165 696.384 256.771C697.057 260.489 696.016 263.797 694.008 266.239C704.771 290.579 710.583 316.52 710.583 343.444C710.583 414.868 687.309 481.072 621.534 527.097C558.556 571.166 455.147 596.596 360.602 596.596C263.785 596.596 160.69 573.052 97.3291 527.097C34.1933 481.305 10.6192 413.226 10.6191 343.444C10.6191 316.51 16.4352 290.558 27.207 266.21C25.2147 263.77 24.1847 260.474 24.8555 256.771C30.5808 225.165 41.2055 171.945 55.3555 124.688C67.7892 83.1628 87.5661 37.3427 99.3955 11.356C104.475 0.198523 118.346 -3.41986 128.41 3.57968L266.422 99.5621C296.387 93.5206 327.973 90.2916 360.602 90.2916C393.24 90.2916 424.835 93.5228 454.809 99.568L592.83 3.57968Z"/>
</mask>
<path d="M592.83 3.57968C602.895 -3.41972 616.766 0.19858 621.845 11.356C633.674 37.3427 653.451 83.1629 665.885 124.688C680.035 171.945 690.658 225.165 696.384 256.771C697.057 260.489 696.016 263.797 694.008 266.239C704.771 290.579 710.583 316.52 710.583 343.444C710.583 414.868 687.309 481.072 621.534 527.097C558.556 571.166 455.147 596.596 360.602 596.596C263.785 596.596 160.69 573.052 97.3291 527.097C34.1933 481.305 10.6192 413.226 10.6191 343.444C10.6191 316.51 16.4352 290.558 27.207 266.21C25.2147 263.77 24.1847 260.474 24.8555 256.771C30.5808 225.165 41.2055 171.945 55.3555 124.688C67.7892 83.1628 87.5661 37.3427 99.3955 11.356C104.475 0.198523 118.346 -3.41986 128.41 3.57968L266.422 99.5621C296.387 93.5206 327.973 90.2916 360.602 90.2916C393.24 90.2916 424.835 93.5228 454.809 99.568L592.83 3.57968Z" fill="url(#paint3_radial_1307_16278)"/>
<path d="M592.83 3.57968L591.117 1.11674V1.11674L592.83 3.57968ZM621.845 11.356L624.575 10.1131V10.1131L621.845 11.356ZM665.885 124.688L668.759 123.828V123.828L665.885 124.688ZM696.384 256.771L699.336 256.236V256.236L696.384 256.771ZM694.008 266.239L691.691 264.333L690.516 265.761L691.264 267.452L694.008 266.239ZM710.583 343.444H713.583V343.444H710.583ZM621.534 527.097L623.254 529.555V529.555L621.534 527.097ZM360.602 596.596V599.596V599.596V596.596ZM97.3291 527.097L95.5677 529.526V529.526L97.3291 527.097ZM10.6191 343.444H7.61914V343.444H10.6191ZM27.207 266.21L29.9505 267.423L30.6959 265.738L29.5304 264.312L27.207 266.21ZM24.8555 256.771L21.9035 256.236V256.236L24.8555 256.771ZM55.3555 124.688L52.4815 123.828V123.828L55.3555 124.688ZM99.3955 11.356L96.6651 10.1131V10.1131L99.3955 11.356ZM128.41 3.57968L126.697 6.0426L126.697 6.04261L128.41 3.57968ZM266.422 99.5621L264.709 102.025L265.76 102.756L267.015 102.503L266.422 99.5621ZM360.602 90.2916V87.2916V87.2916V90.2916ZM454.809 99.568L454.215 102.509L455.47 102.762L456.521 102.031L454.809 99.568ZM592.83 3.57968L594.543 6.04262C603.113 0.082723 614.832 3.19259 619.114 12.599L621.845 11.356L624.575 10.1131C618.699 -2.79543 602.676 -6.92217 591.117 1.11674L592.83 3.57968ZM621.845 11.356L619.114 12.599C630.93 38.5562 650.638 84.2256 663.011 125.549L665.885 124.688L668.759 123.828C656.264 82.1002 636.418 36.1292 624.575 10.1131L621.845 11.356ZM665.885 124.688L663.011 125.549C677.112 172.644 687.713 225.734 693.432 257.306L696.384 256.771L699.336 256.236C693.604 224.596 682.957 171.246 668.759 123.828L665.885 124.688ZM696.384 256.771L693.432 257.306C693.943 260.127 693.159 262.549 691.691 264.333L694.008 266.239L696.325 268.144C698.874 265.045 700.172 260.851 699.336 256.236L696.384 256.771ZM694.008 266.239L691.264 267.452C701.868 291.431 707.583 316.961 707.583 343.444H710.583H713.583C713.583 316.08 707.675 289.727 696.752 265.026L694.008 266.239ZM710.583 343.444H707.583C707.583 414.163 684.585 479.316 619.814 524.639L621.534 527.097L623.254 529.555C690.032 482.828 713.583 415.573 713.583 343.444H710.583ZM621.534 527.097L619.814 524.639C557.499 568.244 454.76 593.596 360.602 593.596V596.596V599.596C455.535 599.596 559.612 574.088 623.254 529.555L621.534 527.097ZM360.602 596.596V593.596C264.117 593.596 161.74 570.108 99.0905 524.669L97.3291 527.097L95.5677 529.526C159.64 575.997 263.453 599.596 360.602 599.596V596.596ZM97.3291 527.097L99.0905 524.669C36.9338 479.587 13.6192 412.543 13.6191 343.444H10.6191H7.61914C7.61925 413.908 31.4527 483.024 95.5677 529.526L97.3291 527.097ZM10.6191 343.444H13.6191C13.6191 316.95 19.3385 291.41 29.9505 267.423L27.207 266.21L24.4635 264.996C13.5318 289.705 7.61914 316.069 7.61914 343.444H10.6191ZM27.207 266.21L29.5304 264.312C28.0747 262.53 27.2984 260.116 27.8074 257.306L24.8555 256.771L21.9035 256.236C21.0711 260.832 22.3547 265.011 24.8836 268.107L27.207 266.21ZM24.8555 256.771L27.8074 257.306C33.5265 225.734 44.1278 172.644 58.2294 125.549L55.3555 124.688L52.4815 123.828C38.2832 171.246 27.6351 224.595 21.9035 256.236L24.8555 256.771ZM55.3555 124.688L58.2294 125.549C70.6026 84.2255 90.3099 38.5562 102.126 12.599L99.3955 11.356L96.6651 10.1131C84.8223 36.1292 64.9758 82.1001 52.4815 123.828L55.3555 124.688ZM99.3955 11.356L102.126 12.599C106.408 3.19251 118.128 0.0826079 126.697 6.0426L128.41 3.57968L130.123 1.11676C118.564 -6.92234 102.541 -2.79546 96.6651 10.1131L99.3955 11.356ZM128.41 3.57968L126.697 6.04261L264.709 102.025L266.422 99.5621L268.135 97.0992L130.123 1.11675L128.41 3.57968ZM266.422 99.5621L267.015 102.503C296.783 96.5011 328.171 93.2916 360.602 93.2916V90.2916V87.2916C327.776 87.2916 295.991 90.5401 265.829 96.6213L266.422 99.5621ZM360.602 90.2916V93.2916C393.043 93.2916 424.439 96.5033 454.215 102.509L454.809 99.568L455.402 96.6272C425.231 90.5423 393.438 87.2916 360.602 87.2916V90.2916ZM454.809 99.568L456.521 102.031L594.543 6.04262L592.83 3.57968L591.117 1.11674L453.096 97.105L454.809 99.568Z" fill="url(#paint4_linear_1307_16278)" mask="url(#path-5-inside-1_1307_16278)"/>
<path d="M586.706 42.3311C596.552 33.5017 612.003 36.5131 617.439 48.5694C627.916 71.8041 643.434 108.565 653.398 142.831C663.68 178.188 671.727 217.841 676.94 246.719C641.349 190.469 578.107 145.286 499.793 120.269L586.706 42.3311Z" fill="url(#paint5_linear_1307_16278)"/>
<path d="M139.1 37.6275C129.253 28.7981 113.802 31.8095 108.366 43.8658C97.89 67.1005 82.3715 103.861 72.4072 138.128C62.1257 173.485 54.0784 213.138 48.8652 242.015C84.4567 185.766 147.699 140.584 226.013 115.566L139.1 37.6275Z" fill="url(#paint6_linear_1307_16278)"/>
<path d="M341.951 601.805C348.848 601.67 353.795 603.929 356.466 608.109C358.927 611.962 358.714 616.343 357.962 619.094L357.923 619.24L357.874 619.382C355.272 626.948 348.464 630.6 342.362 632.288C336.669 633.863 330.636 634.026 326.397 633.682C326.576 634.072 326.781 634.462 327.017 634.844C328.28 636.887 330.491 638.893 334.624 639.646L334.684 639.657L334.742 639.669C336.976 640.136 340.576 640.244 343.78 639.119C346.757 638.074 349.36 636.017 350.523 631.806L355.033 633.052L359.543 634.298C357.439 641.912 352.279 646.052 346.88 647.947C341.765 649.743 336.438 649.56 332.947 648.851C326.101 647.604 321.655 643.966 319.058 639.763C317.658 637.497 316.824 635.12 316.387 632.94L314.16 632.78C314.659 631.069 314.955 629.538 315.073 628.327L315.073 628.325C315.237 626.641 315.27 625.023 315.192 623.473L316.599 623.575C318.041 616.582 321.804 611.52 326.213 608.078C331.414 604.019 337.443 602.241 341.577 601.827L341.763 601.808L341.951 601.805ZM348.581 613.146C348.206 612.56 346.948 611.109 342.336 611.157C339.656 611.46 335.484 612.711 331.97 615.453C329.409 617.453 327.159 620.26 326.053 624.258L326.267 624.273L326.352 624.282C329.747 624.652 335.097 624.589 339.868 623.269C344.65 621.947 347.797 619.696 348.971 616.488C349.239 615.376 349.146 614.03 348.581 613.146Z" fill="url(#paint7_linear_1307_16278)"/>
<path d="M275.91 602.291C279.153 598.539 284.374 597.014 291.18 598.139L291.365 598.169L291.547 598.215C295.579 599.219 301.289 601.845 305.852 606.609C310.551 611.516 313.965 618.646 313.041 628.128L313.041 628.129C312.753 631.072 311.264 636.361 307.989 641.24C304.64 646.231 299.148 651.162 290.84 652.286C287.797 652.698 283.235 652.34 278.933 650.261C274.446 648.092 270.249 644.031 268.556 637.313L277.63 635.027C278.566 638.743 280.702 640.723 283.005 641.837C285.492 643.039 288.177 643.205 289.586 643.014C294.521 642.346 297.903 639.48 300.221 636.026C301.143 634.652 301.853 633.24 302.388 631.944C298.123 631.716 291.97 630.699 286.391 628.247C280.595 625.699 274.383 621.107 272.896 613.245L272.868 613.097L272.85 612.947C272.501 610.117 272.92 605.751 275.91 602.291ZM289.454 607.339C284.897 606.628 283.443 607.884 282.988 608.41C282.303 609.203 282.017 610.521 282.122 611.661C282.823 615.004 285.614 617.684 290.156 619.68C294.688 621.672 299.973 622.503 303.386 622.626L303.471 622.629L303.685 622.644C303.165 618.529 301.343 615.428 299.095 613.081C296.012 609.861 292.064 608.024 289.454 607.339Z" fill="url(#paint8_linear_1307_16278)"/>
<path d="M275.91 602.291C279.153 598.539 284.374 597.014 291.18 598.139L291.365 598.169L291.547 598.215C295.579 599.219 301.289 601.845 305.852 606.609C310.551 611.516 313.965 618.646 313.041 628.128L313.041 628.129C312.753 631.072 311.264 636.361 307.989 641.24C304.64 646.231 299.148 651.162 290.84 652.286C287.797 652.698 283.235 652.34 278.933 650.261C274.446 648.092 270.249 644.031 268.556 637.313L277.63 635.027C278.566 638.743 280.702 640.723 283.005 641.837C285.492 643.039 288.177 643.205 289.586 643.014C294.521 642.346 297.903 639.48 300.221 636.026C301.143 634.652 301.853 633.24 302.388 631.944C298.123 631.716 291.97 630.699 286.391 628.247C280.595 625.699 274.383 621.107 272.896 613.245L272.868 613.097L272.85 612.947C272.501 610.117 272.92 605.751 275.91 602.291ZM289.454 607.339C284.897 606.628 283.443 607.884 282.988 608.41C282.303 609.203 282.017 610.521 282.122 611.661C282.823 615.004 285.614 617.684 290.156 619.68C294.688 621.672 299.973 622.503 303.386 622.626L303.471 622.629L303.685 622.644C303.165 618.529 301.343 615.428 299.095 613.081C296.012 609.861 292.064 608.024 289.454 607.339Z" fill="url(#paint9_linear_1307_16278)"/>
<path d="M275.91 602.291C279.153 598.539 284.374 597.014 291.18 598.139L291.365 598.169L291.547 598.215C295.579 599.219 301.289 601.845 305.852 606.609C310.551 611.516 313.965 618.646 313.041 628.128L313.041 628.129C312.753 631.072 311.264 636.361 307.989 641.24C304.64 646.231 299.148 651.162 290.84 652.286C287.797 652.698 283.235 652.34 278.933 650.261C274.446 648.092 270.249 644.031 268.556 637.313L277.63 635.027C278.566 638.743 280.702 640.723 283.005 641.837C285.492 643.039 288.177 643.205 289.586 643.014C294.521 642.346 297.903 639.48 300.221 636.026C301.143 634.652 301.853 633.24 302.388 631.944C298.123 631.716 291.97 630.699 286.391 628.247C280.595 625.699 274.383 621.107 272.896 613.245L272.868 613.097L272.85 612.947C272.501 610.117 272.92 605.751 275.91 602.291ZM289.454 607.339C284.897 606.628 283.443 607.884 282.988 608.41C282.303 609.203 282.017 610.521 282.122 611.661C282.823 615.004 285.614 617.684 290.156 619.68C294.688 621.672 299.973 622.503 303.386 622.626L303.471 622.629L303.685 622.644C303.165 618.529 301.343 615.428 299.095 613.081C296.012 609.861 292.064 608.024 289.454 607.339Z" fill="url(#paint10_linear_1307_16278)"/>
<path d="M275.91 602.291C279.153 598.539 284.374 597.014 291.18 598.139L291.365 598.169L291.547 598.215C295.579 599.219 301.289 601.845 305.852 606.609C310.551 611.516 313.965 618.646 313.041 628.128L313.041 628.129C312.753 631.072 311.264 636.361 307.989 641.24C304.64 646.231 299.148 651.162 290.84 652.286C287.797 652.698 283.235 652.34 278.933 650.261C274.446 648.092 270.249 644.031 268.556 637.313L277.63 635.027C278.566 638.743 280.702 640.723 283.005 641.837C285.492 643.039 288.177 643.205 289.586 643.014C294.521 642.346 297.903 639.48 300.221 636.026C301.143 634.652 301.853 633.24 302.388 631.944C298.123 631.716 291.97 630.699 286.391 628.247C280.595 625.699 274.383 621.107 272.896 613.245L272.868 613.097L272.85 612.947C272.501 610.117 272.92 605.751 275.91 602.291ZM289.454 607.339C284.897 606.628 283.443 607.884 282.988 608.41C282.303 609.203 282.017 610.521 282.122 611.661C282.823 615.004 285.614 617.684 290.156 619.68C294.688 621.672 299.973 622.503 303.386 622.626L303.471 622.629L303.685 622.644C303.165 618.529 301.343 615.428 299.095 613.081C296.012 609.861 292.064 608.024 289.454 607.339Z" fill="url(#paint11_linear_1307_16278)"/>
<path d="M332.358 361.715C342.568 399.717 360.304 461.377 393.505 489.552C426.805 517.81 463.991 519.082 501.993 508.872C539.996 498.662 570.067 477.795 592.037 439.682C614.007 401.569 621.599 324.763 618.932 284.72L475.645 323.217L332.358 361.715Z" fill="url(#paint12_linear_1307_16278)"/>
<path d="M288.878 358.839C276.952 389.666 256.623 439.578 226.373 460.14C196.033 480.763 164.861 478.499 134.034 466.572C103.208 454.645 79.9588 434.527 65.0184 400.73C50.078 366.932 50.6079 302.104 56.4167 268.898L172.648 313.869L288.878 358.839Z" fill="url(#paint13_linear_1307_16278)"/>
<mask id="mask0_1307_16278" style="mask-type:alpha" maskUnits="userSpaceOnUse" x="61" y="271" width="237" height="208">
<path d="M297.291 361.318C285.364 392.144 265.035 442.057 234.785 462.619C204.445 483.241 173.273 480.977 142.447 469.051C111.62 457.124 88.3709 437.006 73.4305 403.208C58.4901 369.411 59.02 304.583 64.8288 271.377L181.06 316.348L297.291 361.318Z" fill="url(#paint14_linear_1307_16278)"/>
</mask>
<g mask="url(#mask0_1307_16278)">
<ellipse cx="103.126" cy="121.922" rx="103.126" ry="121.922" transform="matrix(1 0 0 -1 76.2432 424.222)" fill="url(#paint15_linear_1307_16278)"/>
<g filter="url(#filter0_f_1307_16278)">
<path d="M144.642 353.68L149.062 365.628L161.01 370.048L149.062 374.469L144.642 386.417L140.221 374.469L128.273 370.048L140.221 365.628L144.642 353.68Z" fill="#FFE3ED" fill-opacity="0.5"/>
</g>
<g filter="url(#filter1_f_1307_16278)">
<path d="M126.034 342.932L128.363 349.224L134.655 351.552L128.363 353.88L126.034 360.172L123.706 353.88L117.414 351.552L123.706 349.224L126.034 342.932Z" fill="#FFE3ED" fill-opacity="0.5"/>
</g>
</g>
<mask id="mask1_1307_16278" style="mask-type:alpha" maskUnits="userSpaceOnUse" x="61" y="271" width="237" height="208">
<path d="M297.291 361.318C285.364 392.144 265.035 442.057 234.785 462.619C204.445 483.241 173.273 480.977 142.447 469.051C111.62 457.124 88.3709 437.006 73.4305 403.208C58.4901 369.411 59.02 304.583 64.8288 271.377L181.06 316.348L297.291 361.318Z" fill="url(#paint16_linear_1307_16278)"/>
</mask>
<g mask="url(#mask1_1307_16278)">
<ellipse cx="103.126" cy="121.922" rx="103.126" ry="121.922" transform="matrix(1 0 0 -1 76.2432 424.222)" fill="url(#paint17_linear_1307_16278)"/>
<g filter="url(#filter2_f_1307_16278)">
<path d="M144.642 353.68L149.062 365.628L161.01 370.048L149.062 374.469L144.642 386.417L140.221 374.469L128.273 370.048L140.221 365.628L144.642 353.68Z" fill="#FFE3ED" fill-opacity="0.5"/>
</g>
<g filter="url(#filter3_f_1307_16278)">
<path d="M126.034 342.932L128.363 349.224L134.655 351.552L128.363 353.88L126.034 360.172L123.706 353.88L117.414 351.552L123.706 349.224L126.034 342.932Z" fill="#FFE3ED" fill-opacity="0.5"/>
</g>
</g>
<mask id="mask2_1307_16278" style="mask-type:alpha" maskUnits="userSpaceOnUse" x="332" y="284" width="288" height="231">
<path d="M332.358 361.715C342.568 399.717 360.304 461.377 393.505 489.551C426.805 517.81 463.991 519.082 501.993 508.872C539.996 498.661 570.067 477.795 592.037 439.682C614.007 401.569 621.599 324.763 618.932 284.72L475.645 323.217L332.358 361.715Z" fill="url(#paint18_linear_1307_16278)"/>
</mask>
<g mask="url(#mask2_1307_16278)">
<ellipse cx="464.89" cy="302.3" rx="127.696" ry="150.971" transform="rotate(-180 464.89 302.3)" fill="url(#paint19_linear_1307_16278)"/>
<g filter="url(#filter4_f_1307_16278)">
<path d="M507.891 365.923L502.417 380.716L487.623 386.19L502.417 391.665L507.891 406.458L513.365 391.665L528.159 386.19L513.365 380.716L507.891 365.923Z" fill="#FFE3ED" fill-opacity="0.5"/>
</g>
<g filter="url(#filter5_f_1307_16278)">
<path d="M530.932 352.614L528.049 360.405L520.258 363.288L528.049 366.171L530.932 373.962L533.815 366.171L541.606 363.288L533.815 360.405L530.932 352.614Z" fill="#FFE3ED" fill-opacity="0.5"/>
</g>
</g>
<defs>
<filter id="filter0_f_1307_16278" x="125.063" y="350.47" width="39.1571" height="39.1569" filterUnits="userSpaceOnUse" color-interpolation-filters="sRGB">
<feFlood flood-opacity="0" result="BackgroundImageFix"/>
<feBlend mode="normal" in="SourceGraphic" in2="BackgroundImageFix" result="shape"/>
<feGaussianBlur stdDeviation="1.60521" result="effect1_foregroundBlur_1307_16278"/>
</filter>
<filter id="filter1_f_1307_16278" x="114.204" y="339.721" width="23.6611" height="23.6613" filterUnits="userSpaceOnUse" color-interpolation-filters="sRGB">
<feFlood flood-opacity="0" result="BackgroundImageFix"/>
<feBlend mode="normal" in="SourceGraphic" in2="BackgroundImageFix" result="shape"/>
<feGaussianBlur stdDeviation="1.60521" result="effect1_foregroundBlur_1307_16278"/>
</filter>
<filter id="filter2_f_1307_16278" x="125.063" y="350.47" width="39.1571" height="39.1569" filterUnits="userSpaceOnUse" color-interpolation-filters="sRGB">
<feFlood flood-opacity="0" result="BackgroundImageFix"/>
<feBlend mode="normal" in="SourceGraphic" in2="BackgroundImageFix" result="shape"/>
<feGaussianBlur stdDeviation="1.60521" result="effect1_foregroundBlur_1307_16278"/>
</filter>
<filter id="filter3_f_1307_16278" x="114.204" y="339.721" width="23.6611" height="23.6613" filterUnits="userSpaceOnUse" color-interpolation-filters="sRGB">
<feFlood flood-opacity="0" result="BackgroundImageFix"/>
<feBlend mode="normal" in="SourceGraphic" in2="BackgroundImageFix" result="shape"/>
<feGaussianBlur stdDeviation="1.60521" result="effect1_foregroundBlur_1307_16278"/>
</filter>
<filter id="filter4_f_1307_16278" x="483.648" y="361.947" width="48.4868" height="48.4865" filterUnits="userSpaceOnUse" color-interpolation-filters="sRGB">
<feFlood flood-opacity="0" result="BackgroundImageFix"/>
<feBlend mode="normal" in="SourceGraphic" in2="BackgroundImageFix" result="shape"/>
<feGaussianBlur stdDeviation="1.98766" result="effect1_foregroundBlur_1307_16278"/>
</filter>
<filter id="filter5_f_1307_16278" x="516.282" y="348.639" width="29.2993" height="29.2988" filterUnits="userSpaceOnUse" color-interpolation-filters="sRGB">
<feFlood flood-opacity="0" result="BackgroundImageFix"/>
<feBlend mode="normal" in="SourceGraphic" in2="BackgroundImageFix" result="shape"/>
<feGaussianBlur stdDeviation="1.98766" result="effect1_foregroundBlur_1307_16278"/>
</filter>
<linearGradient id="paint0_linear_1307_16278" x1="361.794" y1="687.385" x2="370.903" y2="1053.86" gradientUnits="userSpaceOnUse">
<stop/>
<stop offset="1" stop-color="#FBFCEE"/>
</linearGradient>
<radialGradient id="paint1_radial_1307_16278" cx="0" cy="0" r="1" gradientUnits="userSpaceOnUse" gradientTransform="translate(360.601 90.291) rotate(90) scale(555.795 542.189)">
<stop/>
<stop offset="0.817936"/>
<stop offset="1" stop-color="#FBFCEE"/>
</radialGradient>
<linearGradient id="paint2_linear_1307_16278" x1="360.601" y1="90.291" x2="360.601" y2="596.596" gradientUnits="userSpaceOnUse">
<stop/>
<stop offset="1" stop-color="#FBFCEE"/>
</linearGradient>
<radialGradient id="paint3_radial_1307_16278" cx="0" cy="0" r="1" gradientUnits="userSpaceOnUse" gradientTransform="translate(360.601 90.2911) rotate(90) scale(555.796 542.189)">
<stop/>
<stop offset="0.817936"/>
<stop offset="1" stop-color="#FBFCEE"/>
</radialGradient>
<linearGradient id="paint4_linear_1307_16278" x1="360.601" y1="0" x2="360.601" y2="914.721" gradientUnits="userSpaceOnUse">
<stop/>
<stop offset="1" stop-color="#FBFCEE"/>
</linearGradient>
<linearGradient id="paint5_linear_1307_16278" x1="716.2" y1="281.831" x2="459.071" y2="42.9224" gradientUnits="userSpaceOnUse">
<stop stop-color="#FBFCEE"/>
<stop offset="0.5" stop-color="#E56695"/>
<stop offset="1" stop-color="#CB5A84"/>
</linearGradient>
<linearGradient id="paint6_linear_1307_16278" x1="9.60593" y1="277.127" x2="266.734" y2="38.2188" gradientUnits="userSpaceOnUse">
<stop stop-color="#FBFCEE"/>
<stop offset="0.5" stop-color="#E56695"/>
<stop offset="1" stop-color="#CB5A84"/>
</linearGradient>
<linearGradient id="paint7_linear_1307_16278" x1="339.167" y1="601.484" x2="332.916" y2="688.009" gradientUnits="userSpaceOnUse">
<stop stop-color="#FE71A5"/>
<stop offset="1" stop-color="#FBFCEE"/>
</linearGradient>
<linearGradient id="paint8_linear_1307_16278" x1="293.3" y1="598.173" x2="289.371" y2="652.555" gradientUnits="userSpaceOnUse">
<stop stop-color="#FE8DB7"/>
<stop offset="1" stop-color="#FE8DB7"/>
</linearGradient>
<linearGradient id="paint9_linear_1307_16278" x1="293.3" y1="598.173" x2="289.371" y2="652.555" gradientUnits="userSpaceOnUse">
<stop stop-color="#FE71A5"/>
<stop offset="1" stop-color="#FBFCEE"/>
</linearGradient>
<linearGradient id="paint10_linear_1307_16278" x1="293.3" y1="598.173" x2="287.373" y2="680.211" gradientUnits="userSpaceOnUse">
<stop stop-color="#FE71A5"/>
<stop offset="1" stop-color="#FBFCEE"/>
</linearGradient>
<linearGradient id="paint11_linear_1307_16278" x1="293.3" y1="598.173" x2="286.183" y2="696.681" gradientUnits="userSpaceOnUse">
<stop stop-color="#FE71A5"/>
<stop offset="1" stop-color="#FBFCEE"/>
</linearGradient>
<linearGradient id="paint12_linear_1307_16278" x1="523.941" y1="502.975" x2="475.645" y2="323.217" gradientUnits="userSpaceOnUse">
<stop stop-color="#EAE9EA"/>
<stop offset="1" stop-color="#FFF5FD"/>
</linearGradient>
<linearGradient id="paint13_linear_1307_16278" x1="116.231" y1="459.684" x2="172.648" y2="313.869" gradientUnits="userSpaceOnUse">
<stop stop-color="#EAE9EA"/>
<stop offset="1" stop-color="#FFF5FD"/>
</linearGradient>
<linearGradient id="paint14_linear_1307_16278" x1="124.643" y1="462.162" x2="181.06" y2="316.348" gradientUnits="userSpaceOnUse">
<stop stop-color="#EAE9EA"/>
<stop offset="1" stop-color="#FFF5FD"/>
</linearGradient>
<linearGradient id="paint15_linear_1307_16278" x1="98.3459" y1="53.4047" x2="103.126" y2="243.844" gradientUnits="userSpaceOnUse">
<stop stop-color="#1E1D1E"/>
<stop offset="1" stop-color="#662D42"/>
</linearGradient>
<linearGradient id="paint16_linear_1307_16278" x1="124.643" y1="462.162" x2="181.06" y2="316.348" gradientUnits="userSpaceOnUse">
<stop stop-color="#EAE9EA"/>
<stop offset="1" stop-color="#FFF5FD"/>
</linearGradient>
<linearGradient id="paint17_linear_1307_16278" x1="98.3459" y1="53.4047" x2="116.601" y2="121.922" gradientUnits="userSpaceOnUse">
<stop stop-color="#1E1D1E"/>
<stop offset="1" stop-color="#662D42"/>
</linearGradient>
<linearGradient id="paint18_linear_1307_16278" x1="523.941" y1="502.975" x2="475.645" y2="323.217" gradientUnits="userSpaceOnUse">
<stop stop-color="#EAE9EA"/>
<stop offset="1" stop-color="#FFF5FD"/>
</linearGradient>
<linearGradient id="paint19_linear_1307_16278" x1="458.971" y1="217.458" x2="476.06" y2="302.3" gradientUnits="userSpaceOnUse">
<stop stop-color="#1E1D1E"/>
<stop offset="1" stop-color="#662D42"/>
</linearGradient>
</defs>
</svg>
