<svg width="747" height="683" viewBox="0 0 747 683" fill="none" xmlns="http://www.w3.org/2000/svg">
<path d="M369.192 451.585C476.301 451.585 563.13 490.881 563.13 539.354C563.13 540.838 563.047 542.313 562.887 543.779C564.72 551.654 563.426 560.362 557.991 567.937L484.531 670.314C467.536 694 430.157 681.976 430.157 652.824V622.697C410.986 625.568 390.49 627.124 369.192 627.124C347.008 627.124 325.694 625.436 305.842 622.332V652.824C305.842 681.976 268.463 694 251.468 670.314L178.008 567.937C171.087 558.292 170.879 546.809 175.296 537.55C177.419 489.909 263.416 451.585 369.192 451.585Z" fill="url(#paint0_linear_701_632)"/>
<path d="M368 90.291C561.29 90.2911 717.981 203.631 717.981 343.443C717.981 414.868 694.707 481.072 628.933 527.098C565.954 571.167 462.546 596.596 368 596.596C271.183 596.596 168.088 573.053 104.728 527.098C41.5915 481.306 18.0176 413.225 18.0176 343.443C18.0176 203.631 174.71 90.291 368 90.291Z" fill="black"/>
<path d="M717.982 343.443C717.982 414.868 694.707 481.072 628.932 527.097C565.954 571.166 462.546 596.596 368 596.596C271.183 596.596 168.089 573.052 104.728 527.097C41.5917 481.305 18.0176 413.225 18.0176 343.443C18.0176 203.631 174.71 90.291 368 90.291C561.289 90.291 717.982 203.631 717.982 343.443Z" fill="black"/>
<path d="M368 91.791C464.364 91.7911 551.544 120.046 614.596 165.653C677.649 211.262 716.481 274.139 716.481 343.443C716.481 414.515 693.345 480.194 628.072 525.868C565.425 569.705 462.352 595.096 368 595.096C271.349 595.096 168.614 571.58 105.608 525.883C42.962 480.446 19.5176 412.884 19.5176 343.443C19.5176 274.139 58.3508 211.262 121.404 165.653C184.456 120.046 271.636 91.791 368 91.791Z" fill="url(#paint1_radial_701_632)" stroke="url(#paint2_linear_701_632)" stroke-width="3"/>
<mask id="path-5-inside-1_701_632" fill="white">
<path d="M600.229 3.57951C610.293 -3.41958 624.164 0.198718 629.243 11.3559C641.073 37.3425 660.849 83.1627 673.283 124.688C687.433 171.945 698.057 225.165 703.782 256.772C704.456 260.49 703.415 263.798 701.406 266.24C712.17 290.579 717.981 316.52 717.981 343.444C717.981 414.868 694.707 481.072 628.933 527.098C565.954 571.167 462.546 596.596 368 596.596C271.183 596.596 168.088 573.053 104.728 527.098C41.5915 481.306 18.0176 413.226 18.0176 343.444C18.0176 316.51 23.8337 290.559 34.6055 266.21C32.613 263.771 31.5832 260.475 32.2539 256.772C37.9792 225.165 48.6039 171.945 62.7539 124.688C75.1876 83.1627 94.9645 37.3424 106.794 11.3559C111.873 0.198741 125.744 -3.41985 135.809 3.57951L273.821 99.5629C303.786 93.5215 335.372 90.2914 368 90.2914C400.638 90.2915 432.233 93.5237 462.206 99.5688L600.229 3.57951Z"/>
</mask>
<path d="M600.229 3.57951C610.293 -3.41958 624.164 0.198718 629.243 11.3559C641.073 37.3425 660.849 83.1627 673.283 124.688C687.433 171.945 698.057 225.165 703.782 256.772C704.456 260.49 703.415 263.798 701.406 266.24C712.17 290.579 717.981 316.52 717.981 343.444C717.981 414.868 694.707 481.072 628.933 527.098C565.954 571.167 462.546 596.596 368 596.596C271.183 596.596 168.088 573.053 104.728 527.098C41.5915 481.306 18.0176 413.226 18.0176 343.444C18.0176 316.51 23.8337 290.559 34.6055 266.21C32.613 263.771 31.5832 260.475 32.2539 256.772C37.9792 225.165 48.6039 171.945 62.7539 124.688C75.1876 83.1627 94.9645 37.3424 106.794 11.3559C111.873 0.198741 125.744 -3.41985 135.809 3.57951L273.821 99.5629C303.786 93.5215 335.372 90.2914 368 90.2914C400.638 90.2915 432.233 93.5237 462.206 99.5688L600.229 3.57951Z" fill="url(#paint3_radial_701_632)"/>
<path d="M600.229 3.57951L598.516 1.11654L598.516 1.11657L600.229 3.57951ZM629.243 11.3559L631.974 10.113V10.1129L629.243 11.3559ZM673.283 124.688L676.157 123.827V123.827L673.283 124.688ZM703.782 256.772L706.734 256.237V256.237L703.782 256.772ZM701.406 266.24L699.089 264.334L697.915 265.762L698.663 267.453L701.406 266.24ZM717.981 343.444H720.981V343.444H717.981ZM628.933 527.098L630.653 529.556V529.556L628.933 527.098ZM368 596.596V599.596V599.596V596.596ZM104.728 527.098L102.966 529.527V529.527L104.728 527.098ZM18.0176 343.444H15.0176V343.444H18.0176ZM34.6055 266.21L37.349 267.424L38.0944 265.739L36.9288 264.312L34.6055 266.21ZM32.2539 256.772L29.3019 256.237L29.3019 256.237L32.2539 256.772ZM62.7539 124.688L59.88 123.827V123.827L62.7539 124.688ZM106.794 11.3559L104.064 10.1129L104.064 10.113L106.794 11.3559ZM135.809 3.57951L137.521 1.11658L137.521 1.11657L135.809 3.57951ZM273.821 99.5629L272.108 102.026L273.159 102.757L274.414 102.504L273.821 99.5629ZM368 90.2914V87.2914V87.2914V90.2914ZM462.206 99.5688L461.613 102.51L462.868 102.763L463.919 102.032L462.206 99.5688ZM600.229 3.57951L601.941 6.04247C610.511 0.0828389 622.231 3.19273 626.513 12.5988L629.243 11.3559L631.974 10.1129C626.097 -2.79529 610.075 -6.92201 598.516 1.11654L600.229 3.57951ZM629.243 11.3559L626.513 12.5988C638.329 38.556 658.036 84.2254 670.409 125.548L673.283 124.688L676.157 123.827C663.663 82.0999 643.816 36.129 631.974 10.113L629.243 11.3559ZM673.283 124.688L670.409 125.548C684.511 172.644 695.111 225.735 700.83 257.307L703.782 256.772L706.734 256.237C701.003 224.596 690.356 171.246 676.157 123.827L673.283 124.688ZM703.782 256.772L700.83 257.307C701.341 260.128 700.557 262.549 699.089 264.334L701.406 266.24L703.723 268.145C706.272 265.046 707.57 260.852 706.734 256.237L703.782 256.772ZM701.406 266.24L698.663 267.453C709.266 291.432 714.981 316.961 714.981 343.444H717.981H720.981C720.981 316.08 715.073 289.727 704.15 265.026L701.406 266.24ZM717.981 343.444H714.981C714.981 414.163 691.984 479.316 627.213 524.64L628.933 527.098L630.653 529.556C697.431 482.828 720.981 415.573 720.981 343.444H717.981ZM628.933 527.098L627.213 524.64C564.898 568.245 462.159 593.596 368 593.596V596.596V599.596C462.933 599.596 567.011 574.089 630.653 529.556L628.933 527.098ZM368 596.596V593.596C271.515 593.596 169.138 570.109 106.489 524.67L104.728 527.098L102.966 529.527C167.038 575.997 270.852 599.596 368 599.596V596.596ZM104.728 527.098L106.489 524.67C44.332 479.588 21.0176 412.543 21.0176 343.444H18.0176H15.0176C15.0176 413.908 38.8509 483.024 102.966 529.527L104.728 527.098ZM18.0176 343.444H21.0176C21.0176 316.95 26.7371 291.411 37.349 267.424L34.6055 266.21L31.862 264.997C20.9304 289.706 15.0176 316.069 15.0176 343.444H18.0176ZM34.6055 266.21L36.9288 264.312C35.473 262.53 34.6968 260.117 35.2059 257.307L32.2539 256.772L29.3019 256.237C28.4696 260.832 29.753 265.012 32.2821 268.108L34.6055 266.21ZM32.2539 256.772L35.2059 257.307C40.9249 225.735 51.5262 172.644 65.6278 125.548L62.7539 124.688L59.88 123.827C45.6816 171.246 35.0335 224.596 29.3019 256.237L32.2539 256.772ZM62.7539 124.688L65.6278 125.548C78.001 84.2254 97.7083 38.556 109.524 12.5988L106.794 11.3559L104.064 10.113C92.2207 36.1289 72.3742 82.1 59.88 123.827L62.7539 124.688ZM106.794 11.3559L109.524 12.5989C113.806 3.19266 125.526 0.0826493 134.096 6.04244L135.809 3.57951L137.521 1.11657C125.962 -6.92236 109.94 -2.79518 104.064 10.1129L106.794 11.3559ZM135.809 3.57951L134.096 6.04243L272.108 102.026L273.821 99.5629L275.534 97.1L137.521 1.11658L135.809 3.57951ZM273.821 99.5629L274.414 102.504C304.182 96.502 335.569 93.2914 368 93.2914V90.2914V87.2914C335.174 87.2914 303.39 90.541 273.228 96.6221L273.821 99.5629ZM368 90.2914V93.2914C400.441 93.2915 431.837 96.5042 461.613 102.51L462.206 99.5688L462.799 96.628C432.629 90.5432 400.836 87.2915 368 87.2914V90.2914ZM462.206 99.5688L463.919 102.032L601.941 6.04244L600.229 3.57951L598.516 1.11657L460.493 97.1058L462.206 99.5688Z" fill="url(#paint4_linear_701_632)" mask="url(#path-5-inside-1_701_632)"/>
<path d="M594.104 42.3316C603.95 33.5022 619.401 36.5136 624.837 48.5699C635.313 71.8046 650.832 108.566 660.796 142.832C671.078 178.189 679.125 217.843 684.338 246.72C648.747 190.471 585.505 145.288 507.19 120.27L594.104 42.3316Z" fill="url(#paint5_linear_701_632)"/>
<path d="M146.498 37.6273C136.652 28.7982 121.201 31.8094 115.765 43.8656C105.289 67.1002 89.77 103.861 79.8057 138.127C69.5241 173.484 61.4768 213.138 56.2637 242.015C91.8553 185.766 155.097 140.583 233.411 115.566L146.498 37.6273Z" fill="url(#paint6_linear_701_632)"/>
<ellipse cx="535.824" cy="324.698" rx="146.578" ry="173.294" transform="rotate(-27.7101 535.824 324.698)" fill="url(#paint7_linear_701_632)"/>
<ellipse cx="535.824" cy="324.698" rx="146.578" ry="173.294" transform="rotate(-27.7101 535.824 324.698)" fill="url(#paint8_linear_701_632)" fill-opacity="0.2"/>
<path d="M666.92 255.842C666.034 256.307 665.149 256.772 664.264 257.237C671.904 272.069 677.74 287.767 681.511 303.956C697.447 367.692 675.564 445.023 615.243 475.904C615.243 475.904 615.243 475.904 615.243 475.904C539.193 516.362 444.14 465.635 407.164 392.275C366.631 321.013 376.984 212.045 455.243 171.278C455.243 171.278 455.243 171.278 455.243 171.278C516.259 138.433 593.514 165.693 636.256 215.919C647.298 228.448 656.684 242.373 664.264 257.237C665.149 256.772 666.034 256.307 666.92 255.842C658.873 240.951 649.074 227.073 637.684 214.636C593.493 164.802 516.189 138.494 455.243 171.278C455.243 171.278 455.243 171.278 455.243 171.278C377.158 211.872 365.091 320.544 404.95 393.437C441.035 468.083 537.898 522.419 617.568 480.331C617.568 480.331 617.568 480.331 617.568 480.331C680.502 448.044 702.237 367.719 685.128 303.089C681.075 286.64 674.908 270.763 666.92 255.842ZM664.264 257.237L666.92 255.842L664.264 257.237Z" fill="url(#paint9_linear_701_632)"/>
<ellipse cx="533.057" cy="315.904" rx="128.489" ry="151.908" transform="rotate(-27.7101 533.057 315.904)" fill="url(#paint10_linear_701_632)"/>
<ellipse cx="146.578" cy="173.294" rx="146.578" ry="173.294" transform="matrix(-0.885312 -0.464997 -0.464997 0.885312 420.697 239.437)" fill="url(#paint11_linear_701_632)"/>
<ellipse cx="146.578" cy="173.294" rx="146.578" ry="173.294" transform="matrix(-0.885312 -0.464997 -0.464997 0.885312 420.697 239.437)" fill="url(#paint12_linear_701_632)" fill-opacity="0.2"/>
<path d="M79.2532 255.842C80.1385 256.307 81.0238 256.772 81.9092 257.237C74.2685 272.069 68.4333 287.767 64.6619 303.956C48.7262 367.692 70.6089 445.023 130.93 475.904C130.93 475.904 130.93 475.904 130.93 475.904C206.98 516.362 302.033 465.635 339.009 392.275C379.542 321.013 369.189 212.045 290.93 171.278C290.93 171.278 290.93 171.278 290.93 171.278C229.914 138.433 152.659 165.693 109.917 215.919C98.8747 228.448 89.4892 242.373 81.9092 257.237C81.0238 256.772 80.1385 256.307 79.2532 255.842C87.2995 240.951 97.0989 227.073 108.488 214.636C152.68 164.802 229.984 138.494 290.93 171.278C290.93 171.278 290.93 171.278 290.93 171.278C369.015 211.872 381.082 320.544 341.222 393.437C305.138 468.083 208.275 522.419 128.605 480.331C128.605 480.331 128.605 480.331 128.605 480.331C65.6706 448.044 43.9361 367.719 61.0444 303.089C65.0975 286.64 71.2645 270.763 79.2532 255.842ZM81.9092 257.237L79.2532 255.842L81.9092 257.237Z" fill="url(#paint13_linear_701_632)"/>
<ellipse cx="128.489" cy="151.908" rx="128.489" ry="151.908" transform="matrix(-0.885312 -0.464997 -0.464997 0.885312 401.539 240.725)" fill="url(#paint14_linear_701_632)"/>
<g filter="url(#filter2_f_701_632)">
<ellipse cx="583.277" cy="269.856" rx="46.9133" ry="62.7975" transform="rotate(-39.3254 583.277 269.856)" fill="#FFB4C9"/>
</g>
<g filter="url(#filter3_f_701_632)">
<ellipse cx="470.94" cy="339.785" rx="20.875" ry="27.943" transform="rotate(-30.8867 470.94 339.785)" fill="#FFB4C9"/>
</g>
<g filter="url(#filter4_f_701_632)">
<ellipse cx="46.9133" cy="62.7975" rx="46.9133" ry="62.7975" transform="matrix(-0.77356 -0.633724 -0.633724 0.77356 244.386 251.009)" fill="#FFB4C9"/>
</g>
<g filter="url(#filter5_f_701_632)">
<ellipse cx="20.875" cy="27.943" rx="20.875" ry="27.943" transform="matrix(-0.858184 -0.513342 -0.513342 0.858184 317.189 322.344)" fill="#FFB4C9"/>
</g>
<ellipse cx="470.939" cy="340.466" rx="20.8726" ry="27.1511" transform="rotate(-30.8867 470.939 340.466)" fill="white"/>
<ellipse cx="46.1177" cy="61.7325" rx="46.1177" ry="61.7325" transform="matrix(-0.77356 -0.633724 -0.633724 0.77356 243.77 250.505)" fill="white"/>
<ellipse cx="583.278" cy="269.033" rx="46.1177" ry="61.7325" transform="rotate(-39.3254 583.278 269.033)" fill="white"/>
<ellipse cx="20.875" cy="27.1543" rx="20.875" ry="27.1543" transform="matrix(-0.858184 -0.513342 -0.513342 0.858184 317.189 323.021)" fill="white"/>
<path d="M393.378 603.313C400.248 602.681 405.345 604.578 408.31 608.554C411.043 612.22 411.145 616.605 410.594 619.402L410.565 619.551L410.526 619.696C408.476 627.43 401.949 631.564 395.985 633.687C390.42 635.668 384.415 636.266 380.162 636.228C380.369 636.604 380.601 636.978 380.864 637.342C382.271 639.288 384.621 641.13 388.797 641.583L388.857 641.59L388.917 641.598C391.178 641.902 394.777 641.75 397.892 640.398C400.785 639.141 403.233 636.902 404.09 632.618L408.678 633.535L413.266 634.453C411.716 642.2 406.868 646.7 401.619 648.98C396.648 651.139 391.321 651.34 387.788 650.885C380.87 650.135 376.174 646.826 373.28 642.821C371.721 640.663 370.718 638.352 370.124 636.209H367.892C368.266 634.467 368.451 632.918 368.481 631.702V631.7C368.524 630.008 368.44 628.393 368.25 626.853H369.661C370.596 619.774 373.983 614.454 378.134 610.703C383.029 606.28 388.913 604.072 393.007 603.361L393.191 603.329L393.378 603.313ZM400.809 614.147C400.392 613.589 399.032 612.232 394.437 612.612C391.785 613.107 387.714 614.656 384.407 617.645C381.996 619.824 379.955 622.786 379.14 626.853H379.354L379.439 626.856C382.852 626.979 388.184 626.531 392.848 624.871C397.522 623.207 400.498 620.735 401.438 617.451C401.625 616.323 401.435 614.987 400.809 614.147Z" fill="url(#paint15_linear_701_632)"/>
<path d="M327.544 608.556C330.509 604.58 335.606 602.683 342.476 603.315L342.662 603.331L342.847 603.364C346.94 604.074 352.825 606.282 357.72 610.705C362.76 615.26 366.678 622.127 366.44 631.65V631.651C366.366 634.607 365.261 639.99 362.347 645.092C359.366 650.311 354.244 655.625 346.038 657.345C343.032 657.975 338.456 657.947 334.016 656.183C329.385 654.343 324.906 650.595 322.733 644.017L331.618 641.083C332.82 644.722 335.093 646.543 337.471 647.488C340.038 648.508 342.727 648.48 344.119 648.188C348.994 647.166 352.159 644.064 354.223 640.452C355.044 639.014 355.65 637.555 356.09 636.224C351.82 636.304 345.61 635.733 339.868 633.689C333.904 631.566 327.377 627.433 325.327 619.699L325.289 619.553L325.26 619.405C324.708 616.607 324.811 612.222 327.544 608.556ZM341.417 612.615C336.82 612.234 335.461 613.591 335.045 614.149C334.418 614.99 334.228 616.325 334.415 617.454C335.355 620.738 338.332 623.21 343.006 624.873C347.67 626.533 353.001 626.981 356.414 626.858L356.499 626.855H356.714C355.899 622.788 353.857 619.826 351.446 617.647C348.139 614.658 344.069 613.11 341.417 612.615Z" fill="url(#paint16_linear_701_632)"/>
<path d="M327.544 608.556C330.509 604.58 335.606 602.683 342.476 603.315L342.662 603.331L342.847 603.364C346.94 604.074 352.825 606.282 357.72 610.705C362.76 615.26 366.678 622.127 366.44 631.65V631.651C366.366 634.607 365.261 639.99 362.347 645.092C359.366 650.311 354.244 655.625 346.038 657.345C343.032 657.975 338.456 657.947 334.016 656.183C329.385 654.343 324.906 650.595 322.733 644.017L331.618 641.083C332.82 644.722 335.093 646.543 337.471 647.488C340.038 648.508 342.727 648.48 344.119 648.188C348.994 647.166 352.159 644.064 354.223 640.452C355.044 639.014 355.65 637.555 356.09 636.224C351.82 636.304 345.61 635.733 339.868 633.689C333.904 631.566 327.377 627.433 325.327 619.699L325.289 619.553L325.26 619.405C324.708 616.607 324.811 612.222 327.544 608.556ZM341.417 612.615C336.82 612.234 335.461 613.591 335.045 614.149C334.418 614.99 334.228 616.325 334.415 617.454C335.355 620.738 338.332 623.21 343.006 624.873C347.67 626.533 353.001 626.981 356.414 626.858L356.499 626.855H356.714C355.899 622.788 353.857 619.826 351.446 617.647C348.139 614.658 344.069 613.11 341.417 612.615Z" fill="url(#paint17_linear_701_632)"/>
<path d="M327.544 608.556C330.509 604.58 335.606 602.683 342.476 603.315L342.662 603.331L342.847 603.364C346.94 604.074 352.825 606.282 357.72 610.705C362.76 615.26 366.678 622.127 366.44 631.65V631.651C366.366 634.607 365.261 639.99 362.347 645.092C359.366 650.311 354.244 655.625 346.038 657.345C343.032 657.975 338.456 657.947 334.016 656.183C329.385 654.343 324.906 650.595 322.733 644.017L331.618 641.083C332.82 644.722 335.093 646.543 337.471 647.488C340.038 648.508 342.727 648.48 344.119 648.188C348.994 647.166 352.159 644.064 354.223 640.452C355.044 639.014 355.65 637.555 356.09 636.224C351.82 636.304 345.61 635.733 339.868 633.689C333.904 631.566 327.377 627.433 325.327 619.699L325.289 619.553L325.26 619.405C324.708 616.607 324.811 612.222 327.544 608.556ZM341.417 612.615C336.82 612.234 335.461 613.591 335.045 614.149C334.418 614.99 334.228 616.325 334.415 617.454C335.355 620.738 338.332 623.21 343.006 624.873C347.67 626.533 353.001 626.981 356.414 626.858L356.499 626.855H356.714C355.899 622.788 353.857 619.826 351.446 617.647C348.139 614.658 344.069 613.11 341.417 612.615Z" fill="url(#paint18_linear_701_632)"/>
<path d="M327.544 608.556C330.509 604.58 335.606 602.683 342.476 603.315L342.662 603.331L342.847 603.364C346.94 604.074 352.825 606.282 357.72 610.705C362.76 615.26 366.678 622.127 366.44 631.65V631.651C366.366 634.607 365.261 639.99 362.347 645.092C359.366 650.311 354.244 655.625 346.038 657.345C343.032 657.975 338.456 657.947 334.016 656.183C329.385 654.343 324.906 650.595 322.733 644.017L331.618 641.083C332.82 644.722 335.093 646.543 337.471 647.488C340.038 648.508 342.727 648.48 344.119 648.188C348.994 647.166 352.159 644.064 354.223 640.452C355.044 639.014 355.65 637.555 356.09 636.224C351.82 636.304 345.61 635.733 339.868 633.689C333.904 631.566 327.377 627.433 325.327 619.699L325.289 619.553L325.26 619.405C324.708 616.607 324.811 612.222 327.544 608.556ZM341.417 612.615C336.82 612.234 335.461 613.591 335.045 614.149C334.418 614.99 334.228 616.325 334.415 617.454C335.355 620.738 338.332 623.21 343.006 624.873C347.67 626.533 353.001 626.981 356.414 626.858L356.499 626.855H356.714C355.899 622.788 353.857 619.826 351.446 617.647C348.139 614.658 344.069 613.11 341.417 612.615Z" fill="url(#paint19_linear_701_632)"/>
<g filter="url(#filter6_f_701_632)">
<path d="M179.74 380.341L180.739 396.181L193.414 405.734L177.574 406.733L168.021 419.409L167.022 403.568L154.347 394.015L170.187 393.016L179.74 380.341Z" fill="#FFE3ED" fill-opacity="0.5"/>
</g>
<g filter="url(#filter7_f_701_632)">
<path d="M153.784 366.542L154.31 374.884L160.985 379.915L152.643 380.442L147.612 387.117L147.086 378.775L140.41 373.744L148.753 373.217L153.784 366.542Z" fill="#FFE3ED" fill-opacity="0.5"/>
</g>
<g filter="url(#filter8_f_701_632)">
<path d="M591.464 366.542L590.938 374.884L584.263 379.915L592.605 380.442L597.636 387.117L598.162 378.775L604.838 373.744L596.495 373.217L591.464 366.542Z" fill="#FFE3ED" fill-opacity="0.5"/>
</g>
<g filter="url(#filter9_f_701_632)">
<path d="M570.499 380.341L569.5 396.181L556.825 405.734L572.665 406.733L582.218 419.409L583.217 403.568L595.893 394.015L580.052 393.016L570.499 380.341Z" fill="#FFE3ED" fill-opacity="0.5"/>
</g>
<path d="M369.192 440.23L397.205 484.976H341.179L369.192 440.23Z" fill="#FE71A5"/>
<defs>
<filter id="filter2_f_701_632" x="521.418" y="204.895" width="123.718" height="129.923" filterUnits="userSpaceOnUse" color-interpolation-filters="sRGB">
<feFlood flood-opacity="0" result="BackgroundImageFix"/>
<feBlend mode="normal" in="SourceGraphic" in2="BackgroundImageFix" result="shape"/>
<feGaussianBlur stdDeviation="4" result="effect1_foregroundBlur_701_632"/>
</filter>
<filter id="filter3_f_701_632" x="439.989" y="305.512" width="61.9014" height="68.5444" filterUnits="userSpaceOnUse" color-interpolation-filters="sRGB">
<feFlood flood-opacity="0" result="BackgroundImageFix"/>
<feBlend mode="normal" in="SourceGraphic" in2="BackgroundImageFix" result="shape"/>
<feGaussianBlur stdDeviation="4" result="effect1_foregroundBlur_701_632"/>
</filter>
<filter id="filter4_f_701_632" x="106.44" y="204.895" width="123.718" height="129.923" filterUnits="userSpaceOnUse" color-interpolation-filters="sRGB">
<feFlood flood-opacity="0" result="BackgroundImageFix"/>
<feBlend mode="normal" in="SourceGraphic" in2="BackgroundImageFix" result="shape"/>
<feGaussianBlur stdDeviation="4" result="effect1_foregroundBlur_701_632"/>
</filter>
<filter id="filter5_f_701_632" x="253.979" y="301.336" width="61.9014" height="68.5444" filterUnits="userSpaceOnUse" color-interpolation-filters="sRGB">
<feFlood flood-opacity="0" result="BackgroundImageFix"/>
<feBlend mode="normal" in="SourceGraphic" in2="BackgroundImageFix" result="shape"/>
<feGaussianBlur stdDeviation="4" result="effect1_foregroundBlur_701_632"/>
</filter>
<filter id="filter6_f_701_632" x="150.347" y="376.341" width="47.0674" height="47.0679" filterUnits="userSpaceOnUse" color-interpolation-filters="sRGB">
<feFlood flood-opacity="0" result="BackgroundImageFix"/>
<feBlend mode="normal" in="SourceGraphic" in2="BackgroundImageFix" result="shape"/>
<feGaussianBlur stdDeviation="2" result="effect1_foregroundBlur_701_632"/>
</filter>
<filter id="filter7_f_701_632" x="136.41" y="362.542" width="28.5752" height="28.575" filterUnits="userSpaceOnUse" color-interpolation-filters="sRGB">
<feFlood flood-opacity="0" result="BackgroundImageFix"/>
<feBlend mode="normal" in="SourceGraphic" in2="BackgroundImageFix" result="shape"/>
<feGaussianBlur stdDeviation="2" result="effect1_foregroundBlur_701_632"/>
</filter>
<filter id="filter8_f_701_632" x="580.263" y="362.542" width="28.5752" height="28.575" filterUnits="userSpaceOnUse" color-interpolation-filters="sRGB">
<feFlood flood-opacity="0" result="BackgroundImageFix"/>
<feBlend mode="normal" in="SourceGraphic" in2="BackgroundImageFix" result="shape"/>
<feGaussianBlur stdDeviation="2" result="effect1_foregroundBlur_701_632"/>
</filter>
<filter id="filter9_f_701_632" x="552.825" y="376.341" width="47.0674" height="47.0679" filterUnits="userSpaceOnUse" color-interpolation-filters="sRGB">
<feFlood flood-opacity="0" result="BackgroundImageFix"/>
<feBlend mode="normal" in="SourceGraphic" in2="BackgroundImageFix" result="shape"/>
<feGaussianBlur stdDeviation="2" result="effect1_foregroundBlur_701_632"/>
</filter>
<linearGradient id="paint0_linear_701_632" x1="367.999" y1="581.272" x2="367.999" y2="824.625" gradientUnits="userSpaceOnUse">
<stop/>
<stop offset="1" stop-color="#FBFCEE"/>
</linearGradient>
<radialGradient id="paint1_radial_701_632" cx="0" cy="0" r="1" gradientUnits="userSpaceOnUse" gradientTransform="translate(368 90.291) rotate(90) scale(555.795 542.189)">
<stop/>
<stop offset="0.817936"/>
<stop offset="1" stop-color="#FBFCEE"/>
</radialGradient>
<linearGradient id="paint2_linear_701_632" x1="368" y1="90.291" x2="368" y2="596.596" gradientUnits="userSpaceOnUse">
<stop/>
<stop offset="1" stop-color="#FBFCEE"/>
</linearGradient>
<radialGradient id="paint3_radial_701_632" cx="0" cy="0" r="1" gradientUnits="userSpaceOnUse" gradientTransform="translate(368 90.2911) rotate(90) scale(555.796 542.189)">
<stop/>
<stop offset="0.817936"/>
<stop offset="1" stop-color="#FBFCEE"/>
</radialGradient>
<linearGradient id="paint4_linear_701_632" x1="367.999" y1="0" x2="368" y2="914.721" gradientUnits="userSpaceOnUse">
<stop/>
<stop offset="1" stop-color="#FBFCEE"/>
</linearGradient>
<linearGradient id="paint5_linear_701_632" x1="723.597" y1="281.832" x2="466.468" y2="42.924" gradientUnits="userSpaceOnUse">
<stop stop-color="#FBFCEE"/>
<stop offset="0.5" stop-color="#E56695"/>
<stop offset="1" stop-color="#CB5A84"/>
</linearGradient>
<linearGradient id="paint6_linear_701_632" x1="17.0044" y1="277.127" x2="274.133" y2="38.2188" gradientUnits="userSpaceOnUse">
<stop stop-color="#FBFCEE"/>
<stop offset="0.5" stop-color="#E56695"/>
<stop offset="1" stop-color="#CB5A84"/>
</linearGradient>
<linearGradient id="paint7_linear_701_632" x1="535.824" y1="151.403" x2="535.824" y2="497.992" gradientUnits="userSpaceOnUse">
<stop stop-color="#FFF5FD"/>
<stop offset="1" stop-color="#EAE9EA"/>
</linearGradient>
<linearGradient id="paint8_linear_701_632" x1="535.824" y1="151.403" x2="535.824" y2="497.992" gradientUnits="userSpaceOnUse">
<stop stop-color="white"/>
<stop offset="1" stop-color="#EAE9EA"/>
</linearGradient>
<linearGradient id="paint9_linear_701_632" x1="455.243" y1="171.278" x2="616.406" y2="478.117" gradientUnits="userSpaceOnUse">
<stop/>
<stop offset="1" stop-color="#FBFCEE"/>
</linearGradient>
<linearGradient id="paint10_linear_701_632" x1="527.102" y1="230.535" x2="533.057" y2="467.813" gradientUnits="userSpaceOnUse">
<stop stop-color="#1E1D1E"/>
<stop offset="1" stop-color="#662D42"/>
</linearGradient>
<linearGradient id="paint11_linear_701_632" x1="146.578" y1="0" x2="146.578" y2="346.589" gradientUnits="userSpaceOnUse">
<stop stop-color="#FFF5FD"/>
<stop offset="1" stop-color="#EAE9EA"/>
</linearGradient>
<linearGradient id="paint12_linear_701_632" x1="146.578" y1="0" x2="146.578" y2="346.589" gradientUnits="userSpaceOnUse">
<stop stop-color="white"/>
<stop offset="1" stop-color="#EAE9EA"/>
</linearGradient>
<linearGradient id="paint13_linear_701_632" x1="290.93" y1="171.278" x2="129.767" y2="478.117" gradientUnits="userSpaceOnUse">
<stop/>
<stop offset="1" stop-color="#FBFCEE"/>
</linearGradient>
<linearGradient id="paint14_linear_701_632" x1="122.534" y1="66.5394" x2="128.489" y2="303.817" gradientUnits="userSpaceOnUse">
<stop stop-color="#1E1D1E"/>
<stop offset="1" stop-color="#662D42"/>
</linearGradient>
<linearGradient id="paint15_linear_701_632" x1="390.579" y1="603.193" x2="390.579" y2="689.943" gradientUnits="userSpaceOnUse">
<stop stop-color="#FE71A5"/>
<stop offset="1" stop-color="#FBFCEE"/>
</linearGradient>
<linearGradient id="paint16_linear_701_632" x1="344.592" y1="603.196" x2="344.592" y2="657.72" gradientUnits="userSpaceOnUse">
<stop stop-color="#FE8DB7"/>
<stop offset="1" stop-color="#FE8DB7"/>
</linearGradient>
<linearGradient id="paint17_linear_701_632" x1="344.592" y1="603.196" x2="344.592" y2="657.72" gradientUnits="userSpaceOnUse">
<stop stop-color="#FE71A5"/>
<stop offset="1" stop-color="#FBFCEE"/>
</linearGradient>
<linearGradient id="paint18_linear_701_632" x1="344.592" y1="603.196" x2="344.592" y2="685.448" gradientUnits="userSpaceOnUse">
<stop stop-color="#FE71A5"/>
<stop offset="1" stop-color="#FBFCEE"/>
</linearGradient>
<linearGradient id="paint19_linear_701_632" x1="344.592" y1="603.196" x2="344.592" y2="701.961" gradientUnits="userSpaceOnUse">
<stop stop-color="#FE71A5"/>
<stop offset="1" stop-color="#FBFCEE"/>
</linearGradient>
</defs>
</svg>
