<svg width="747" height="744" viewBox="0 0 747 744" fill="none" xmlns="http://www.w3.org/2000/svg">
<path d="M369.192 451.584C476.301 451.584 563.13 490.88 563.13 539.354C563.13 540.838 563.047 542.313 562.887 543.779C564.72 551.653 563.426 560.362 557.991 567.936L484.531 670.314C467.536 693.999 430.157 681.976 430.157 652.824V622.697C410.986 625.567 390.49 627.124 369.192 627.124C347.008 627.124 325.694 625.435 305.842 622.332V652.824C305.842 681.976 268.463 693.999 251.468 670.314L178.008 567.936C171.087 558.292 170.879 546.808 175.296 537.549C177.419 489.909 263.416 451.585 369.192 451.584Z" fill="url(#paint0_linear_753_1391)"/>
<path d="M368 90.2905C561.29 90.2906 717.982 203.631 717.982 343.443C717.982 414.867 694.707 481.072 628.933 527.097C565.954 571.166 462.546 596.595 368 596.595C271.183 596.595 168.088 573.052 104.728 527.097C41.5916 481.305 18.0176 413.225 18.0176 343.443C18.0176 203.631 174.71 90.2905 368 90.2905Z" fill="black"/>
<path d="M717.982 343.443C717.982 414.867 694.707 481.071 628.932 527.097C565.954 571.166 462.546 596.595 368 596.595C271.183 596.595 168.089 573.052 104.728 527.097C41.5917 481.305 18.0176 413.225 18.0176 343.443C18.0176 203.631 174.71 90.2905 368 90.2905C561.289 90.2905 717.982 203.631 717.982 343.443Z" fill="black"/>
<path d="M368 91.7905C464.364 91.7906 551.544 120.046 614.596 165.653C677.649 211.261 716.481 274.139 716.481 343.443C716.481 414.515 693.345 480.193 628.072 525.868C565.425 569.704 462.352 595.095 368 595.095C271.349 595.095 168.614 571.579 105.608 525.882C42.962 480.445 19.5176 412.884 19.5176 343.443C19.5176 274.139 58.3508 211.261 121.404 165.653C184.456 120.046 271.636 91.7905 368 91.7905Z" fill="url(#paint1_radial_753_1391)" stroke="url(#paint2_linear_753_1391)" stroke-width="3"/>
<mask id="path-5-inside-1_753_1391" fill="white">
<path d="M600.229 3.57968C610.293 -3.41972 624.164 0.19858 629.243 11.356C641.073 37.3427 660.85 83.1629 673.283 124.688C687.433 171.945 698.057 225.165 703.782 256.771C704.456 260.489 703.415 263.797 701.406 266.239C712.17 290.579 717.981 316.52 717.981 343.444C717.981 414.868 694.707 481.072 628.933 527.097C565.954 571.166 462.546 596.596 368 596.596C271.183 596.596 168.088 573.052 104.728 527.097C41.5917 481.305 18.0177 413.226 18.0176 343.444C18.0176 316.51 23.8336 290.558 34.6055 266.21C32.6131 263.77 31.5832 260.474 32.2539 256.771C37.9792 225.165 48.6039 171.945 62.7539 124.688C75.1876 83.1628 94.9645 37.3427 106.794 11.356C111.873 0.198523 125.744 -3.41986 135.809 3.57968L273.82 99.5621C303.785 93.5206 335.371 90.2916 368 90.2916C400.639 90.2916 432.234 93.5228 462.207 99.568L600.229 3.57968Z"/>
</mask>
<path d="M600.229 3.57968C610.293 -3.41972 624.164 0.19858 629.243 11.356C641.073 37.3427 660.85 83.1629 673.283 124.688C687.433 171.945 698.057 225.165 703.782 256.771C704.456 260.489 703.415 263.797 701.406 266.239C712.17 290.579 717.981 316.52 717.981 343.444C717.981 414.868 694.707 481.072 628.933 527.097C565.954 571.166 462.546 596.596 368 596.596C271.183 596.596 168.088 573.052 104.728 527.097C41.5917 481.305 18.0177 413.226 18.0176 343.444C18.0176 316.51 23.8336 290.558 34.6055 266.21C32.6131 263.77 31.5832 260.474 32.2539 256.771C37.9792 225.165 48.6039 171.945 62.7539 124.688C75.1876 83.1628 94.9645 37.3427 106.794 11.356C111.873 0.198523 125.744 -3.41986 135.809 3.57968L273.82 99.5621C303.785 93.5206 335.371 90.2916 368 90.2916C400.639 90.2916 432.234 93.5228 462.207 99.568L600.229 3.57968Z" fill="url(#paint3_radial_753_1391)"/>
<path d="M600.229 3.57968L598.516 1.11674V1.11674L600.229 3.57968ZM629.243 11.356L631.974 10.1131V10.1131L629.243 11.356ZM673.283 124.688L676.157 123.828V123.828L673.283 124.688ZM703.782 256.771L706.734 256.236V256.236L703.782 256.771ZM701.406 266.239L699.089 264.333L697.915 265.761L698.663 267.452L701.406 266.239ZM717.981 343.444H720.981V343.444H717.981ZM628.933 527.097L630.653 529.555V529.555L628.933 527.097ZM368 596.596V599.596V599.596V596.596ZM104.728 527.097L102.966 529.526V529.526L104.728 527.097ZM18.0176 343.444H15.0176V343.444H18.0176ZM34.6055 266.21L37.349 267.423L38.0943 265.738L36.9289 264.312L34.6055 266.21ZM32.2539 256.771L29.3019 256.236V256.236L32.2539 256.771ZM62.7539 124.688L59.88 123.828V123.828L62.7539 124.688ZM106.794 11.356L104.064 10.1131V10.1131L106.794 11.356ZM135.809 3.57968L134.096 6.0426L134.096 6.04261L135.809 3.57968ZM273.82 99.5621L272.107 102.025L273.158 102.756L274.413 102.503L273.82 99.5621ZM368 90.2916V87.2916V87.2916V90.2916ZM462.207 99.568L461.614 102.509L462.869 102.762L463.92 102.031L462.207 99.568ZM600.229 3.57968L601.941 6.04262C610.511 0.082723 622.231 3.19259 626.513 12.599L629.243 11.356L631.974 10.1131C626.097 -2.79543 610.075 -6.92217 598.516 1.11674L600.229 3.57968ZM629.243 11.356L626.513 12.599C638.329 38.5562 658.036 84.2256 670.409 125.549L673.283 124.688L676.157 123.828C663.663 82.1002 643.816 36.1292 631.974 10.1131L629.243 11.356ZM673.283 124.688L670.409 125.549C684.511 172.644 695.111 225.734 700.83 257.306L703.782 256.771L706.734 256.236C701.003 224.596 690.355 171.246 676.157 123.828L673.283 124.688ZM703.782 256.771L700.83 257.306C701.341 260.127 700.557 262.549 699.089 264.333L701.406 266.239L703.723 268.144C706.272 265.045 707.57 260.851 706.734 256.236L703.782 256.771ZM701.406 266.239L698.663 267.452C709.266 291.431 714.981 316.961 714.981 343.444H717.981H720.981C720.981 316.08 715.073 289.727 704.15 265.026L701.406 266.239ZM717.981 343.444H714.981C714.981 414.163 691.984 479.316 627.213 524.639L628.933 527.097L630.653 529.555C697.43 482.828 720.981 415.573 720.981 343.444H717.981ZM628.933 527.097L627.213 524.639C564.898 568.244 462.159 593.596 368 593.596V596.596V599.596C462.933 599.596 567.011 574.088 630.653 529.555L628.933 527.097ZM368 596.596V593.596C271.515 593.596 169.138 570.108 106.489 524.669L104.728 527.097L102.966 529.526C167.038 575.997 270.851 599.596 368 599.596V596.596ZM104.728 527.097L106.489 524.669C44.3322 479.587 21.0177 412.543 21.0176 343.444H18.0176H15.0176C15.0177 413.908 38.8512 483.024 102.966 529.526L104.728 527.097ZM18.0176 343.444H21.0176C21.0176 316.95 26.737 291.41 37.349 267.423L34.6055 266.21L31.862 264.996C20.9303 289.705 15.0176 316.069 15.0176 343.444H18.0176ZM34.6055 266.21L36.9289 264.312C35.4731 262.53 34.6968 260.116 35.2059 257.306L32.2539 256.771L29.3019 256.236C28.4696 260.832 29.7531 265.011 32.2821 268.107L34.6055 266.21ZM32.2539 256.771L35.2059 257.306C40.925 225.734 51.5262 172.644 65.6278 125.549L62.7539 124.688L59.88 123.828C45.6816 171.246 35.0335 224.595 29.3019 256.236L32.2539 256.771ZM62.7539 124.688L65.6278 125.549C78.001 84.2255 97.7083 38.5562 109.524 12.599L106.794 11.356L104.064 10.1131C92.2207 36.1292 72.3742 82.1001 59.88 123.828L62.7539 124.688ZM106.794 11.356L109.524 12.599C113.806 3.19251 125.526 0.0826079 134.096 6.0426L135.809 3.57968L137.521 1.11676C125.962 -6.92234 109.94 -2.79546 104.064 10.1131L106.794 11.356ZM135.809 3.57968L134.096 6.04261L272.107 102.025L273.82 99.5621L275.533 97.0992L137.521 1.11675L135.809 3.57968ZM273.82 99.5621L274.413 102.503C304.182 96.5011 335.569 93.2916 368 93.2916V90.2916V87.2916C335.174 87.2916 303.389 90.5401 273.227 96.6213L273.82 99.5621ZM368 90.2916V93.2916C400.441 93.2916 431.837 96.5033 461.614 102.509L462.207 99.568L462.8 96.6272C432.63 90.5423 400.836 87.2916 368 87.2916V90.2916ZM462.207 99.568L463.92 102.031L601.941 6.04262L600.229 3.57968L598.516 1.11674L460.494 97.105L462.207 99.568Z" fill="url(#paint4_linear_753_1391)" mask="url(#path-5-inside-1_753_1391)"/>
<path d="M594.104 42.3297C603.951 33.5006 619.402 36.5119 624.838 48.568C635.314 71.8026 650.833 108.564 660.797 142.83C671.078 178.187 679.126 217.84 684.339 246.717C648.747 190.468 585.505 145.286 507.191 120.268L594.104 42.3297Z" fill="url(#paint5_linear_753_1391)"/>
<path d="M146.498 37.6275C136.652 28.7981 121.201 31.8095 115.765 43.8658C105.288 67.1005 89.77 103.861 79.8057 138.128C69.5241 173.485 61.4768 213.138 56.2637 242.015C91.8551 185.766 155.097 140.584 233.411 115.566L146.498 37.6275Z" fill="url(#paint6_linear_753_1391)"/>
<ellipse cx="535.824" cy="324.697" rx="146.578" ry="173.294" transform="rotate(-27.7101 535.824 324.697)" fill="url(#paint7_linear_753_1391)"/>
<ellipse cx="535.824" cy="324.697" rx="146.578" ry="173.294" transform="rotate(-27.7101 535.824 324.697)" fill="url(#paint8_linear_753_1391)" fill-opacity="0.2"/>
<path d="M666.92 255.841C666.034 256.306 665.149 256.771 664.264 257.236C671.904 272.068 677.74 287.766 681.511 303.956C697.447 367.691 675.564 445.023 615.243 475.903C615.243 475.903 615.243 475.903 615.243 475.903C539.193 516.361 444.14 465.635 407.164 392.274C366.631 321.012 376.984 212.045 455.243 171.278C455.243 171.278 455.243 171.278 455.243 171.278C516.259 138.432 593.514 165.692 636.256 215.919C647.298 228.448 656.684 242.372 664.264 257.236C665.149 256.771 666.034 256.306 666.92 255.841C658.873 240.95 649.074 227.073 637.684 214.636C593.493 164.801 516.189 138.494 455.243 171.278C455.243 171.278 455.243 171.278 455.243 171.278C377.158 211.872 365.091 320.544 404.95 393.437C441.035 468.083 537.898 522.418 617.568 480.33C617.568 480.33 617.568 480.33 617.568 480.33C680.502 448.043 702.237 367.718 685.128 303.088C681.075 286.639 674.908 270.762 666.92 255.841ZM664.264 257.236L666.92 255.841L664.264 257.236Z" fill="url(#paint9_linear_753_1391)"/>
<ellipse cx="533.058" cy="315.904" rx="128.489" ry="151.908" transform="rotate(-27.7101 533.058 315.904)" fill="url(#paint10_linear_753_1391)"/>
<ellipse cx="146.578" cy="173.294" rx="146.578" ry="173.294" transform="matrix(-0.885312 -0.464997 -0.464997 0.885312 420.697 239.436)" fill="url(#paint11_linear_753_1391)"/>
<ellipse cx="146.578" cy="173.294" rx="146.578" ry="173.294" transform="matrix(-0.885312 -0.464997 -0.464997 0.885312 420.697 239.436)" fill="url(#paint12_linear_753_1391)" fill-opacity="0.2"/>
<path d="M79.2532 255.841C80.1385 256.306 81.0238 256.771 81.9092 257.236C74.2685 272.068 68.4333 287.766 64.6619 303.956C48.7262 367.691 70.6089 445.023 130.93 475.903C130.93 475.903 130.93 475.903 130.93 475.903C206.98 516.361 302.033 465.635 339.009 392.274C379.542 321.012 369.189 212.045 290.93 171.278C290.93 171.278 290.93 171.278 290.93 171.278C229.914 138.432 152.659 165.692 109.917 215.919C98.8747 228.448 89.4892 242.372 81.9092 257.236C81.0238 256.771 80.1385 256.306 79.2532 255.841C87.2995 240.95 97.0989 227.073 108.488 214.636C152.68 164.801 229.984 138.494 290.93 171.278C290.93 171.278 290.93 171.278 290.93 171.278C369.015 211.872 381.082 320.544 341.222 393.437C305.138 468.083 208.275 522.418 128.605 480.33C128.605 480.33 128.605 480.33 128.605 480.33C65.6706 448.043 43.9361 367.718 61.0444 303.088C65.0975 286.639 71.2645 270.762 79.2532 255.841ZM81.9092 257.236L79.2532 255.841L81.9092 257.236Z" fill="url(#paint13_linear_753_1391)"/>
<ellipse cx="128.489" cy="151.908" rx="128.489" ry="151.908" transform="matrix(-0.885312 -0.464997 -0.464997 0.885312 401.54 240.724)" fill="url(#paint14_linear_753_1391)"/>
<g filter="url(#filter2_f_753_1391)">
<ellipse cx="583.278" cy="269.856" rx="46.9133" ry="62.7975" transform="rotate(-39.3254 583.278 269.856)" fill="#FE71A5"/>
</g>
<g filter="url(#filter3_f_753_1391)">
<ellipse cx="470.94" cy="339.784" rx="20.875" ry="27.943" transform="rotate(-30.8867 470.94 339.784)" fill="#FE71A5"/>
</g>
<g filter="url(#filter4_f_753_1391)">
<ellipse cx="46.9133" cy="62.7975" rx="46.9133" ry="62.7975" transform="matrix(-0.77356 -0.633724 -0.633724 0.77356 244.386 251.008)" fill="#FE71A5"/>
</g>
<g filter="url(#filter5_f_753_1391)">
<ellipse cx="20.875" cy="27.943" rx="20.875" ry="27.943" transform="matrix(-0.858184 -0.513342 -0.513342 0.858184 317.189 322.343)" fill="#FE71A5"/>
</g>
<ellipse cx="470.94" cy="340.465" rx="20.8726" ry="27.1511" transform="rotate(-30.8867 470.94 340.465)" fill="white"/>
<ellipse cx="46.1177" cy="61.7325" rx="46.1177" ry="61.7325" transform="matrix(-0.77356 -0.633724 -0.633724 0.77356 243.771 250.504)" fill="white"/>
<ellipse cx="583.278" cy="269.032" rx="46.1177" ry="61.7325" transform="rotate(-39.3254 583.278 269.032)" fill="white"/>
<ellipse cx="20.875" cy="27.1543" rx="20.875" ry="27.1543" transform="matrix(-0.858184 -0.513342 -0.513342 0.858184 317.189 323.02)" fill="white"/>
<g filter="url(#filter6_f_753_1391)">
<path d="M179.74 380.34L180.739 396.181L193.414 405.734L177.574 406.733L168.021 419.408L167.022 403.568L154.347 394.015L170.187 393.016L179.74 380.34Z" fill="#FFE3ED" fill-opacity="0.5"/>
</g>
<g filter="url(#filter7_f_753_1391)">
<path d="M153.784 366.541L154.31 374.884L160.985 379.915L152.643 380.441L147.612 387.117L147.086 378.774L140.41 373.743L148.753 373.217L153.784 366.541Z" fill="#FFE3ED" fill-opacity="0.5"/>
</g>
<g filter="url(#filter8_f_753_1391)">
<path d="M591.449 366.541L590.923 374.884L584.247 379.915L592.59 380.441L597.621 387.117L598.147 378.774L604.822 373.743L596.48 373.217L591.449 366.541Z" fill="#FFE3ED" fill-opacity="0.5"/>
</g>
<g filter="url(#filter9_f_753_1391)">
<path d="M570.484 380.34L569.485 396.181L556.809 405.734L572.65 406.733L582.203 419.408L583.202 403.568L595.877 394.015L580.036 393.016L570.484 380.34Z" fill="#FFE3ED" fill-opacity="0.5"/>
</g>
<rect x="305.758" y="630.457" width="124.485" height="112.964" rx="8" fill="url(#paint15_linear_753_1391)"/>
<circle cx="546.239" cy="522.77" r="21.7427" fill="#EBEAEB"/>
<path d="M544.501 482.136C545.268 480.79 547.208 480.79 547.976 482.136L566.305 514.275C567.065 515.609 566.103 517.266 564.568 517.266H527.909C526.374 517.266 525.411 515.609 526.172 514.275L544.501 482.136Z" fill="#EBEAEB"/>
<rect x="305.758" y="682.547" width="124.485" height="8.7832" fill="#331721"/>
<rect x="372.188" y="630.457" width="112.964" height="8.37681" transform="rotate(90 372.188 630.457)" fill="url(#paint16_linear_753_1391)"/>
<path d="M393.378 659.795C400.248 659.163 405.345 661.06 408.31 665.036C411.043 668.702 411.145 673.087 410.594 675.884L410.565 676.033L410.526 676.178C408.476 683.912 401.949 688.046 395.985 690.169C390.42 692.15 384.415 692.747 380.162 692.71C380.369 693.085 380.601 693.46 380.864 693.824C382.271 695.77 384.621 697.612 388.797 698.065L388.857 698.072L388.917 698.08C391.178 698.384 394.777 698.232 397.892 696.879C400.785 695.622 403.233 693.384 404.09 689.1L408.678 690.017L413.266 690.935C411.716 698.681 406.868 703.182 401.619 705.462C396.648 707.621 391.321 707.822 387.788 707.367C380.87 706.616 376.174 703.308 373.28 699.303C371.721 697.145 370.718 694.834 370.124 692.691H367.892C368.266 690.949 368.451 689.4 368.481 688.184V688.182C368.524 686.49 368.44 684.875 368.25 683.335H369.661C370.596 676.256 373.983 670.936 378.134 667.185C383.029 662.762 388.913 660.554 393.007 659.843L393.191 659.811L393.378 659.795ZM400.809 670.629C400.392 670.071 399.032 668.714 394.437 669.094C391.785 669.589 387.714 671.138 384.407 674.127C381.996 676.306 379.955 679.268 379.14 683.335H379.354L379.439 683.338C382.852 683.461 388.184 683.013 392.848 681.353C397.522 679.689 400.498 677.217 401.438 673.933C401.625 672.805 401.435 671.469 400.809 670.629Z" fill="url(#paint17_linear_753_1391)"/>
<path d="M327.545 665.038C330.51 661.061 335.607 659.165 342.477 659.797L342.663 659.813L342.848 659.845C346.941 660.556 352.826 662.764 357.721 667.187C362.761 671.742 366.679 678.608 366.441 688.131V688.132C366.367 691.088 365.262 696.471 362.348 701.574C359.367 706.793 354.245 712.107 346.039 713.827C343.033 714.457 338.457 714.429 334.017 712.665C329.386 710.825 324.907 707.077 322.734 700.499L331.619 697.565C332.821 701.203 335.094 703.025 337.472 703.969C340.039 704.989 342.728 704.961 344.12 704.67C348.995 703.648 352.16 700.545 354.224 696.933C355.045 695.496 355.651 694.037 356.091 692.706C351.821 692.786 345.611 692.214 339.869 690.171C333.905 688.048 327.378 683.914 325.328 676.18L325.29 676.035L325.261 675.886C324.709 673.089 324.812 668.704 327.545 665.038ZM341.418 669.096C336.821 668.716 335.462 670.073 335.046 670.631C334.419 671.471 334.229 672.807 334.416 673.935C335.356 677.219 338.333 679.691 343.007 681.355C347.671 683.015 353.002 683.463 356.415 683.339L356.5 683.337H356.715C355.9 679.269 353.858 676.308 351.447 674.129C348.14 671.14 344.07 669.591 341.418 669.096Z" fill="url(#paint18_linear_753_1391)"/>
<path d="M327.545 665.038C330.51 661.061 335.607 659.165 342.477 659.797L342.663 659.813L342.848 659.845C346.941 660.556 352.826 662.764 357.721 667.187C362.761 671.742 366.679 678.608 366.441 688.131V688.132C366.367 691.088 365.262 696.471 362.348 701.574C359.367 706.793 354.245 712.107 346.039 713.827C343.033 714.457 338.457 714.429 334.017 712.665C329.386 710.825 324.907 707.077 322.734 700.499L331.619 697.565C332.821 701.203 335.094 703.025 337.472 703.969C340.039 704.989 342.728 704.961 344.12 704.67C348.995 703.648 352.16 700.545 354.224 696.933C355.045 695.496 355.651 694.037 356.091 692.706C351.821 692.786 345.611 692.214 339.869 690.171C333.905 688.048 327.378 683.914 325.328 676.18L325.29 676.035L325.261 675.886C324.709 673.089 324.812 668.704 327.545 665.038ZM341.418 669.096C336.821 668.716 335.462 670.073 335.046 670.631C334.419 671.471 334.229 672.807 334.416 673.935C335.356 677.219 338.333 679.691 343.007 681.355C347.671 683.015 353.002 683.463 356.415 683.339L356.5 683.337H356.715C355.9 679.269 353.858 676.308 351.447 674.129C348.14 671.14 344.07 669.591 341.418 669.096Z" fill="url(#paint19_linear_753_1391)"/>
<defs>
<filter id="filter2_f_753_1391" x="521.419" y="204.895" width="123.718" height="129.923" filterUnits="userSpaceOnUse" color-interpolation-filters="sRGB">
<feFlood flood-opacity="0" result="BackgroundImageFix"/>
<feBlend mode="normal" in="SourceGraphic" in2="BackgroundImageFix" result="shape"/>
<feGaussianBlur stdDeviation="4" result="effect1_foregroundBlur_753_1391"/>
</filter>
<filter id="filter3_f_753_1391" x="439.989" y="305.512" width="61.9014" height="68.5447" filterUnits="userSpaceOnUse" color-interpolation-filters="sRGB">
<feFlood flood-opacity="0" result="BackgroundImageFix"/>
<feBlend mode="normal" in="SourceGraphic" in2="BackgroundImageFix" result="shape"/>
<feGaussianBlur stdDeviation="4" result="effect1_foregroundBlur_753_1391"/>
</filter>
<filter id="filter4_f_753_1391" x="106.44" y="204.895" width="123.718" height="129.923" filterUnits="userSpaceOnUse" color-interpolation-filters="sRGB">
<feFlood flood-opacity="0" result="BackgroundImageFix"/>
<feBlend mode="normal" in="SourceGraphic" in2="BackgroundImageFix" result="shape"/>
<feGaussianBlur stdDeviation="4" result="effect1_foregroundBlur_753_1391"/>
</filter>
<filter id="filter5_f_753_1391" x="253.979" y="301.335" width="61.9014" height="68.5447" filterUnits="userSpaceOnUse" color-interpolation-filters="sRGB">
<feFlood flood-opacity="0" result="BackgroundImageFix"/>
<feBlend mode="normal" in="SourceGraphic" in2="BackgroundImageFix" result="shape"/>
<feGaussianBlur stdDeviation="4" result="effect1_foregroundBlur_753_1391"/>
</filter>
<filter id="filter6_f_753_1391" x="150.347" y="376.34" width="47.0674" height="47.0679" filterUnits="userSpaceOnUse" color-interpolation-filters="sRGB">
<feFlood flood-opacity="0" result="BackgroundImageFix"/>
<feBlend mode="normal" in="SourceGraphic" in2="BackgroundImageFix" result="shape"/>
<feGaussianBlur stdDeviation="2" result="effect1_foregroundBlur_753_1391"/>
</filter>
<filter id="filter7_f_753_1391" x="136.41" y="362.542" width="28.5752" height="28.5752" filterUnits="userSpaceOnUse" color-interpolation-filters="sRGB">
<feFlood flood-opacity="0" result="BackgroundImageFix"/>
<feBlend mode="normal" in="SourceGraphic" in2="BackgroundImageFix" result="shape"/>
<feGaussianBlur stdDeviation="2" result="effect1_foregroundBlur_753_1391"/>
</filter>
<filter id="filter8_f_753_1391" x="580.247" y="362.542" width="28.5752" height="28.5752" filterUnits="userSpaceOnUse" color-interpolation-filters="sRGB">
<feFlood flood-opacity="0" result="BackgroundImageFix"/>
<feBlend mode="normal" in="SourceGraphic" in2="BackgroundImageFix" result="shape"/>
<feGaussianBlur stdDeviation="2" result="effect1_foregroundBlur_753_1391"/>
</filter>
<filter id="filter9_f_753_1391" x="552.81" y="376.34" width="47.0674" height="47.0679" filterUnits="userSpaceOnUse" color-interpolation-filters="sRGB">
<feFlood flood-opacity="0" result="BackgroundImageFix"/>
<feBlend mode="normal" in="SourceGraphic" in2="BackgroundImageFix" result="shape"/>
<feGaussianBlur stdDeviation="2" result="effect1_foregroundBlur_753_1391"/>
</filter>
<linearGradient id="paint0_linear_753_1391" x1="367.999" y1="581.272" x2="367.999" y2="824.625" gradientUnits="userSpaceOnUse">
<stop/>
<stop offset="1" stop-color="#FBFCEE"/>
</linearGradient>
<radialGradient id="paint1_radial_753_1391" cx="0" cy="0" r="1" gradientUnits="userSpaceOnUse" gradientTransform="translate(368 90.2905) rotate(90) scale(555.795 542.189)">
<stop/>
<stop offset="0.817936"/>
<stop offset="1" stop-color="#FBFCEE"/>
</radialGradient>
<linearGradient id="paint2_linear_753_1391" x1="368" y1="90.2905" x2="368" y2="596.595" gradientUnits="userSpaceOnUse">
<stop/>
<stop offset="1" stop-color="#FBFCEE"/>
</linearGradient>
<radialGradient id="paint3_radial_753_1391" cx="0" cy="0" r="1" gradientUnits="userSpaceOnUse" gradientTransform="translate(368 90.2911) rotate(90) scale(555.796 542.189)">
<stop/>
<stop offset="0.817936"/>
<stop offset="1" stop-color="#FBFCEE"/>
</radialGradient>
<linearGradient id="paint4_linear_753_1391" x1="368" y1="0" x2="368" y2="596.596" gradientUnits="userSpaceOnUse">
<stop/>
<stop offset="1" stop-color="#FBFCEE"/>
</linearGradient>
<linearGradient id="paint5_linear_753_1391" x1="723.598" y1="281.829" x2="466.47" y2="42.9212" gradientUnits="userSpaceOnUse">
<stop stop-color="#FBFCEE"/>
<stop offset="0.5" stop-color="#E56695"/>
<stop offset="1" stop-color="#CB5A84"/>
</linearGradient>
<linearGradient id="paint6_linear_753_1391" x1="17.0044" y1="277.127" x2="274.133" y2="38.2188" gradientUnits="userSpaceOnUse">
<stop stop-color="#FBFCEE"/>
<stop offset="0.5" stop-color="#E56695"/>
<stop offset="1" stop-color="#CB5A84"/>
</linearGradient>
<linearGradient id="paint7_linear_753_1391" x1="535.824" y1="151.403" x2="535.824" y2="497.992" gradientUnits="userSpaceOnUse">
<stop stop-color="#FFF5FD"/>
<stop offset="1" stop-color="#EAE9EA"/>
</linearGradient>
<linearGradient id="paint8_linear_753_1391" x1="535.824" y1="151.403" x2="535.824" y2="497.992" gradientUnits="userSpaceOnUse">
<stop stop-color="white"/>
<stop offset="1" stop-color="#EAE9EA"/>
</linearGradient>
<linearGradient id="paint9_linear_753_1391" x1="455.243" y1="171.278" x2="616.406" y2="478.117" gradientUnits="userSpaceOnUse">
<stop/>
<stop offset="1" stop-color="#FBFCEE"/>
</linearGradient>
<linearGradient id="paint10_linear_753_1391" x1="527.103" y1="230.535" x2="533.058" y2="467.812" gradientUnits="userSpaceOnUse">
<stop stop-color="#1E1D1E"/>
<stop offset="1" stop-color="#662D42"/>
</linearGradient>
<linearGradient id="paint11_linear_753_1391" x1="146.578" y1="0" x2="146.578" y2="346.589" gradientUnits="userSpaceOnUse">
<stop stop-color="#FFF5FD"/>
<stop offset="1" stop-color="#EAE9EA"/>
</linearGradient>
<linearGradient id="paint12_linear_753_1391" x1="146.578" y1="0" x2="146.578" y2="346.589" gradientUnits="userSpaceOnUse">
<stop stop-color="white"/>
<stop offset="1" stop-color="#EAE9EA"/>
</linearGradient>
<linearGradient id="paint13_linear_753_1391" x1="290.93" y1="171.278" x2="129.767" y2="478.117" gradientUnits="userSpaceOnUse">
<stop/>
<stop offset="1" stop-color="#FBFCEE"/>
</linearGradient>
<linearGradient id="paint14_linear_753_1391" x1="122.534" y1="66.5394" x2="128.489" y2="303.817" gradientUnits="userSpaceOnUse">
<stop stop-color="#1E1D1E"/>
<stop offset="1" stop-color="#662D42"/>
</linearGradient>
<linearGradient id="paint15_linear_753_1391" x1="368" y1="723.991" x2="368" y2="814.533" gradientUnits="userSpaceOnUse">
<stop stop-color="#FE71A5"/>
<stop offset="1" stop-color="#FBFCEE"/>
</linearGradient>
<linearGradient id="paint16_linear_753_1391" x1="448.972" y1="634.645" x2="578.852" y2="634.645" gradientUnits="userSpaceOnUse">
<stop stop-color="#331721"/>
<stop offset="1" stop-color="#FBFCEE"/>
</linearGradient>
<linearGradient id="paint17_linear_753_1391" x1="388.983" y1="690.235" x2="390.579" y2="769.904" gradientUnits="userSpaceOnUse">
<stop stop-color="#331721"/>
<stop offset="1" stop-color="#FBFCEE"/>
</linearGradient>
<linearGradient id="paint18_linear_753_1391" x1="344.593" y1="659.677" x2="344.593" y2="757.362" gradientUnits="userSpaceOnUse">
<stop stop-color="#331721"/>
<stop offset="1" stop-color="#FBFCEE"/>
</linearGradient>
<linearGradient id="paint19_linear_753_1391" x1="343.055" y1="694.47" x2="345.202" y2="785.158" gradientUnits="userSpaceOnUse">
<stop stop-color="#331721"/>
<stop offset="1" stop-color="#FBFCEE"/>
</linearGradient>
</defs>
</svg>
