<svg width="701" height="799" viewBox="0 0 701 799" fill="none" xmlns="http://www.w3.org/2000/svg">
<path d="M224.976 580.952C227.3 574.827 233.169 570.776 239.72 570.776H394.951C401.337 570.776 407.093 574.627 409.529 580.53L490.338 776.329C494.623 786.71 486.991 798.115 475.761 798.115H165.433C154.396 798.115 146.773 787.07 150.688 776.751L224.976 580.952Z" fill="url(#paint0_linear_753_1492)"/>
<path d="M398.438 586.546C398.438 577.837 405.498 570.776 414.208 570.776H537.008C555.654 570.776 570.77 585.892 570.77 604.538C570.77 623.185 555.654 638.3 537.008 638.3H414.208C405.498 638.3 398.438 631.24 398.438 622.53V586.546Z" fill="url(#paint1_linear_753_1492)"/>
<path d="M343.758 592.787C350.557 592.654 355.433 594.881 358.065 599C360.491 602.799 360.281 607.117 359.54 609.828L359.5 609.971L359.452 610.112C356.887 617.569 350.178 621.169 344.164 622.832C338.552 624.384 332.606 624.546 328.428 624.207C328.605 624.591 328.807 624.975 329.039 625.351C330.245 627.302 332.327 629.22 336.16 630.012L336.536 630.086L336.594 630.096L336.653 630.108C338.854 630.568 342.403 630.674 345.561 629.566C348.495 628.535 351.06 626.508 352.207 622.358L361.096 624.813C359.023 632.318 353.937 636.399 348.616 638.267C343.518 640.057 338.205 639.854 334.767 639.136L334.767 639.135C328.086 637.886 323.739 634.318 321.194 630.2C319.814 627.967 318.991 625.624 318.56 623.475L316.368 623.317C316.859 621.632 317.15 620.123 317.266 618.931L317.267 618.928C317.428 617.267 317.46 615.673 317.383 614.144L318.77 614.245C320.191 607.352 323.899 602.363 328.246 598.97C333.372 594.969 339.314 593.217 343.389 592.809L343.573 592.791L343.758 592.787ZM350.293 603.966C349.924 603.389 348.685 601.958 344.143 602.004C341.501 602.301 337.386 603.535 333.92 606.24C331.396 608.211 329.178 610.978 328.088 614.918L328.299 614.933L328.383 614.942C331.729 615.306 337.002 615.244 341.705 613.943C346.42 612.639 349.522 610.418 350.678 607.254C350.941 606.159 350.848 604.836 350.293 603.966Z" fill="url(#paint2_linear_753_1492)"/>
<path d="M278.666 593.269C281.862 589.57 287.008 588.068 293.716 589.177L293.899 589.206L294.079 589.251C298.053 590.24 303.681 592.828 308.179 597.525C312.81 602.36 316.174 609.389 315.264 618.734L315.263 618.736C314.98 621.636 313.513 626.849 310.285 631.658C306.984 636.577 301.571 641.438 293.382 642.546C290.383 642.952 285.886 642.6 281.645 640.55C277.223 638.412 273.086 634.409 271.418 627.788L275.89 626.661L280.361 625.534C281.283 629.196 283.389 631.149 285.659 632.246C288.11 633.431 290.756 633.595 292.145 633.407C297.01 632.748 300.343 629.924 302.628 626.519C303.537 625.164 304.237 623.773 304.764 622.496C300.56 622.271 294.496 621.268 288.996 618.851C283.284 616.34 277.161 611.814 275.695 604.065L275.668 603.919L275.649 603.772C275.305 600.983 275.718 596.679 278.666 593.269ZM292.011 598.242C287.522 597.543 286.091 598.781 285.643 599.3C284.968 600.081 284.686 601.377 284.789 602.499C285.478 605.796 288.228 608.44 292.707 610.408C297.174 612.371 302.384 613.191 305.748 613.311L305.832 613.315L306.043 613.33C305.531 609.274 303.734 606.218 301.518 603.904C298.477 600.729 294.583 598.916 292.011 598.242Z" fill="url(#paint3_linear_753_1492)"/>
<path d="M278.666 593.269C281.862 589.57 287.008 588.068 293.716 589.177L293.899 589.206L294.079 589.251C298.053 590.24 303.681 592.828 308.179 597.525C312.81 602.36 316.174 609.389 315.264 618.734L315.263 618.736C314.98 621.636 313.513 626.849 310.285 631.658C306.984 636.577 301.571 641.438 293.382 642.546C290.383 642.952 285.886 642.6 281.645 640.55C277.223 638.412 273.086 634.409 271.418 627.788L275.89 626.661L280.361 625.534C281.283 629.196 283.389 631.149 285.659 632.246C288.11 633.431 290.756 633.595 292.145 633.407C297.01 632.748 300.343 629.924 302.628 626.519C303.537 625.164 304.237 623.773 304.764 622.496C300.56 622.271 294.496 621.268 288.996 618.851C283.284 616.34 277.161 611.814 275.695 604.065L275.668 603.919L275.649 603.772C275.305 600.983 275.718 596.679 278.666 593.269ZM292.011 598.242C287.522 597.543 286.091 598.781 285.643 599.3C284.968 600.081 284.686 601.377 284.789 602.499C285.478 605.796 288.228 608.44 292.707 610.408C297.174 612.371 302.384 613.191 305.748 613.311L305.832 613.315L306.043 613.33C305.531 609.274 303.734 606.218 301.518 603.904C298.477 600.729 294.583 598.916 292.011 598.242Z" fill="url(#paint4_linear_753_1492)"/>
<path d="M278.666 593.269C281.862 589.57 287.008 588.068 293.716 589.177L293.899 589.206L294.079 589.251C298.053 590.24 303.681 592.828 308.179 597.525C312.81 602.36 316.174 609.389 315.264 618.734L315.263 618.736C314.98 621.636 313.513 626.849 310.285 631.658C306.984 636.577 301.571 641.438 293.382 642.546C290.383 642.952 285.886 642.6 281.645 640.55C277.223 638.412 273.086 634.409 271.418 627.788L275.89 626.661L280.361 625.534C281.283 629.196 283.389 631.149 285.659 632.246C288.11 633.431 290.756 633.595 292.145 633.407C297.01 632.748 300.343 629.924 302.628 626.519C303.537 625.164 304.237 623.773 304.764 622.496C300.56 622.271 294.496 621.268 288.996 618.851C283.284 616.34 277.161 611.814 275.695 604.065L275.668 603.919L275.649 603.772C275.305 600.983 275.718 596.679 278.666 593.269ZM292.011 598.242C287.522 597.543 286.091 598.781 285.643 599.3C284.968 600.081 284.686 601.377 284.789 602.499C285.478 605.796 288.228 608.44 292.707 610.408C297.174 612.371 302.384 613.191 305.748 613.311L305.832 613.315L306.043 613.33C305.531 609.274 303.734 606.218 301.518 603.904C298.477 600.729 294.583 598.916 292.011 598.242Z" fill="url(#paint5_linear_753_1492)"/>
<path d="M278.666 593.269C281.862 589.57 287.008 588.068 293.716 589.177L293.899 589.206L294.079 589.251C298.053 590.24 303.681 592.828 308.179 597.525C312.81 602.36 316.174 609.389 315.264 618.734L315.263 618.736C314.98 621.636 313.513 626.849 310.285 631.658C306.984 636.577 301.571 641.438 293.382 642.546C290.383 642.952 285.886 642.6 281.645 640.55C277.223 638.412 273.086 634.409 271.418 627.788L275.89 626.661L280.361 625.534C281.283 629.196 283.389 631.149 285.659 632.246C288.11 633.431 290.756 633.595 292.145 633.407C297.01 632.748 300.343 629.924 302.628 626.519C303.537 625.164 304.237 623.773 304.764 622.496C300.56 622.271 294.496 621.268 288.996 618.851C283.284 616.34 277.161 611.814 275.695 604.065L275.668 603.919L275.649 603.772C275.305 600.983 275.718 596.679 278.666 593.269ZM292.011 598.242C287.522 597.543 286.091 598.781 285.643 599.3C284.968 600.081 284.686 601.377 284.789 602.499C285.478 605.796 288.228 608.44 292.707 610.408C297.174 612.371 302.384 613.191 305.748 613.311L305.832 613.315L306.043 613.33C305.531 609.274 303.734 606.218 301.518 603.904C298.477 600.729 294.583 598.916 292.011 598.242Z" fill="url(#paint6_linear_753_1492)"/>
<path d="M325.399 467.112C332.197 466.979 337.073 469.206 339.705 473.325C342.131 477.123 341.922 481.442 341.181 484.153L341.141 484.296L341.093 484.437C338.528 491.894 331.818 495.494 325.804 497.157C320.193 498.709 314.246 498.871 310.069 498.532C310.245 498.916 310.448 499.3 310.68 499.676C311.886 501.627 313.968 503.545 317.8 504.337L318.177 504.411L318.235 504.421L318.294 504.433C320.495 504.892 324.044 504.999 327.202 503.891C330.136 502.86 332.701 500.833 333.848 496.683L342.737 499.138C340.663 506.643 335.578 510.724 330.256 512.592C325.159 514.382 319.845 514.179 316.408 513.461L316.408 513.46C309.726 512.211 305.38 508.643 302.835 504.525C301.455 502.292 300.632 499.949 300.2 497.8L298.009 497.642C298.5 495.957 298.79 494.448 298.907 493.256L298.907 493.253C299.069 491.592 299.101 489.998 299.024 488.469L300.411 488.57C301.832 481.676 305.54 476.688 309.887 473.295C315.013 469.294 320.954 467.541 325.029 467.134L325.214 467.116L325.399 467.112ZM331.934 478.291C331.565 477.714 330.326 476.283 325.784 476.329C323.142 476.626 319.027 477.86 315.561 480.565C313.036 482.536 310.819 485.302 309.728 489.243L309.94 489.258L310.023 489.267C313.37 489.631 318.643 489.569 323.346 488.268C328.061 486.964 331.162 484.743 332.319 481.579C332.581 480.484 332.489 479.161 331.934 478.291Z" fill="url(#paint7_linear_753_1492)"/>
<path d="M260.306 467.59C263.503 463.892 268.648 462.389 275.357 463.498L275.54 463.528L275.72 463.572C279.694 464.562 285.322 467.15 289.819 471.846C294.45 476.682 297.815 483.71 296.904 493.055L296.904 493.057C296.62 495.958 295.153 501.17 291.926 505.979C288.624 510.898 283.212 515.759 275.023 516.868C272.023 517.273 267.526 516.921 263.286 514.871C258.864 512.733 254.727 508.73 253.059 502.11L257.53 500.983L262.001 499.856C262.924 503.518 265.03 505.47 267.3 506.568C269.751 507.752 272.397 507.916 273.786 507.728C278.65 507.07 281.983 504.245 284.268 500.841C285.178 499.486 285.878 498.095 286.405 496.817C282.201 496.593 276.136 495.59 270.637 493.173C264.925 490.662 258.802 486.135 257.336 478.387L257.308 478.241L257.29 478.093C256.946 475.304 257.359 471 260.306 467.59ZM273.651 472.564C269.163 471.865 267.731 473.103 267.283 473.621C266.609 474.402 266.327 475.699 266.429 476.82C267.119 480.118 269.869 482.761 274.348 484.73C278.815 486.693 284.024 487.512 287.388 487.633L287.472 487.636L287.684 487.651C287.171 483.595 285.374 480.539 283.159 478.226C280.118 475.05 276.223 473.238 273.651 472.564Z" fill="url(#paint8_linear_753_1492)"/>
<path d="M260.306 467.59C263.503 463.892 268.648 462.389 275.357 463.498L275.54 463.528L275.72 463.572C279.694 464.562 285.322 467.15 289.819 471.846C294.45 476.682 297.815 483.71 296.904 493.055L296.904 493.057C296.62 495.958 295.153 501.17 291.926 505.979C288.624 510.898 283.212 515.759 275.023 516.868C272.023 517.273 267.526 516.921 263.286 514.871C258.864 512.733 254.727 508.73 253.059 502.11L257.53 500.983L262.001 499.856C262.924 503.518 265.03 505.47 267.3 506.568C269.751 507.752 272.397 507.916 273.786 507.728C278.65 507.07 281.983 504.245 284.268 500.841C285.178 499.486 285.878 498.095 286.405 496.817C282.201 496.593 276.136 495.59 270.637 493.173C264.925 490.662 258.802 486.135 257.336 478.387L257.308 478.241L257.29 478.093C256.946 475.304 257.359 471 260.306 467.59ZM273.651 472.564C269.163 471.865 267.731 473.103 267.283 473.621C266.609 474.402 266.327 475.699 266.429 476.82C267.119 480.118 269.869 482.761 274.348 484.73C278.815 486.693 284.024 487.512 287.388 487.633L287.472 487.636L287.684 487.651C287.171 483.595 285.374 480.539 283.159 478.226C280.118 475.05 276.223 473.238 273.651 472.564Z" fill="url(#paint9_linear_753_1492)"/>
<path d="M260.306 467.59C263.503 463.892 268.648 462.389 275.357 463.498L275.54 463.528L275.72 463.572C279.694 464.562 285.322 467.15 289.819 471.846C294.45 476.682 297.815 483.71 296.904 493.055L296.904 493.057C296.62 495.958 295.153 501.17 291.926 505.979C288.624 510.898 283.212 515.759 275.023 516.868C272.023 517.273 267.526 516.921 263.286 514.871C258.864 512.733 254.727 508.73 253.059 502.11L257.53 500.983L262.001 499.856C262.924 503.518 265.03 505.47 267.3 506.568C269.751 507.752 272.397 507.916 273.786 507.728C278.65 507.07 281.983 504.245 284.268 500.841C285.178 499.486 285.878 498.095 286.405 496.817C282.201 496.593 276.136 495.59 270.637 493.173C264.925 490.662 258.802 486.135 257.336 478.387L257.308 478.241L257.29 478.093C256.946 475.304 257.359 471 260.306 467.59ZM273.651 472.564C269.163 471.865 267.731 473.103 267.283 473.621C266.609 474.402 266.327 475.699 266.429 476.82C267.119 480.118 269.869 482.761 274.348 484.73C278.815 486.693 284.024 487.512 287.388 487.633L287.472 487.636L287.684 487.651C287.171 483.595 285.374 480.539 283.159 478.226C280.118 475.05 276.223 473.238 273.651 472.564Z" fill="url(#paint10_linear_753_1492)"/>
<path d="M260.306 467.59C263.503 463.892 268.648 462.389 275.357 463.498L275.54 463.528L275.72 463.572C279.694 464.562 285.322 467.15 289.819 471.846C294.45 476.682 297.815 483.71 296.904 493.055L296.904 493.057C296.62 495.958 295.153 501.17 291.926 505.979C288.624 510.898 283.212 515.759 275.023 516.868C272.023 517.273 267.526 516.921 263.286 514.871C258.864 512.733 254.727 508.73 253.059 502.11L257.53 500.983L262.001 499.856C262.924 503.518 265.03 505.47 267.3 506.568C269.751 507.752 272.397 507.916 273.786 507.728C278.65 507.07 281.983 504.245 284.268 500.841C285.178 499.486 285.878 498.095 286.405 496.817C282.201 496.593 276.136 495.59 270.637 493.173C264.925 490.662 258.802 486.135 257.336 478.387L257.308 478.241L257.29 478.093C256.946 475.304 257.359 471 260.306 467.59ZM273.651 472.564C269.163 471.865 267.731 473.103 267.283 473.621C266.609 474.402 266.327 475.699 266.429 476.82C267.119 480.118 269.869 482.761 274.348 484.73C278.815 486.693 284.024 487.512 287.388 487.633L287.472 487.636L287.684 487.651C287.171 483.595 285.374 480.539 283.159 478.226C280.118 475.05 276.223 473.238 273.651 472.564Z" fill="url(#paint11_linear_753_1492)"/>
<path d="M344.958 88.9941C535.473 88.9941 689.916 200.708 689.916 338.513C689.916 408.912 666.975 474.165 602.145 519.53C540.07 562.967 438.147 588.031 344.958 588.031C249.531 588.031 147.917 564.826 85.4658 519.53C23.2361 474.396 0 407.293 0 338.513C1.34339e-05 200.708 154.443 88.9941 344.958 88.9941Z" fill="black"/>
<path d="M689.916 338.512C689.916 408.911 666.976 474.164 602.145 519.529C540.07 562.966 438.147 588.03 344.958 588.03C249.531 588.03 147.917 564.825 85.4654 519.529C23.2357 474.395 0 407.292 0 338.512C0 200.707 154.443 88.9934 344.958 88.9934C535.473 88.9934 689.916 200.707 689.916 338.512Z" fill="black"/>
<path d="M344.958 90.4719C439.939 90.4719 525.867 118.321 588.014 163.274C650.162 208.227 688.438 270.202 688.438 338.512C688.437 408.563 665.633 473.299 601.297 518.318C539.549 561.525 437.956 586.552 344.958 586.552C249.695 586.552 148.434 563.373 86.333 518.332C24.5862 473.548 1.47857 406.956 1.47852 338.512C1.47852 270.203 39.7541 208.227 101.902 163.274C164.049 118.321 249.977 90.4719 344.958 90.4719Z" fill="url(#paint12_radial_753_1492)" stroke="url(#paint13_linear_753_1492)" stroke-width="2.95693"/>
<mask id="path-9-inside-1_753_1492" fill="white">
<path d="M573.855 3.52833C583.775 -3.37061 597.447 0.19544 602.453 11.1924C614.113 36.8059 633.606 81.9684 645.861 122.897C659.808 169.476 670.28 221.932 675.923 253.085C676.587 256.749 675.561 260.01 673.581 262.417C684.19 286.407 689.918 311.975 689.918 338.512C689.918 408.911 666.977 474.164 602.146 519.529C540.072 562.966 438.149 588.03 344.96 588.03C249.533 588.03 147.919 564.825 85.4678 519.529C23.238 474.395 0.00195312 407.292 0.00195312 338.512C0.00195425 311.965 5.73466 286.386 16.3516 262.388C14.3879 259.984 13.3731 256.734 14.0342 253.085C19.6773 221.932 30.1488 169.476 44.0957 122.897C56.3509 81.9684 75.8443 36.806 87.5039 11.1924C92.5102 0.195388 106.182 -3.37056 116.102 3.52833L252.131 98.1319C281.666 92.1768 312.799 88.9932 344.96 88.9932C377.131 88.9932 408.273 92.1791 437.816 98.1377L573.855 3.52833Z"/>
</mask>
<path d="M573.855 3.52833C583.775 -3.37061 597.447 0.19544 602.453 11.1924C614.113 36.8059 633.606 81.9684 645.861 122.897C659.808 169.476 670.28 221.932 675.923 253.085C676.587 256.749 675.561 260.01 673.581 262.417C684.19 286.407 689.918 311.975 689.918 338.512C689.918 408.911 666.977 474.164 602.146 519.529C540.072 562.966 438.149 588.03 344.96 588.03C249.533 588.03 147.919 564.825 85.4678 519.529C23.238 474.395 0.00195312 407.292 0.00195312 338.512C0.00195425 311.965 5.73466 286.386 16.3516 262.388C14.3879 259.984 13.3731 256.734 14.0342 253.085C19.6773 221.932 30.1488 169.476 44.0957 122.897C56.3509 81.9684 75.8443 36.806 87.5039 11.1924C92.5102 0.195388 106.182 -3.37056 116.102 3.52833L252.131 98.1319C281.666 92.1768 312.799 88.9932 344.96 88.9932C377.131 88.9932 408.273 92.1791 437.816 98.1377L573.855 3.52833Z" fill="url(#paint14_radial_753_1492)"/>
<path d="M573.855 3.52833L575.544 5.95592V5.9559L573.855 3.52833ZM602.453 11.1924L605.144 9.96732L605.144 9.96725L602.453 11.1924ZM645.861 122.897L648.694 122.049V122.049L645.861 122.897ZM675.923 253.085L678.832 252.558V252.558L675.923 253.085ZM673.581 262.417L671.297 260.539L670.14 261.946L670.877 263.613L673.581 262.417ZM689.918 338.512H692.875V338.512H689.918ZM602.146 519.529L603.842 521.952V521.952L602.146 519.529ZM344.96 588.03V590.987V590.987V588.03ZM85.4678 519.529L83.7317 521.923L83.7317 521.923L85.4678 519.529ZM0.00195312 338.512H-2.95498V338.512H0.00195312ZM16.3516 262.388L19.0557 263.584L19.7903 261.923L18.6416 260.517L16.3516 262.388ZM14.0342 253.085L11.1246 252.558V252.558L14.0342 253.085ZM44.0957 122.897L41.263 122.049V122.049L44.0957 122.897ZM87.5039 11.1924L84.8127 9.96726L84.8127 9.96732L87.5039 11.1924ZM116.102 3.52833L117.79 1.10076V1.10076L116.102 3.52833ZM252.131 98.1319L250.443 100.559L251.478 101.28L252.715 101.03L252.131 98.1319ZM344.96 88.9932V86.0362V86.0362V88.9932ZM437.816 98.1377L437.232 101.036L438.469 101.286L439.505 100.565L437.816 98.1377ZM573.855 3.52833L575.544 5.9559C583.99 0.0815444 595.541 3.14649 599.762 12.4175L602.453 11.1924L605.144 9.96725C599.352 -2.75561 583.56 -6.82277 572.167 1.10076L573.855 3.52833ZM602.453 11.1924L599.762 12.4175C611.408 38.002 630.833 83.0159 643.029 123.746L645.861 122.897L648.694 122.049C636.379 80.9209 616.817 35.6098 605.144 9.96732L602.453 11.1924ZM645.861 122.897L643.029 123.746C656.928 170.165 667.376 222.493 673.013 253.612L675.923 253.085L678.832 252.558C673.183 221.371 662.689 168.787 648.694 122.049L645.861 122.897ZM675.923 253.085L673.013 253.612C673.517 256.393 672.744 258.78 671.297 260.539L673.581 262.417L675.865 264.295C678.377 261.24 679.656 257.106 678.832 252.558L675.923 253.085ZM673.581 262.417L670.877 263.613C681.328 287.247 686.961 312.409 686.961 338.512H689.918H692.875C692.875 311.541 687.051 285.567 676.285 261.221L673.581 262.417ZM689.918 338.512H686.961C686.961 408.216 664.293 472.434 600.451 517.107L602.146 519.529L603.842 521.952C669.661 475.895 692.875 409.606 692.875 338.512H689.918ZM602.146 519.529L600.451 517.107C539.031 560.085 437.767 585.073 344.96 585.073V588.03V590.987C438.53 590.987 541.113 565.846 603.842 521.952L602.146 519.529ZM344.96 588.03V585.073C249.861 585.073 148.954 561.922 87.2038 517.136L85.4678 519.529L83.7317 521.923C146.884 567.727 249.206 590.987 344.96 590.987V588.03ZM85.4678 519.529L87.2039 517.136C25.9392 472.701 2.95889 406.619 2.95889 338.512H0.00195312H-2.95498C-2.95498 407.965 20.5369 476.088 83.7317 521.923L85.4678 519.529ZM0.00195312 338.512H2.95889C2.95889 312.399 8.59632 287.226 19.0557 263.584L16.3516 262.388L13.6474 261.191C2.873 285.546 -2.95498 311.53 -2.95498 338.512H0.00195312ZM16.3516 262.388L18.6416 260.517C17.207 258.761 16.442 256.382 16.9438 253.612L14.0342 253.085L11.1246 252.558C10.3042 257.087 11.5689 261.207 14.0615 264.258L16.3516 262.388ZM14.0342 253.085L16.9438 253.612C22.5808 222.493 33.0292 170.165 46.9284 123.746L44.0957 122.897L41.263 122.049C27.2685 168.787 16.7739 221.371 11.1246 252.558L14.0342 253.085ZM44.0957 122.897L46.9284 123.746C59.1239 83.0159 78.5487 38.0021 90.1951 12.4175L87.5039 11.1924L84.8127 9.96732C73.1399 35.6098 53.5779 80.9209 41.263 122.049L44.0957 122.897ZM87.5039 11.1924L90.1951 12.4175C94.4156 3.14647 105.967 0.0815702 114.413 5.95591L116.102 3.52833L117.79 1.10076C106.397 -6.82269 90.6047 -2.7557 84.8127 9.96726L87.5039 11.1924ZM116.102 3.52833L114.413 5.95591L250.443 100.559L252.131 98.1319L253.819 95.7043L117.79 1.10076L116.102 3.52833ZM252.131 98.1319L252.715 101.03C282.057 95.1145 312.994 91.9501 344.96 91.9501V88.9932V86.0362C312.604 86.0362 281.276 89.2391 251.546 95.2332L252.131 98.1319ZM344.96 88.9932V91.9501C376.936 91.9501 407.882 95.1168 437.232 101.036L437.816 98.1377L438.401 95.2391C408.663 89.2414 377.325 86.0362 344.96 86.0362V88.9932ZM437.816 98.1377L439.505 100.565L575.544 5.95592L573.855 3.52833L572.167 1.10075L436.128 95.7101L437.816 98.1377Z" fill="url(#paint15_linear_753_1492)" mask="url(#path-9-inside-1_753_1492)"/>
<path d="M567.816 41.7237C577.521 33.021 592.751 35.9889 598.109 47.8721C608.435 70.7732 623.73 107.006 633.552 140.78C643.686 175.63 651.618 214.715 656.756 243.178C621.675 187.736 559.341 143.201 482.15 118.543L567.816 41.7237Z" fill="url(#paint16_linear_753_1492)"/>
<path d="M126.636 37.0867C116.931 28.3844 101.702 31.353 96.3438 43.2361C86.018 66.1372 70.7217 102.37 60.9004 136.144C50.7662 170.995 42.8346 210.08 37.6963 238.543C72.7771 183.1 135.112 138.566 212.303 113.908L126.636 37.0867Z" fill="url(#paint17_linear_753_1492)"/>
<ellipse cx="120.051" cy="141.933" rx="120.051" ry="141.933" transform="matrix(1 0 0 -1 50.4951 492.206)" fill="url(#paint18_linear_753_1492)"/>
<ellipse cx="105.236" cy="124.417" rx="105.236" ry="124.417" transform="matrix(1 0 0 -1 56.1953 475.704)" fill="url(#paint19_linear_753_1492)"/>
<g filter="url(#filter0_f_753_1492)">
<path d="M125.99 403.719L130.501 415.911L142.693 420.422L130.501 424.934L125.99 437.125L121.479 424.934L109.287 420.422L121.479 415.911L125.99 403.719Z" fill="#FFE3ED" fill-opacity="0.5"/>
</g>
<g filter="url(#filter1_f_753_1492)">
<path d="M107.006 392.751L109.382 399.172L115.802 401.548L109.382 403.924L107.006 410.344L104.63 403.924L98.209 401.548L104.63 399.172L107.006 392.751Z" fill="#FFE3ED" fill-opacity="0.5"/>
</g>
<g filter="url(#filter2_f_753_1492)">
<ellipse cx="189.747" cy="315.647" rx="41.2414" ry="55.2052" transform="rotate(13.3782 189.747 315.647)" fill="#FE71A5"/>
</g>
<ellipse cx="189.915" cy="314.944" rx="40.542" ry="54.2689" transform="rotate(13.3782 189.915 314.944)" fill="white"/>
<g filter="url(#filter3_f_753_1492)">
<ellipse cx="122.193" cy="367.392" rx="15.9852" ry="21.3976" transform="rotate(13.3782 122.193 367.392)" fill="#FE71A5"/>
</g>
<ellipse cx="122.258" cy="367.121" rx="15.7141" ry="21.0347" transform="rotate(13.3782 122.258 367.121)" fill="white"/>
<ellipse cx="120.051" cy="141.933" rx="120.051" ry="141.933" transform="matrix(1 0 0 -1 328.951 497.613)" fill="url(#paint20_linear_753_1492)"/>
<ellipse cx="105.236" cy="124.417" rx="105.236" ry="124.417" transform="matrix(1 0 0 -1 334.651 481.112)" fill="url(#paint21_linear_753_1492)"/>
<g filter="url(#filter4_f_753_1492)">
<path d="M404.449 409.127L408.96 421.319L421.152 425.83L408.96 430.341L404.449 442.533L399.938 430.341L387.746 425.83L399.938 421.319L404.449 409.127Z" fill="#FFE3ED" fill-opacity="0.5"/>
</g>
<g filter="url(#filter5_f_753_1492)">
<path d="M385.46 398.158L387.836 404.578L394.256 406.954L387.836 409.33L385.46 415.751L383.084 409.33L376.663 406.954L383.084 404.578L385.46 398.158Z" fill="#FFE3ED" fill-opacity="0.5"/>
</g>
<g filter="url(#filter6_f_753_1492)">
<ellipse cx="468.206" cy="321.054" rx="41.2414" ry="55.2052" transform="rotate(13.3782 468.206 321.054)" fill="#FE71A5"/>
</g>
<ellipse cx="468.374" cy="320.352" rx="40.542" ry="54.2689" transform="rotate(13.3782 468.374 320.352)" fill="white"/>
<g filter="url(#filter7_f_753_1492)">
<ellipse cx="400.647" cy="372.799" rx="15.9852" ry="21.3976" transform="rotate(13.3782 400.647 372.799)" fill="#FE71A5"/>
</g>
<ellipse cx="400.712" cy="372.528" rx="15.7141" ry="21.0347" transform="rotate(13.3782 400.712 372.528)" fill="white"/>
<path d="M456.222 493.862L449.002 527.899" stroke="#FE71A5" stroke-width="5.041" stroke-linecap="round"/>
<path d="M456.222 493.862L449.002 527.899" stroke="url(#paint22_linear_753_1492)" stroke-width="5.041" stroke-linecap="round"/>
<path d="M475.128 493.862L472.436 523.026" stroke="#FE71A5" stroke-width="5.041" stroke-linecap="round"/>
<path d="M475.128 493.862L472.436 523.026" stroke="url(#paint23_linear_753_1492)" stroke-width="5.041" stroke-linecap="round"/>
<path d="M492.53 493.8L492.477 519.471" stroke="#FE71A5" stroke-width="5.041" stroke-linecap="round"/>
<path d="M492.53 493.8L492.477 519.471" stroke="url(#paint24_linear_753_1492)" stroke-width="5.041" stroke-linecap="round"/>
<path d="M138.824 485.239L146.044 519.275" stroke="#FE71A5" stroke-width="5.041" stroke-linecap="round"/>
<path d="M138.824 485.239L146.044 519.275" stroke="url(#paint25_linear_753_1492)" stroke-width="5.041" stroke-linecap="round"/>
<path d="M119.918 485.239L122.61 514.402" stroke="#FE71A5" stroke-width="5.041" stroke-linecap="round"/>
<path d="M119.918 485.239L122.61 514.402" stroke="url(#paint26_linear_753_1492)" stroke-width="5.041" stroke-linecap="round"/>
<path d="M102.515 485.178L102.569 510.849" stroke="#FE71A5" stroke-width="5.041" stroke-linecap="round"/>
<path d="M102.515 485.178L102.569 510.849" stroke="url(#paint27_linear_753_1492)" stroke-width="5.041" stroke-linecap="round"/>
<path d="M650.995 519.398C658.032 518.751 663.253 520.694 666.29 524.767C669.09 528.522 669.196 533.014 668.631 535.88L668.601 536.032L668.561 536.181C666.46 544.103 659.775 548.337 653.666 550.512C647.544 552.691 640.903 553.237 636.523 553.096H624.887C625.27 551.312 625.459 549.727 625.49 548.482V548.48C625.534 546.746 625.447 545.09 625.253 543.511H626.7C627.657 536.26 631.128 530.811 635.38 526.969C640.394 522.438 646.421 520.176 650.614 519.449L650.804 519.415L650.995 519.398ZM658.606 530.495C658.18 529.924 656.787 528.534 652.075 528.925C649.359 529.433 645.192 531.019 641.806 534.079C639.336 536.311 637.245 539.345 636.41 543.511H636.63L636.717 543.514C640.213 543.641 645.675 543.183 650.452 541.483C655.24 539.778 658.288 537.245 659.251 533.88C659.442 532.724 659.248 531.356 658.606 530.495Z" fill="url(#paint28_linear_753_1492)"/>
<path d="M583.557 524.772C586.594 520.699 591.815 518.756 598.852 519.403L599.044 519.42L599.233 519.453C603.427 520.181 609.454 522.443 614.468 526.974C619.631 531.64 623.645 538.673 623.401 548.428L623.285 553.101H613.324C608.944 553.241 602.304 552.696 596.182 550.517C590.073 548.342 583.387 544.108 581.287 536.186L581.248 536.036L581.217 535.885C580.652 533.019 580.758 528.527 583.557 524.772ZM597.773 528.93C593.061 528.539 591.668 529.929 591.242 530.5C590.601 531.36 590.405 532.725 590.595 533.88C591.557 537.247 594.606 539.782 599.396 541.488C604.174 543.188 609.635 543.645 613.132 543.519L613.218 543.516H613.438C612.603 539.35 610.512 536.316 608.042 534.084C604.656 531.025 600.49 529.438 597.773 528.93Z" fill="url(#paint29_linear_753_1492)"/>
<path d="M583.557 524.772C586.594 520.699 591.815 518.756 598.852 519.403L599.044 519.42L599.233 519.453C603.427 520.181 609.454 522.443 614.468 526.974C619.631 531.64 623.645 538.673 623.401 548.428L623.285 553.101H613.324C608.944 553.241 602.304 552.696 596.182 550.517C590.073 548.342 583.387 544.108 581.287 536.186L581.248 536.036L581.217 535.885C580.652 533.019 580.758 528.527 583.557 524.772ZM597.773 528.93C593.061 528.539 591.668 529.929 591.242 530.5C590.601 531.36 590.405 532.725 590.595 533.88C591.557 537.247 594.606 539.782 599.396 541.488C604.174 543.188 609.635 543.645 613.132 543.519L613.218 543.516H613.438C612.603 539.35 610.512 536.316 608.042 534.084C604.656 531.025 600.49 529.438 597.773 528.93Z" fill="url(#paint30_linear_753_1492)"/>
<path d="M689.396 653.169C689.396 654.156 688.595 654.957 687.607 654.957H559.301C558.313 654.957 557.513 654.156 557.513 653.169V578.164H689.396V653.169ZM698.459 553.122C699.447 553.122 700.248 553.922 700.248 554.91V576.374C700.248 577.361 699.447 578.162 698.459 578.162H547.615C546.628 578.162 545.827 577.361 545.827 576.374V554.91C545.827 553.922 546.628 553.122 547.615 553.122H698.459Z" fill="#FE71A5"/>
<rect x="632.939" y="553.123" width="25.1961" height="16.0343" transform="rotate(90 632.939 553.123)" fill="url(#paint31_linear_753_1492)"/>
<rect x="631.21" y="578.317" width="76.638" height="12.5715" transform="rotate(90 631.21 578.317)" fill="url(#paint32_linear_753_1492)"/>
<rect x="557.374" y="578.158" width="131.949" height="10.4797" fill="#191919" fill-opacity="0.1"/>
<defs>
<filter id="filter0_f_753_1492" x="106.011" y="400.443" width="39.9585" height="39.9582" filterUnits="userSpaceOnUse" color-interpolation-filters="sRGB">
<feFlood flood-opacity="0" result="BackgroundImageFix"/>
<feBlend mode="normal" in="SourceGraphic" in2="BackgroundImageFix" result="shape"/>
<feGaussianBlur stdDeviation="1.63806" result="effect1_foregroundBlur_753_1492"/>
</filter>
<filter id="filter1_f_753_1492" x="94.9329" y="389.475" width="24.146" height="24.1455" filterUnits="userSpaceOnUse" color-interpolation-filters="sRGB">
<feFlood flood-opacity="0" result="BackgroundImageFix"/>
<feBlend mode="normal" in="SourceGraphic" in2="BackgroundImageFix" result="shape"/>
<feGaussianBlur stdDeviation="1.63806" result="effect1_foregroundBlur_753_1492"/>
</filter>
<filter id="filter2_f_753_1492" x="137.616" y="251.076" width="104.262" height="129.141" filterUnits="userSpaceOnUse" color-interpolation-filters="sRGB">
<feFlood flood-opacity="0" result="BackgroundImageFix"/>
<feBlend mode="normal" in="SourceGraphic" in2="BackgroundImageFix" result="shape"/>
<feGaussianBlur stdDeviation="5.00654" result="effect1_foregroundBlur_753_1492"/>
</filter>
<filter id="filter3_f_753_1492" x="95.8551" y="336.233" width="52.6766" height="62.3191" filterUnits="userSpaceOnUse" color-interpolation-filters="sRGB">
<feFlood flood-opacity="0" result="BackgroundImageFix"/>
<feBlend mode="normal" in="SourceGraphic" in2="BackgroundImageFix" result="shape"/>
<feGaussianBlur stdDeviation="5.00654" result="effect1_foregroundBlur_753_1492"/>
</filter>
<filter id="filter4_f_753_1492" x="384.47" y="405.851" width="39.9585" height="39.9582" filterUnits="userSpaceOnUse" color-interpolation-filters="sRGB">
<feFlood flood-opacity="0" result="BackgroundImageFix"/>
<feBlend mode="normal" in="SourceGraphic" in2="BackgroundImageFix" result="shape"/>
<feGaussianBlur stdDeviation="1.63806" result="effect1_foregroundBlur_753_1492"/>
</filter>
<filter id="filter5_f_753_1492" x="373.387" y="394.882" width="24.146" height="24.1455" filterUnits="userSpaceOnUse" color-interpolation-filters="sRGB">
<feFlood flood-opacity="0" result="BackgroundImageFix"/>
<feBlend mode="normal" in="SourceGraphic" in2="BackgroundImageFix" result="shape"/>
<feGaussianBlur stdDeviation="1.63806" result="effect1_foregroundBlur_753_1492"/>
</filter>
<filter id="filter6_f_753_1492" x="416.075" y="256.484" width="104.262" height="129.141" filterUnits="userSpaceOnUse" color-interpolation-filters="sRGB">
<feFlood flood-opacity="0" result="BackgroundImageFix"/>
<feBlend mode="normal" in="SourceGraphic" in2="BackgroundImageFix" result="shape"/>
<feGaussianBlur stdDeviation="5.00654" result="effect1_foregroundBlur_753_1492"/>
</filter>
<filter id="filter7_f_753_1492" x="374.309" y="341.64" width="52.6766" height="62.3191" filterUnits="userSpaceOnUse" color-interpolation-filters="sRGB">
<feFlood flood-opacity="0" result="BackgroundImageFix"/>
<feBlend mode="normal" in="SourceGraphic" in2="BackgroundImageFix" result="shape"/>
<feGaussianBlur stdDeviation="5.00654" result="effect1_foregroundBlur_753_1492"/>
</filter>
<linearGradient id="paint0_linear_753_1492" x1="320.956" y1="677.138" x2="329.934" y2="1038.36" gradientUnits="userSpaceOnUse">
<stop/>
<stop offset="1" stop-color="#FBFCEE"/>
</linearGradient>
<linearGradient id="paint1_linear_753_1492" x1="320.956" y1="677.138" x2="329.934" y2="1038.36" gradientUnits="userSpaceOnUse">
<stop/>
<stop offset="1" stop-color="#FBFCEE"/>
</linearGradient>
<linearGradient id="paint2_linear_753_1492" x1="341.015" y1="592.471" x2="334.853" y2="677.757" gradientUnits="userSpaceOnUse">
<stop stop-color="#FE71A5"/>
<stop offset="1" stop-color="#FBFCEE"/>
</linearGradient>
<linearGradient id="paint3_linear_753_1492" x1="295.806" y1="589.21" x2="291.933" y2="642.812" gradientUnits="userSpaceOnUse">
<stop stop-color="#FE8DB7"/>
<stop offset="1" stop-color="#FE8DB7"/>
</linearGradient>
<linearGradient id="paint4_linear_753_1492" x1="295.806" y1="589.21" x2="291.933" y2="642.812" gradientUnits="userSpaceOnUse">
<stop stop-color="#FE71A5"/>
<stop offset="1" stop-color="#FBFCEE"/>
</linearGradient>
<linearGradient id="paint5_linear_753_1492" x1="295.806" y1="589.21" x2="289.964" y2="670.071" gradientUnits="userSpaceOnUse">
<stop stop-color="#FE71A5"/>
<stop offset="1" stop-color="#FBFCEE"/>
</linearGradient>
<linearGradient id="paint6_linear_753_1492" x1="295.806" y1="589.21" x2="288.791" y2="686.304" gradientUnits="userSpaceOnUse">
<stop stop-color="#FE71A5"/>
<stop offset="1" stop-color="#FBFCEE"/>
</linearGradient>
<linearGradient id="paint7_linear_753_1492" x1="322.655" y1="466.796" x2="316.494" y2="552.082" gradientUnits="userSpaceOnUse">
<stop stop-color="#FE71A5"/>
<stop offset="1" stop-color="#FBFCEE"/>
</linearGradient>
<linearGradient id="paint8_linear_753_1492" x1="277.447" y1="463.531" x2="273.574" y2="517.133" gradientUnits="userSpaceOnUse">
<stop stop-color="#FE8DB7"/>
<stop offset="1" stop-color="#FE8DB7"/>
</linearGradient>
<linearGradient id="paint9_linear_753_1492" x1="277.447" y1="463.531" x2="273.574" y2="517.133" gradientUnits="userSpaceOnUse">
<stop stop-color="#FE71A5"/>
<stop offset="1" stop-color="#FBFCEE"/>
</linearGradient>
<linearGradient id="paint10_linear_753_1492" x1="277.447" y1="463.531" x2="271.605" y2="544.392" gradientUnits="userSpaceOnUse">
<stop stop-color="#FE71A5"/>
<stop offset="1" stop-color="#FBFCEE"/>
</linearGradient>
<linearGradient id="paint11_linear_753_1492" x1="277.447" y1="463.531" x2="270.432" y2="560.626" gradientUnits="userSpaceOnUse">
<stop stop-color="#FE71A5"/>
<stop offset="1" stop-color="#FBFCEE"/>
</linearGradient>
<radialGradient id="paint12_radial_753_1492" cx="0" cy="0" r="1" gradientUnits="userSpaceOnUse" gradientTransform="translate(344.958 88.9934) rotate(90) scale(547.817 534.406)">
<stop/>
<stop offset="0.817936"/>
<stop offset="1" stop-color="#FBFCEE"/>
</radialGradient>
<linearGradient id="paint13_linear_753_1492" x1="344.958" y1="88.9934" x2="344.958" y2="588.03" gradientUnits="userSpaceOnUse">
<stop/>
<stop offset="1" stop-color="#FBFCEE"/>
</linearGradient>
<radialGradient id="paint14_radial_753_1492" cx="0" cy="0" r="1" gradientUnits="userSpaceOnUse" gradientTransform="translate(344.96 88.9947) rotate(90) scale(547.816 534.406)">
<stop/>
<stop offset="0.817936"/>
<stop offset="1" stop-color="#FBFCEE"/>
</radialGradient>
<linearGradient id="paint15_linear_753_1492" x1="344.96" y1="0" x2="344.96" y2="588.03" gradientUnits="userSpaceOnUse">
<stop/>
<stop offset="1" stop-color="#FBFCEE"/>
</linearGradient>
<linearGradient id="paint16_linear_753_1492" x1="695.452" y1="277.786" x2="442.014" y2="42.3056" gradientUnits="userSpaceOnUse">
<stop stop-color="#FBFCEE"/>
<stop offset="0.5" stop-color="#E56695"/>
<stop offset="1" stop-color="#CB5A84"/>
</linearGradient>
<linearGradient id="paint17_linear_753_1492" x1="-0.999873" y1="273.151" x2="252.44" y2="37.6695" gradientUnits="userSpaceOnUse">
<stop stop-color="#FBFCEE"/>
<stop offset="0.5" stop-color="#E56695"/>
<stop offset="1" stop-color="#CB5A84"/>
</linearGradient>
<linearGradient id="paint18_linear_753_1492" x1="120.051" y1="0" x2="120.051" y2="283.866" gradientUnits="userSpaceOnUse">
<stop stop-color="#FFF5FD"/>
<stop offset="1" stop-color="#EAE9EA"/>
</linearGradient>
<linearGradient id="paint19_linear_753_1492" x1="100.359" y1="54.4976" x2="105.236" y2="248.834" gradientUnits="userSpaceOnUse">
<stop stop-color="#1E1D1E"/>
<stop offset="1" stop-color="#662D42"/>
</linearGradient>
<linearGradient id="paint20_linear_753_1492" x1="120.051" y1="0" x2="120.051" y2="283.866" gradientUnits="userSpaceOnUse">
<stop stop-color="#FFF5FD"/>
<stop offset="1" stop-color="#EAE9EA"/>
</linearGradient>
<linearGradient id="paint21_linear_753_1492" x1="100.359" y1="54.4976" x2="105.236" y2="248.834" gradientUnits="userSpaceOnUse">
<stop stop-color="#1E1D1E"/>
<stop offset="1" stop-color="#662D42"/>
</linearGradient>
<linearGradient id="paint22_linear_753_1492" x1="452.612" y1="493.862" x2="440.791" y2="557.005" gradientUnits="userSpaceOnUse">
<stop stop-color="#FE71A5"/>
<stop offset="1" stop-color="#FBFCEE"/>
</linearGradient>
<linearGradient id="paint23_linear_753_1492" x1="473.782" y1="493.862" x2="453.452" y2="541.115" gradientUnits="userSpaceOnUse">
<stop stop-color="#FE71A5"/>
<stop offset="1" stop-color="#FBFCEE"/>
</linearGradient>
<linearGradient id="paint24_linear_753_1492" x1="491.192" y1="493.938" x2="479.521" y2="538.304" gradientUnits="userSpaceOnUse">
<stop stop-color="#FE71A5"/>
<stop offset="1" stop-color="#FBFCEE"/>
</linearGradient>
<linearGradient id="paint25_linear_753_1492" x1="142.434" y1="485.239" x2="154.255" y2="548.381" gradientUnits="userSpaceOnUse">
<stop stop-color="#FE71A5"/>
<stop offset="1" stop-color="#FBFCEE"/>
</linearGradient>
<linearGradient id="paint26_linear_753_1492" x1="121.264" y1="485.239" x2="141.594" y2="532.492" gradientUnits="userSpaceOnUse">
<stop stop-color="#FE71A5"/>
<stop offset="1" stop-color="#FBFCEE"/>
</linearGradient>
<linearGradient id="paint27_linear_753_1492" x1="103.854" y1="485.316" x2="115.525" y2="529.683" gradientUnits="userSpaceOnUse">
<stop stop-color="#FE71A5"/>
<stop offset="1" stop-color="#FBFCEE"/>
</linearGradient>
<linearGradient id="paint28_linear_753_1492" x1="645.347" y1="540.87" x2="646.169" y2="597.176" gradientUnits="userSpaceOnUse">
<stop stop-color="#331721"/>
<stop offset="1" stop-color="#FBFCEE"/>
</linearGradient>
<linearGradient id="paint29_linear_753_1492" x1="602.178" y1="519.281" x2="602.178" y2="579.91" gradientUnits="userSpaceOnUse">
<stop stop-color="#331721"/>
<stop offset="1" stop-color="#FBFCEE"/>
</linearGradient>
<linearGradient id="paint30_linear_753_1492" x1="600.684" y1="540.875" x2="601.536" y2="597.18" gradientUnits="userSpaceOnUse">
<stop stop-color="#331721"/>
<stop offset="1" stop-color="#FBFCEE"/>
</linearGradient>
<linearGradient id="paint31_linear_753_1492" x1="650.066" y1="561.14" x2="679.035" y2="561.14" gradientUnits="userSpaceOnUse">
<stop stop-color="#331721"/>
<stop offset="1" stop-color="#FBFCEE"/>
</linearGradient>
<linearGradient id="paint32_linear_753_1492" x1="683.302" y1="584.603" x2="771.416" y2="584.603" gradientUnits="userSpaceOnUse">
<stop stop-color="#331721"/>
<stop offset="1" stop-color="#FBFCEE"/>
</linearGradient>
</defs>
</svg>
