<svg width="747" height="683" viewBox="0 0 747 683" fill="none" xmlns="http://www.w3.org/2000/svg">
<path d="M270.621 461.909C272.979 455.695 278.933 451.585 285.58 451.585H443.072C449.551 451.585 455.39 455.492 457.862 461.481L539.848 660.131C544.195 670.664 536.453 682.235 525.058 682.235H210.211C199.013 682.235 191.279 671.029 195.251 660.56L270.621 461.909Z" fill="url(#paint0_linear_1309_16279)"/>
<path d="M368 90.291C561.29 90.291 717.982 203.631 717.982 343.443C717.982 414.868 694.707 481.072 628.933 527.098C565.954 571.167 462.546 596.596 368 596.596C271.183 596.596 168.088 573.053 104.728 527.098C41.5916 481.306 18.0176 413.225 18.0176 343.443C18.0176 203.631 174.71 90.291 368 90.291Z" fill="black"/>
<path d="M717.982 343.443C717.982 414.868 694.707 481.072 628.932 527.097C565.954 571.166 462.546 596.596 368 596.596C271.183 596.596 168.089 573.052 104.728 527.097C41.5917 481.305 18.0176 413.225 18.0176 343.443C18.0176 203.631 174.71 90.291 368 90.291C561.289 90.291 717.982 203.631 717.982 343.443Z" fill="black"/>
<path d="M368 91.791C464.364 91.7911 551.544 120.046 614.596 165.653C677.649 211.262 716.481 274.139 716.481 343.443C716.481 414.515 693.345 480.194 628.072 525.868C565.425 569.705 462.352 595.096 368 595.096C271.349 595.096 168.614 571.58 105.608 525.883C42.962 480.446 19.5176 412.884 19.5176 343.443C19.5176 274.139 58.3508 211.262 121.404 165.653C184.456 120.046 271.636 91.791 368 91.791Z" fill="url(#paint1_radial_1309_16279)" stroke="url(#paint2_linear_1309_16279)" stroke-width="3"/>
<mask id="path-5-inside-1_1309_16279" fill="white">
<path d="M600.229 3.57968C610.294 -3.41972 624.165 0.19858 629.244 11.356C641.074 37.3427 660.851 83.1629 673.284 124.688C687.434 171.945 698.058 225.165 703.783 256.771C704.457 260.489 703.416 263.797 701.407 266.239C712.171 290.579 717.982 316.52 717.982 343.444C717.982 414.868 694.708 481.072 628.934 527.097C565.955 571.166 462.547 596.596 368.001 596.596C271.184 596.596 168.089 573.052 104.729 527.097C41.5927 481.305 18.0187 413.226 18.0186 343.444C18.0186 316.51 23.8346 290.558 34.6064 266.21C32.6141 263.77 31.5842 260.474 32.2549 256.771C37.9802 225.165 48.6049 171.945 62.7549 124.688C75.1886 83.1628 94.9655 37.3427 106.795 11.356C111.874 0.198523 125.745 -3.41986 135.81 3.57968L273.821 99.5621C303.786 93.5206 335.372 90.2916 368.001 90.2916C400.64 90.2916 432.235 93.5228 462.208 99.568L600.229 3.57968Z"/>
</mask>
<path d="M600.229 3.57968C610.294 -3.41972 624.165 0.19858 629.244 11.356C641.074 37.3427 660.851 83.1629 673.284 124.688C687.434 171.945 698.058 225.165 703.783 256.771C704.457 260.489 703.416 263.797 701.407 266.239C712.171 290.579 717.982 316.52 717.982 343.444C717.982 414.868 694.708 481.072 628.934 527.097C565.955 571.166 462.547 596.596 368.001 596.596C271.184 596.596 168.089 573.052 104.729 527.097C41.5927 481.305 18.0187 413.226 18.0186 343.444C18.0186 316.51 23.8346 290.558 34.6064 266.21C32.6141 263.77 31.5842 260.474 32.2549 256.771C37.9802 225.165 48.6049 171.945 62.7549 124.688C75.1886 83.1628 94.9655 37.3427 106.795 11.356C111.874 0.198523 125.745 -3.41986 135.81 3.57968L273.821 99.5621C303.786 93.5206 335.372 90.2916 368.001 90.2916C400.64 90.2916 432.235 93.5228 462.208 99.568L600.229 3.57968Z" fill="url(#paint3_radial_1309_16279)"/>
<path d="M600.229 3.57968L598.517 1.11674V1.11674L600.229 3.57968ZM629.244 11.356L631.975 10.1131V10.1131L629.244 11.356ZM673.284 124.688L676.158 123.828V123.828L673.284 124.688ZM703.783 256.771L706.735 256.236V256.236L703.783 256.771ZM701.407 266.239L699.09 264.333L697.916 265.761L698.664 267.452L701.407 266.239ZM717.982 343.444H720.982V343.444H717.982ZM628.934 527.097L630.654 529.555V529.555L628.934 527.097ZM368.001 596.596V599.596V599.596V596.596ZM104.729 527.097L102.967 529.526V529.526L104.729 527.097ZM18.0186 343.444H15.0186V343.444H18.0186ZM34.6064 266.21L37.35 267.423L38.0953 265.738L36.9298 264.312L34.6064 266.21ZM32.2549 256.771L29.3029 256.236V256.236L32.2549 256.771ZM62.7549 124.688L59.881 123.828V123.828L62.7549 124.688ZM106.795 11.356L104.065 10.1131V10.1131L106.795 11.356ZM135.81 3.57968L134.097 6.0426L134.097 6.04261L135.81 3.57968ZM273.821 99.5621L272.108 102.025L273.159 102.756L274.414 102.503L273.821 99.5621ZM368.001 90.2916V87.2916V87.2916V90.2916ZM462.208 99.568L461.615 102.509L462.87 102.762L463.921 102.031L462.208 99.568ZM600.229 3.57968L601.942 6.04262C610.512 0.082723 622.232 3.19259 626.514 12.599L629.244 11.356L631.975 10.1131C626.098 -2.79543 610.076 -6.92217 598.517 1.11674L600.229 3.57968ZM629.244 11.356L626.514 12.599C638.33 38.5562 658.037 84.2256 670.41 125.549L673.284 124.688L676.158 123.828C663.664 82.1002 643.817 36.1292 631.975 10.1131L629.244 11.356ZM673.284 124.688L670.41 125.549C684.512 172.644 695.112 225.734 700.831 257.306L703.783 256.771L706.735 256.236C701.004 224.596 690.356 171.246 676.158 123.828L673.284 124.688ZM703.783 256.771L700.831 257.306C701.342 260.127 700.558 262.549 699.09 264.333L701.407 266.239L703.724 268.144C706.273 265.045 707.571 260.851 706.735 256.236L703.783 256.771ZM701.407 266.239L698.664 267.452C709.267 291.431 714.982 316.961 714.982 343.444H717.982H720.982C720.982 316.08 715.074 289.727 704.151 265.026L701.407 266.239ZM717.982 343.444H714.982C714.982 414.163 691.985 479.316 627.214 524.639L628.934 527.097L630.654 529.555C697.431 482.828 720.982 415.573 720.982 343.444H717.982ZM628.934 527.097L627.214 524.639C564.899 568.244 462.16 593.596 368.001 593.596V596.596V599.596C462.934 599.596 567.012 574.088 630.654 529.555L628.934 527.097ZM368.001 596.596V593.596C271.516 593.596 169.139 570.108 106.49 524.669L104.729 527.097L102.967 529.526C167.039 575.997 270.852 599.596 368.001 599.596V596.596ZM104.729 527.097L106.49 524.669C44.3332 479.587 21.0187 412.543 21.0186 343.444H18.0186H15.0186C15.0187 413.908 38.8522 483.024 102.967 529.526L104.729 527.097ZM18.0186 343.444H21.0186C21.0186 316.95 26.738 291.41 37.35 267.423L34.6064 266.21L31.8629 264.996C20.9313 289.705 15.0186 316.069 15.0186 343.444H18.0186ZM34.6064 266.21L36.9298 264.312C35.4741 262.53 34.6978 260.116 35.2068 257.306L32.2549 256.771L29.3029 256.236C28.4705 260.832 29.7541 265.011 32.2831 268.107L34.6064 266.21ZM32.2549 256.771L35.2068 257.306C40.9259 225.734 51.5272 172.644 65.6288 125.549L62.7549 124.688L59.881 123.828C45.6826 171.246 35.0345 224.595 29.3029 256.236L32.2549 256.771ZM62.7549 124.688L65.6288 125.549C78.002 84.2255 97.7093 38.5562 109.525 12.599L106.795 11.356L104.065 10.1131C92.2217 36.1292 72.3752 82.1001 59.881 123.828L62.7549 124.688ZM106.795 11.356L109.525 12.599C113.807 3.19251 125.527 0.0826079 134.097 6.0426L135.81 3.57968L137.522 1.11676C125.963 -6.92234 109.941 -2.79546 104.065 10.1131L106.795 11.356ZM135.81 3.57968L134.097 6.04261L272.108 102.025L273.821 99.5621L275.534 97.0992L137.522 1.11675L135.81 3.57968ZM273.821 99.5621L274.414 102.503C304.182 96.5011 335.57 93.2916 368.001 93.2916V90.2916V87.2916C335.175 87.2916 303.39 90.5401 273.228 96.6213L273.821 99.5621ZM368.001 90.2916V93.2916C400.442 93.2916 431.838 96.5033 461.615 102.509L462.208 99.568L462.801 96.6272C432.631 90.5423 400.837 87.2916 368.001 87.2916V90.2916ZM462.208 99.568L463.921 102.031L601.942 6.04262L600.229 3.57968L598.517 1.11674L460.495 97.105L462.208 99.568Z" fill="url(#paint4_linear_1309_16279)" mask="url(#path-5-inside-1_1309_16279)"/>
<path d="M594.103 42.3314C603.949 33.5023 619.4 36.5136 624.836 48.5697C635.312 71.8043 650.831 108.565 660.795 142.831C671.076 178.188 679.124 217.842 684.337 246.719C648.745 190.47 585.503 145.287 507.189 120.27L594.103 42.3314Z" fill="url(#paint5_linear_1309_16279)"/>
<path d="M146.497 37.6275C136.651 28.7981 121.2 31.8095 115.764 43.8658C105.288 67.1005 89.769 103.861 79.8047 138.128C69.5231 173.485 61.4758 213.138 56.2627 242.015C91.8542 185.766 155.096 140.584 233.41 115.566L146.497 37.6275Z" fill="url(#paint6_linear_1309_16279)"/>
<ellipse cx="535.823" cy="324.698" rx="146.578" ry="173.294" transform="rotate(-27.7101 535.823 324.698)" fill="url(#paint7_linear_1309_16279)"/>
<ellipse cx="535.823" cy="324.698" rx="146.578" ry="173.294" transform="rotate(-27.7101 535.823 324.698)" fill="url(#paint8_linear_1309_16279)" fill-opacity="0.2"/>
<path d="M666.919 255.842C666.033 256.307 665.148 256.772 664.263 257.237C671.903 272.069 677.739 287.767 681.51 303.956C697.446 367.692 675.563 445.023 615.242 475.904C615.242 475.904 615.242 475.904 615.242 475.904C539.192 516.362 444.139 465.635 407.163 392.275C366.63 321.013 376.983 212.045 455.242 171.278C455.242 171.278 455.242 171.278 455.242 171.278C516.258 138.433 593.513 165.693 636.255 215.919C647.297 228.448 656.683 242.373 664.263 257.237C665.148 256.772 666.033 256.307 666.919 255.842C658.872 240.951 649.073 227.073 637.683 214.636C593.492 164.802 516.188 138.494 455.242 171.278C455.242 171.278 455.242 171.278 455.242 171.278C377.157 211.872 365.09 320.544 404.949 393.437C441.034 468.083 537.897 522.419 617.567 480.331C617.567 480.331 617.567 480.331 617.567 480.331C680.501 448.044 702.236 367.719 685.127 303.089C681.074 286.64 674.907 270.763 666.919 255.842ZM664.263 257.237L666.919 255.842L664.263 257.237Z" fill="url(#paint9_linear_1309_16279)"/>
<ellipse cx="533.056" cy="315.904" rx="128.489" ry="151.908" transform="rotate(-27.7101 533.056 315.904)" fill="url(#paint10_linear_1309_16279)"/>
<ellipse cx="146.578" cy="173.294" rx="146.578" ry="173.294" transform="matrix(-0.885312 -0.464997 -0.464997 0.885312 420.697 239.437)" fill="url(#paint11_linear_1309_16279)"/>
<ellipse cx="146.578" cy="173.294" rx="146.578" ry="173.294" transform="matrix(-0.885312 -0.464997 -0.464997 0.885312 420.697 239.437)" fill="url(#paint12_linear_1309_16279)" fill-opacity="0.2"/>
<path d="M79.2532 255.842C80.1385 256.307 81.0238 256.772 81.9092 257.237C74.2685 272.069 68.4333 287.767 64.6619 303.956C48.7262 367.692 70.6089 445.023 130.93 475.904C130.93 475.904 130.93 475.904 130.93 475.904C206.98 516.362 302.033 465.635 339.009 392.275C379.542 321.013 369.189 212.045 290.93 171.278C290.93 171.278 290.93 171.278 290.93 171.278C229.914 138.433 152.659 165.693 109.917 215.919C98.8747 228.448 89.4892 242.373 81.9092 257.237C81.0238 256.772 80.1385 256.307 79.2532 255.842C87.2995 240.951 97.0989 227.073 108.488 214.636C152.68 164.802 229.984 138.494 290.93 171.278C290.93 171.278 290.93 171.278 290.93 171.278C369.015 211.872 381.082 320.544 341.222 393.437C305.138 468.083 208.275 522.419 128.605 480.331C128.605 480.331 128.605 480.331 128.605 480.331C65.6706 448.044 43.9361 367.719 61.0444 303.089C65.0975 286.64 71.2645 270.763 79.2532 255.842ZM81.9092 257.237L79.2532 255.842L81.9092 257.237Z" fill="url(#paint13_linear_1309_16279)"/>
<ellipse cx="128.489" cy="151.908" rx="128.489" ry="151.908" transform="matrix(-0.885312 -0.464997 -0.464997 0.885312 401.539 240.725)" fill="url(#paint14_linear_1309_16279)"/>
<g filter="url(#filter2_f_1309_16279)">
<ellipse cx="583.276" cy="269.856" rx="46.9133" ry="62.7975" transform="rotate(-39.3254 583.276 269.856)" fill="#FE71A5"/>
</g>
<g filter="url(#filter3_f_1309_16279)">
<ellipse cx="470.939" cy="339.785" rx="20.875" ry="27.943" transform="rotate(-30.8867 470.939 339.785)" fill="#FE71A5"/>
</g>
<g filter="url(#filter4_f_1309_16279)">
<ellipse cx="46.9133" cy="62.7975" rx="46.9133" ry="62.7975" transform="matrix(-0.77356 -0.633724 -0.633724 0.77356 244.385 251.009)" fill="#FE71A5"/>
</g>
<g filter="url(#filter5_f_1309_16279)">
<ellipse cx="20.875" cy="27.943" rx="20.875" ry="27.943" transform="matrix(-0.858184 -0.513342 -0.513342 0.858184 317.189 322.344)" fill="#FE71A5"/>
</g>
<ellipse cx="470.938" cy="340.466" rx="20.8726" ry="27.1511" transform="rotate(-30.8867 470.938 340.466)" fill="white"/>
<ellipse cx="46.1177" cy="61.7325" rx="46.1177" ry="61.7325" transform="matrix(-0.77356 -0.633724 -0.633724 0.77356 243.77 250.505)" fill="white"/>
<ellipse cx="583.277" cy="269.033" rx="46.1177" ry="61.7325" transform="rotate(-39.3254 583.277 269.033)" fill="white"/>
<ellipse cx="20.875" cy="27.1543" rx="20.875" ry="27.1543" transform="matrix(-0.858184 -0.513342 -0.513342 0.858184 317.189 323.021)" fill="white"/>
<g filter="url(#filter6_f_1309_16279)">
<path d="M179.739 380.341L180.738 396.181L193.413 405.734L177.573 406.733L168.02 419.409L167.021 403.568L154.346 394.015L170.186 393.016L179.739 380.341Z" fill="#FFE3ED" fill-opacity="0.5"/>
</g>
<g filter="url(#filter7_f_1309_16279)">
<path d="M153.782 366.542L154.308 374.884L160.983 379.915L152.641 380.442L147.61 387.117L147.084 378.775L140.408 373.744L148.751 373.217L153.782 366.542Z" fill="#FFE3ED" fill-opacity="0.5"/>
</g>
<g filter="url(#filter8_f_1309_16279)">
<path d="M591.443 366.542L590.917 374.884L584.241 379.915L592.584 380.442L597.615 387.117L598.141 378.775L604.816 373.744L596.474 373.217L591.443 366.542Z" fill="#FFE3ED" fill-opacity="0.5"/>
</g>
<g filter="url(#filter9_f_1309_16279)">
<path d="M570.478 380.341L569.479 396.181L556.803 405.734L572.644 406.733L582.197 419.409L583.196 403.568L595.871 394.015L580.031 393.016L570.478 380.341Z" fill="#FFE3ED" fill-opacity="0.5"/>
</g>
<ellipse cx="235.126" cy="605.393" rx="61.2471" ry="38.1592" fill="#D9D9D9"/>
<ellipse cx="235.126" cy="605.393" rx="61.2471" ry="38.1592" fill="url(#paint15_linear_1309_16279)"/>
<ellipse cx="235.126" cy="605.393" rx="61.2471" ry="38.1592" fill="url(#paint16_linear_1309_16279)"/>
<ellipse cx="500.335" cy="605.393" rx="61.2471" ry="38.1592" fill="#D9D9D9"/>
<ellipse cx="500.335" cy="605.393" rx="61.2471" ry="38.1592" fill="url(#paint17_linear_1309_16279)"/>
<rect x="348.666" y="425.268" width="48.6982" height="119.245" fill="#FE8DB7"/>
<defs>
<filter id="filter2_f_1309_16279" x="521.417" y="204.895" width="123.718" height="129.923" filterUnits="userSpaceOnUse" color-interpolation-filters="sRGB">
<feFlood flood-opacity="0" result="BackgroundImageFix"/>
<feBlend mode="normal" in="SourceGraphic" in2="BackgroundImageFix" result="shape"/>
<feGaussianBlur stdDeviation="4" result="effect1_foregroundBlur_1309_16279"/>
</filter>
<filter id="filter3_f_1309_16279" x="439.988" y="305.512" width="61.9014" height="68.5447" filterUnits="userSpaceOnUse" color-interpolation-filters="sRGB">
<feFlood flood-opacity="0" result="BackgroundImageFix"/>
<feBlend mode="normal" in="SourceGraphic" in2="BackgroundImageFix" result="shape"/>
<feGaussianBlur stdDeviation="4" result="effect1_foregroundBlur_1309_16279"/>
</filter>
<filter id="filter4_f_1309_16279" x="106.439" y="204.895" width="123.718" height="129.923" filterUnits="userSpaceOnUse" color-interpolation-filters="sRGB">
<feFlood flood-opacity="0" result="BackgroundImageFix"/>
<feBlend mode="normal" in="SourceGraphic" in2="BackgroundImageFix" result="shape"/>
<feGaussianBlur stdDeviation="4" result="effect1_foregroundBlur_1309_16279"/>
</filter>
<filter id="filter5_f_1309_16279" x="253.979" y="301.336" width="61.9014" height="68.5447" filterUnits="userSpaceOnUse" color-interpolation-filters="sRGB">
<feFlood flood-opacity="0" result="BackgroundImageFix"/>
<feBlend mode="normal" in="SourceGraphic" in2="BackgroundImageFix" result="shape"/>
<feGaussianBlur stdDeviation="4" result="effect1_foregroundBlur_1309_16279"/>
</filter>
<filter id="filter6_f_1309_16279" x="150.346" y="376.341" width="47.0674" height="47.0679" filterUnits="userSpaceOnUse" color-interpolation-filters="sRGB">
<feFlood flood-opacity="0" result="BackgroundImageFix"/>
<feBlend mode="normal" in="SourceGraphic" in2="BackgroundImageFix" result="shape"/>
<feGaussianBlur stdDeviation="2" result="effect1_foregroundBlur_1309_16279"/>
</filter>
<filter id="filter7_f_1309_16279" x="136.408" y="362.542" width="28.5752" height="28.5752" filterUnits="userSpaceOnUse" color-interpolation-filters="sRGB">
<feFlood flood-opacity="0" result="BackgroundImageFix"/>
<feBlend mode="normal" in="SourceGraphic" in2="BackgroundImageFix" result="shape"/>
<feGaussianBlur stdDeviation="2" result="effect1_foregroundBlur_1309_16279"/>
</filter>
<filter id="filter8_f_1309_16279" x="580.241" y="362.542" width="28.5752" height="28.5752" filterUnits="userSpaceOnUse" color-interpolation-filters="sRGB">
<feFlood flood-opacity="0" result="BackgroundImageFix"/>
<feBlend mode="normal" in="SourceGraphic" in2="BackgroundImageFix" result="shape"/>
<feGaussianBlur stdDeviation="2" result="effect1_foregroundBlur_1309_16279"/>
</filter>
<filter id="filter9_f_1309_16279" x="552.804" y="376.341" width="47.0674" height="47.0679" filterUnits="userSpaceOnUse" color-interpolation-filters="sRGB">
<feFlood flood-opacity="0" result="BackgroundImageFix"/>
<feBlend mode="normal" in="SourceGraphic" in2="BackgroundImageFix" result="shape"/>
<feGaussianBlur stdDeviation="2" result="effect1_foregroundBlur_1309_16279"/>
</filter>
<linearGradient id="paint0_linear_1309_16279" x1="367.999" y1="559.496" x2="377.108" y2="925.974" gradientUnits="userSpaceOnUse">
<stop/>
<stop offset="1" stop-color="#FBFCEE"/>
</linearGradient>
<radialGradient id="paint1_radial_1309_16279" cx="0" cy="0" r="1" gradientUnits="userSpaceOnUse" gradientTransform="translate(368 90.291) rotate(90) scale(555.795 542.189)">
<stop/>
<stop offset="0.817936"/>
<stop offset="1" stop-color="#FBFCEE"/>
</radialGradient>
<linearGradient id="paint2_linear_1309_16279" x1="368" y1="90.291" x2="368" y2="596.596" gradientUnits="userSpaceOnUse">
<stop/>
<stop offset="1" stop-color="#FBFCEE"/>
</linearGradient>
<radialGradient id="paint3_radial_1309_16279" cx="0" cy="0" r="1" gradientUnits="userSpaceOnUse" gradientTransform="translate(368.001 90.2911) rotate(90) scale(555.796 542.189)">
<stop/>
<stop offset="0.817936"/>
<stop offset="1" stop-color="#FBFCEE"/>
</radialGradient>
<linearGradient id="paint4_linear_1309_16279" x1="368" y1="0" x2="368" y2="596.596" gradientUnits="userSpaceOnUse">
<stop/>
<stop offset="1" stop-color="#FBFCEE"/>
</linearGradient>
<linearGradient id="paint5_linear_1309_16279" x1="723.596" y1="281.831" x2="466.468" y2="42.9229" gradientUnits="userSpaceOnUse">
<stop stop-color="#FBFCEE"/>
<stop offset="0.5" stop-color="#E56695"/>
<stop offset="1" stop-color="#CB5A84"/>
</linearGradient>
<linearGradient id="paint6_linear_1309_16279" x1="17.0034" y1="277.127" x2="274.132" y2="38.2188" gradientUnits="userSpaceOnUse">
<stop stop-color="#FBFCEE"/>
<stop offset="0.5" stop-color="#E56695"/>
<stop offset="1" stop-color="#CB5A84"/>
</linearGradient>
<linearGradient id="paint7_linear_1309_16279" x1="535.823" y1="151.403" x2="535.823" y2="497.992" gradientUnits="userSpaceOnUse">
<stop stop-color="#FFF5FD"/>
<stop offset="1" stop-color="#EAE9EA"/>
</linearGradient>
<linearGradient id="paint8_linear_1309_16279" x1="535.823" y1="151.403" x2="535.823" y2="497.992" gradientUnits="userSpaceOnUse">
<stop stop-color="white"/>
<stop offset="1" stop-color="#EAE9EA"/>
</linearGradient>
<linearGradient id="paint9_linear_1309_16279" x1="455.242" y1="171.278" x2="616.405" y2="478.117" gradientUnits="userSpaceOnUse">
<stop/>
<stop offset="1" stop-color="#FBFCEE"/>
</linearGradient>
<linearGradient id="paint10_linear_1309_16279" x1="527.101" y1="230.535" x2="533.056" y2="467.813" gradientUnits="userSpaceOnUse">
<stop stop-color="#1E1D1E"/>
<stop offset="1" stop-color="#662D42"/>
</linearGradient>
<linearGradient id="paint11_linear_1309_16279" x1="146.578" y1="0" x2="146.578" y2="346.589" gradientUnits="userSpaceOnUse">
<stop stop-color="#FFF5FD"/>
<stop offset="1" stop-color="#EAE9EA"/>
</linearGradient>
<linearGradient id="paint12_linear_1309_16279" x1="146.578" y1="0" x2="146.578" y2="346.589" gradientUnits="userSpaceOnUse">
<stop stop-color="white"/>
<stop offset="1" stop-color="#EAE9EA"/>
</linearGradient>
<linearGradient id="paint13_linear_1309_16279" x1="290.93" y1="171.278" x2="129.767" y2="478.117" gradientUnits="userSpaceOnUse">
<stop/>
<stop offset="1" stop-color="#FBFCEE"/>
</linearGradient>
<linearGradient id="paint14_linear_1309_16279" x1="122.534" y1="66.5394" x2="128.489" y2="303.817" gradientUnits="userSpaceOnUse">
<stop stop-color="#1E1D1E"/>
<stop offset="1" stop-color="#662D42"/>
</linearGradient>
<linearGradient id="paint15_linear_1309_16279" x1="235.126" y1="599.457" x2="235.126" y2="669.934" gradientUnits="userSpaceOnUse">
<stop/>
<stop offset="1" stop-color="#FBFCEE"/>
</linearGradient>
<linearGradient id="paint16_linear_1309_16279" x1="235.126" y1="599.457" x2="235.126" y2="715.671" gradientUnits="userSpaceOnUse">
<stop/>
<stop offset="1" stop-color="#FBFCEE"/>
</linearGradient>
<linearGradient id="paint17_linear_1309_16279" x1="500.335" y1="599.457" x2="500.335" y2="715.671" gradientUnits="userSpaceOnUse">
<stop/>
<stop offset="1" stop-color="#FBFCEE"/>
</linearGradient>
</defs>
</svg>
