<svg width="747" height="683" viewBox="0 0 747 683" fill="none" xmlns="http://www.w3.org/2000/svg">
<path d="M270.623 461.911C272.981 455.696 278.935 451.586 285.582 451.586H443.074C449.553 451.586 455.392 455.494 457.864 461.482L539.85 660.133C544.197 670.665 536.454 682.237 525.06 682.237H210.213C199.015 682.237 191.281 671.03 195.253 660.561L270.623 461.911Z" fill="url(#paint0_linear_753_1442)"/>
<path d="M368.001 90.2915C561.291 90.2915 717.983 203.632 717.983 343.444C717.983 414.868 694.708 481.072 628.934 527.098C565.955 571.167 462.547 596.596 368.001 596.596C271.184 596.596 168.089 573.053 104.729 527.098C41.5925 481.306 18.0186 413.226 18.0186 343.444C18.0186 203.632 174.711 90.2915 368.001 90.2915Z" fill="black"/>
<path d="M717.983 343.444C717.983 414.868 694.708 481.072 628.933 527.098C565.955 571.167 462.547 596.596 368.001 596.596C271.184 596.596 168.089 573.053 104.729 527.098C41.5926 481.306 18.0186 413.226 18.0186 343.444C18.0186 203.632 174.711 90.2915 368.001 90.2915C561.29 90.2915 717.983 203.632 717.983 343.444Z" fill="black"/>
<path d="M368.001 91.7915C464.365 91.7916 551.545 120.047 614.597 165.654C677.65 211.262 716.482 274.14 716.482 343.444C716.482 414.516 693.346 480.194 628.073 525.869C565.426 569.705 462.353 595.096 368.001 595.096C271.35 595.096 168.615 571.58 105.609 525.883C42.963 480.446 19.5186 412.885 19.5186 343.444C19.5186 274.14 58.3518 211.262 121.405 165.654C184.457 120.047 271.637 91.7915 368.001 91.7915Z" fill="url(#paint1_radial_753_1442)" stroke="url(#paint2_linear_753_1442)" stroke-width="3"/>
<mask id="path-5-inside-1_753_1442" fill="white">
<path d="M600.229 3.57951C610.294 -3.41958 624.165 0.198718 629.244 11.3559C641.074 37.3425 660.85 83.1627 673.284 124.688C687.434 171.945 698.058 225.165 703.783 256.772C704.457 260.49 703.416 263.798 701.407 266.24C712.171 290.579 717.982 316.52 717.982 343.444C717.982 414.868 694.708 481.072 628.934 527.098C565.955 571.167 462.547 596.596 368.001 596.596C271.184 596.596 168.089 573.053 104.729 527.098C41.5924 481.306 18.0186 413.226 18.0186 343.444C18.0186 316.51 23.8347 290.559 34.6064 266.21C32.614 263.771 31.5842 260.475 32.2549 256.772C37.9802 225.165 48.6048 171.945 62.7549 124.688C75.1886 83.1627 94.9655 37.3424 106.795 11.3559C111.874 0.198741 125.745 -3.41985 135.81 3.57951L273.822 99.5629C303.787 93.5215 335.373 90.2914 368.001 90.2914C400.639 90.2915 432.234 93.5237 462.207 99.5688L600.229 3.57951Z"/>
</mask>
<path d="M600.229 3.57951C610.294 -3.41958 624.165 0.198718 629.244 11.3559C641.074 37.3425 660.85 83.1627 673.284 124.688C687.434 171.945 698.058 225.165 703.783 256.772C704.457 260.49 703.416 263.798 701.407 266.24C712.171 290.579 717.982 316.52 717.982 343.444C717.982 414.868 694.708 481.072 628.934 527.098C565.955 571.167 462.547 596.596 368.001 596.596C271.184 596.596 168.089 573.053 104.729 527.098C41.5924 481.306 18.0186 413.226 18.0186 343.444C18.0186 316.51 23.8347 290.559 34.6064 266.21C32.614 263.771 31.5842 260.475 32.2549 256.772C37.9802 225.165 48.6048 171.945 62.7549 124.688C75.1886 83.1627 94.9655 37.3424 106.795 11.3559C111.874 0.198741 125.745 -3.41985 135.81 3.57951L273.822 99.5629C303.787 93.5215 335.373 90.2914 368.001 90.2914C400.639 90.2915 432.234 93.5237 462.207 99.5688L600.229 3.57951Z" fill="url(#paint3_radial_753_1442)"/>
<path d="M600.229 3.57951L598.517 1.11654L598.517 1.11657L600.229 3.57951ZM629.244 11.3559L631.975 10.113V10.1129L629.244 11.3559ZM673.284 124.688L676.158 123.827V123.827L673.284 124.688ZM703.783 256.772L706.735 256.237V256.237L703.783 256.772ZM701.407 266.24L699.09 264.334L697.916 265.762L698.664 267.453L701.407 266.24ZM717.982 343.444H720.982V343.444H717.982ZM628.934 527.098L630.654 529.556V529.556L628.934 527.098ZM368.001 596.596V599.596V599.596V596.596ZM104.729 527.098L102.967 529.527V529.527L104.729 527.098ZM18.0186 343.444H15.0186V343.444H18.0186ZM34.6064 266.21L37.35 267.424L38.0953 265.739L36.9298 264.312L34.6064 266.21ZM32.2549 256.772L29.3029 256.237L29.3029 256.237L32.2549 256.772ZM62.7549 124.688L59.881 123.827V123.827L62.7549 124.688ZM106.795 11.3559L104.065 10.1129L104.065 10.113L106.795 11.3559ZM135.81 3.57951L137.522 1.11658L137.522 1.11657L135.81 3.57951ZM273.822 99.5629L272.109 102.026L273.16 102.757L274.415 102.504L273.822 99.5629ZM368.001 90.2914V87.2914V87.2914V90.2914ZM462.207 99.5688L461.614 102.51L462.869 102.763L463.92 102.032L462.207 99.5688ZM600.229 3.57951L601.942 6.04247C610.512 0.0828389 622.232 3.19273 626.514 12.5988L629.244 11.3559L631.975 10.1129C626.098 -2.79529 610.076 -6.92201 598.517 1.11654L600.229 3.57951ZM629.244 11.3559L626.514 12.5988C638.33 38.556 658.037 84.2254 670.41 125.548L673.284 124.688L676.158 123.827C663.664 82.0999 643.817 36.129 631.975 10.113L629.244 11.3559ZM673.284 124.688L670.41 125.548C684.512 172.644 695.112 225.735 700.831 257.307L703.783 256.772L706.735 256.237C701.004 224.596 690.357 171.246 676.158 123.827L673.284 124.688ZM703.783 256.772L700.831 257.307C701.342 260.128 700.558 262.549 699.09 264.334L701.407 266.24L703.724 268.145C706.273 265.046 707.571 260.852 706.735 256.237L703.783 256.772ZM701.407 266.24L698.664 267.453C709.267 291.432 714.982 316.961 714.982 343.444H717.982H720.982C720.982 316.08 715.074 289.727 704.151 265.026L701.407 266.24ZM717.982 343.444H714.982C714.982 414.163 691.985 479.316 627.214 524.64L628.934 527.098L630.654 529.556C697.432 482.828 720.982 415.573 720.982 343.444H717.982ZM628.934 527.098L627.214 524.64C564.899 568.245 462.16 593.596 368.001 593.596V596.596V599.596C462.934 599.596 567.012 574.089 630.654 529.556L628.934 527.098ZM368.001 596.596V593.596C271.516 593.596 169.139 570.109 106.49 524.67L104.729 527.098L102.967 529.527C167.039 575.997 270.853 599.596 368.001 599.596V596.596ZM104.729 527.098L106.49 524.67C44.333 479.588 21.0186 412.543 21.0186 343.444H18.0186H15.0186C15.0186 413.908 38.8519 483.024 102.967 529.527L104.729 527.098ZM18.0186 343.444H21.0186C21.0186 316.95 26.7381 291.411 37.35 267.424L34.6064 266.21L31.8629 264.997C20.9314 289.706 15.0186 316.069 15.0186 343.444H18.0186ZM34.6064 266.21L36.9298 264.312C35.474 262.53 34.6978 260.117 35.2068 257.307L32.2549 256.772L29.3029 256.237C28.4706 260.832 29.7539 265.012 32.2831 268.108L34.6064 266.21ZM32.2549 256.772L35.2068 257.307C40.9259 225.735 51.5271 172.644 65.6288 125.548L62.7549 124.688L59.881 123.827C45.6825 171.246 35.0345 224.596 29.3029 256.237L32.2549 256.772ZM62.7549 124.688L65.6288 125.548C78.002 84.2254 97.7093 38.556 109.525 12.5988L106.795 11.3559L104.065 10.113C92.2217 36.1289 72.3752 82.1 59.881 123.827L62.7549 124.688ZM106.795 11.3559L109.525 12.5989C113.807 3.19266 125.527 0.0826493 134.097 6.04244L135.81 3.57951L137.522 1.11657C125.963 -6.92236 109.941 -2.79518 104.065 10.1129L106.795 11.3559ZM135.81 3.57951L134.097 6.04243L272.109 102.026L273.822 99.5629L275.535 97.1L137.522 1.11658L135.81 3.57951ZM273.822 99.5629L274.415 102.504C304.183 96.502 335.57 93.2914 368.001 93.2914V90.2914V87.2914C335.175 87.2914 303.391 90.541 273.229 96.6221L273.822 99.5629ZM368.001 90.2914V93.2914C400.442 93.2915 431.838 96.5042 461.614 102.51L462.207 99.5688L462.8 96.628C432.63 90.5432 400.837 87.2915 368.001 87.2914V90.2914ZM462.207 99.5688L463.92 102.032L601.942 6.04244L600.229 3.57951L598.517 1.11657L460.494 97.1058L462.207 99.5688Z" fill="url(#paint4_linear_753_1442)" mask="url(#path-5-inside-1_753_1442)"/>
<path d="M594.104 42.3324C603.951 33.5029 619.402 36.5143 624.838 48.5706C635.314 71.8053 650.833 108.566 660.797 142.832C671.078 178.19 679.126 217.843 684.339 246.72C648.747 190.471 585.505 145.288 507.191 120.271L594.104 42.3324Z" fill="url(#paint5_linear_753_1442)"/>
<path d="M146.499 37.6273C136.653 28.7982 121.202 31.8095 115.766 43.8656C105.29 67.1002 89.771 103.861 79.8066 138.127C69.5251 173.484 61.4778 213.138 56.2646 242.015C91.8562 185.766 155.098 140.583 233.412 115.566L146.499 37.6273Z" fill="url(#paint6_linear_753_1442)"/>
<ellipse cx="535.825" cy="324.698" rx="146.578" ry="173.294" transform="rotate(-27.7101 535.825 324.698)" fill="url(#paint7_linear_753_1442)"/>
<ellipse cx="535.825" cy="324.698" rx="146.578" ry="173.294" transform="rotate(-27.7101 535.825 324.698)" fill="url(#paint8_linear_753_1442)" fill-opacity="0.2"/>
<path d="M666.921 255.842C666.035 256.307 665.15 256.772 664.265 257.237C671.905 272.069 677.741 287.767 681.512 303.957C697.448 367.692 675.565 445.024 615.244 475.904C615.244 475.904 615.244 475.904 615.244 475.904C539.194 516.362 444.141 465.636 407.165 392.275C366.632 321.013 376.985 212.046 455.244 171.279C455.244 171.279 455.244 171.279 455.244 171.279C516.26 138.433 593.515 165.693 636.257 215.92C647.299 228.449 656.685 242.373 664.265 257.237C665.15 256.772 666.035 256.307 666.921 255.842C658.874 240.951 649.075 227.074 637.685 214.636C593.494 164.802 516.189 138.495 455.244 171.279C455.244 171.279 455.244 171.279 455.244 171.279C377.159 211.873 365.092 320.545 404.951 393.438C441.036 468.084 537.899 522.419 617.569 480.331C617.569 480.331 617.569 480.331 617.569 480.331C680.503 448.044 702.238 367.719 685.129 303.089C681.076 286.64 674.909 270.763 666.921 255.842ZM664.265 257.237L666.921 255.842L664.265 257.237Z" fill="url(#paint9_linear_753_1442)"/>
<ellipse cx="533.058" cy="315.905" rx="128.489" ry="151.908" transform="rotate(-27.7101 533.058 315.905)" fill="url(#paint10_linear_753_1442)"/>
<ellipse cx="146.578" cy="173.294" rx="146.578" ry="173.294" transform="matrix(-0.885312 -0.464997 -0.464997 0.885312 420.697 239.437)" fill="url(#paint11_linear_753_1442)"/>
<ellipse cx="146.578" cy="173.294" rx="146.578" ry="173.294" transform="matrix(-0.885312 -0.464997 -0.464997 0.885312 420.697 239.437)" fill="url(#paint12_linear_753_1442)" fill-opacity="0.2"/>
<path d="M79.2532 255.842C80.1385 256.307 81.0238 256.772 81.9092 257.237C74.2685 272.069 68.4333 287.767 64.6619 303.957C48.7262 367.692 70.6089 445.024 130.93 475.904C130.93 475.904 130.93 475.904 130.93 475.904C206.98 516.362 302.033 465.636 339.009 392.275C379.542 321.013 369.189 212.046 290.93 171.279C290.93 171.279 290.93 171.279 290.93 171.279C229.914 138.433 152.659 165.693 109.917 215.92C98.8747 228.449 89.4892 242.373 81.9092 257.237C81.0238 256.772 80.1385 256.307 79.2532 255.842C87.2995 240.951 97.0989 227.074 108.488 214.636C152.68 164.802 229.984 138.495 290.93 171.279C290.93 171.279 290.93 171.279 290.93 171.279C369.015 211.873 381.082 320.545 341.222 393.438C305.138 468.084 208.275 522.419 128.605 480.331C128.605 480.331 128.605 480.331 128.605 480.331C65.6706 448.044 43.9361 367.719 61.0444 303.089C65.0975 286.64 71.2645 270.763 79.2532 255.842ZM81.9092 257.237L79.2532 255.842L81.9092 257.237Z" fill="url(#paint13_linear_753_1442)"/>
<ellipse cx="128.489" cy="151.908" rx="128.489" ry="151.908" transform="matrix(-0.885312 -0.464997 -0.464997 0.885312 401.541 240.725)" fill="url(#paint14_linear_753_1442)"/>
<g filter="url(#filter2_f_753_1442)">
<ellipse cx="583.278" cy="269.857" rx="46.9133" ry="62.7975" transform="rotate(-39.3254 583.278 269.857)" fill="#FE71A5"/>
</g>
<g filter="url(#filter3_f_753_1442)">
<ellipse cx="470.941" cy="339.784" rx="20.875" ry="27.943" transform="rotate(-30.8867 470.941 339.784)" fill="#FE71A5"/>
</g>
<g filter="url(#filter4_f_753_1442)">
<ellipse cx="46.9133" cy="62.7975" rx="46.9133" ry="62.7975" transform="matrix(-0.77356 -0.633724 -0.633724 0.77356 244.387 251.009)" fill="#FE71A5"/>
</g>
<g filter="url(#filter5_f_753_1442)">
<ellipse cx="20.875" cy="27.943" rx="20.875" ry="27.943" transform="matrix(-0.858184 -0.513342 -0.513342 0.858184 317.189 322.344)" fill="#FE71A5"/>
</g>
<ellipse cx="470.94" cy="340.465" rx="20.8726" ry="27.1511" transform="rotate(-30.8867 470.94 340.465)" fill="white"/>
<ellipse cx="46.1177" cy="61.7325" rx="46.1177" ry="61.7325" transform="matrix(-0.77356 -0.633724 -0.633724 0.77356 243.771 250.505)" fill="white"/>
<ellipse cx="583.279" cy="269.033" rx="46.1177" ry="61.7325" transform="rotate(-39.3254 583.279 269.033)" fill="white"/>
<ellipse cx="20.875" cy="27.1543" rx="20.875" ry="27.1543" transform="matrix(-0.858184 -0.513342 -0.513342 0.858184 317.189 323.02)" fill="white"/>
<g filter="url(#filter6_f_753_1442)">
<path d="M179.741 380.34L180.74 396.181L193.415 405.734L177.575 406.733L168.022 419.408L167.023 403.568L154.348 394.015L170.188 393.016L179.741 380.34Z" fill="#FFE3ED" fill-opacity="0.5"/>
</g>
<g filter="url(#filter7_f_753_1442)">
<path d="M153.784 366.543L154.31 374.886L160.985 379.917L152.643 380.443L147.612 387.118L147.086 378.776L140.41 373.745L148.753 373.219L153.784 366.543Z" fill="#FFE3ED" fill-opacity="0.5"/>
</g>
<g filter="url(#filter8_f_753_1442)">
<path d="M591.449 366.543L590.923 374.886L584.247 379.917L592.59 380.443L597.621 387.118L598.147 378.776L604.822 373.745L596.48 373.219L591.449 366.543Z" fill="#FFE3ED" fill-opacity="0.5"/>
</g>
<g filter="url(#filter9_f_753_1442)">
<path d="M570.484 380.34L569.485 396.181L556.809 405.734L572.65 406.733L582.203 419.408L583.202 403.568L595.877 394.015L580.036 393.016L570.484 380.34Z" fill="#FFE3ED" fill-opacity="0.5"/>
</g>
<path d="M393.111 596.715C399.981 596.084 405.078 597.981 408.043 601.957C410.776 605.622 410.879 610.008 410.327 612.805L410.299 612.954L410.26 613.099C408.21 620.833 401.683 624.966 395.719 627.089C390.153 629.07 384.148 629.668 379.896 629.63C380.102 630.006 380.335 630.381 380.598 630.745C382.004 632.691 384.354 634.533 388.53 634.986L388.591 634.993L388.65 635.001C390.912 635.305 394.51 635.153 397.625 633.8C400.519 632.543 402.966 630.305 403.823 626.021L408.411 626.938L412.999 627.856C411.45 635.602 406.601 640.103 401.353 642.382C396.381 644.542 391.054 644.743 387.521 644.288C380.603 643.537 375.907 640.229 373.014 636.224C371.454 634.065 370.451 631.755 369.857 629.612H367.625C368 627.87 368.184 626.321 368.215 625.105V625.103C368.257 623.411 368.173 621.796 367.983 620.255H369.395C370.329 613.176 373.717 607.857 377.867 604.106C382.762 599.683 388.646 597.475 392.74 596.764L392.925 596.732L393.111 596.715ZM400.542 607.549C400.126 606.992 398.766 605.635 394.17 606.015C391.518 606.51 387.448 608.059 384.141 611.047C381.73 613.226 379.688 616.189 378.873 620.255H379.088L379.173 620.258C382.586 620.382 387.917 619.934 392.581 618.274C397.255 616.61 400.232 614.138 401.172 610.854C401.359 609.726 401.169 608.39 400.542 607.549Z" fill="url(#paint15_linear_753_1442)"/>
<path d="M327.277 601.959C330.242 597.982 335.339 596.086 342.209 596.717L342.396 596.734L342.58 596.766C346.674 597.477 352.558 599.684 357.453 604.108C362.493 608.663 366.412 615.529 366.174 625.052V625.053C366.099 628.009 364.995 633.392 362.08 638.495C359.099 643.714 353.977 649.028 345.771 650.748C342.766 651.378 338.19 651.35 333.749 649.586C329.118 647.746 324.639 643.997 322.467 637.42L331.352 634.486C332.553 638.124 334.827 639.946 337.204 640.89C339.771 641.91 342.461 641.882 343.853 641.59C348.727 640.569 351.893 637.466 353.956 633.854C354.777 632.417 355.384 630.958 355.823 629.627C351.553 629.707 345.343 629.135 339.602 627.091C333.637 624.968 327.111 620.835 325.061 613.101L325.022 612.956L324.993 612.807C324.442 610.01 324.544 605.625 327.277 601.959ZM341.15 606.017C336.553 605.637 335.194 606.994 334.778 607.551C334.152 608.392 333.961 609.727 334.148 610.856C335.089 614.14 338.065 616.612 342.739 618.276C347.403 619.936 352.734 620.384 356.147 620.26L356.232 620.257H356.447C355.632 616.19 353.591 613.229 351.18 611.049C347.873 608.061 343.802 606.512 341.15 606.017Z" fill="url(#paint16_linear_753_1442)"/>
<path d="M327.277 601.959C330.242 597.982 335.339 596.086 342.209 596.717L342.396 596.734L342.58 596.766C346.674 597.477 352.558 599.684 357.453 604.108C362.493 608.663 366.412 615.529 366.174 625.052V625.053C366.099 628.009 364.995 633.392 362.08 638.495C359.099 643.714 353.977 649.028 345.771 650.748C342.766 651.378 338.19 651.35 333.749 649.586C329.118 647.746 324.639 643.997 322.467 637.42L331.352 634.486C332.553 638.124 334.827 639.946 337.204 640.89C339.771 641.91 342.461 641.882 343.853 641.59C348.727 640.569 351.893 637.466 353.956 633.854C354.777 632.417 355.384 630.958 355.823 629.627C351.553 629.707 345.343 629.135 339.602 627.091C333.637 624.968 327.111 620.835 325.061 613.101L325.022 612.956L324.993 612.807C324.442 610.01 324.544 605.625 327.277 601.959ZM341.15 606.017C336.553 605.637 335.194 606.994 334.778 607.551C334.152 608.392 333.961 609.727 334.148 610.856C335.089 614.14 338.065 616.612 342.739 618.276C347.403 619.936 352.734 620.384 356.147 620.26L356.232 620.257H356.447C355.632 616.19 353.591 613.229 351.18 611.049C347.873 608.061 343.802 606.512 341.15 606.017Z" fill="url(#paint17_linear_753_1442)"/>
<path d="M327.277 601.959C330.242 597.982 335.339 596.086 342.209 596.717L342.396 596.734L342.58 596.766C346.674 597.477 352.558 599.684 357.453 604.108C362.493 608.663 366.412 615.529 366.174 625.052V625.053C366.099 628.009 364.995 633.392 362.08 638.495C359.099 643.714 353.977 649.028 345.771 650.748C342.766 651.378 338.19 651.35 333.749 649.586C329.118 647.746 324.639 643.997 322.467 637.42L331.352 634.486C332.553 638.124 334.827 639.946 337.204 640.89C339.771 641.91 342.461 641.882 343.853 641.59C348.727 640.569 351.893 637.466 353.956 633.854C354.777 632.417 355.384 630.958 355.823 629.627C351.553 629.707 345.343 629.135 339.602 627.091C333.637 624.968 327.111 620.835 325.061 613.101L325.022 612.956L324.993 612.807C324.442 610.01 324.544 605.625 327.277 601.959ZM341.15 606.017C336.553 605.637 335.194 606.994 334.778 607.551C334.152 608.392 333.961 609.727 334.148 610.856C335.089 614.14 338.065 616.612 342.739 618.276C347.403 619.936 352.734 620.384 356.147 620.26L356.232 620.257H356.447C355.632 616.19 353.591 613.229 351.18 611.049C347.873 608.061 343.802 606.512 341.15 606.017Z" fill="url(#paint18_linear_753_1442)"/>
<path d="M327.277 601.959C330.242 597.982 335.339 596.086 342.209 596.717L342.396 596.734L342.58 596.766C346.674 597.477 352.558 599.684 357.453 604.108C362.493 608.663 366.412 615.529 366.174 625.052V625.053C366.099 628.009 364.995 633.392 362.08 638.495C359.099 643.714 353.977 649.028 345.771 650.748C342.766 651.378 338.19 651.35 333.749 649.586C329.118 647.746 324.639 643.997 322.467 637.42L331.352 634.486C332.553 638.124 334.827 639.946 337.204 640.89C339.771 641.91 342.461 641.882 343.853 641.59C348.727 640.569 351.893 637.466 353.956 633.854C354.777 632.417 355.384 630.958 355.823 629.627C351.553 629.707 345.343 629.135 339.602 627.091C333.637 624.968 327.111 620.835 325.061 613.101L325.022 612.956L324.993 612.807C324.442 610.01 324.544 605.625 327.277 601.959ZM341.15 606.017C336.553 605.637 335.194 606.994 334.778 607.551C334.152 608.392 333.961 609.727 334.148 610.856C335.089 614.14 338.065 616.612 342.739 618.276C347.403 619.936 352.734 620.384 356.147 620.26L356.232 620.257H356.447C355.632 616.19 353.591 613.229 351.18 611.049C347.873 608.061 343.802 606.512 341.15 606.017Z" fill="url(#paint19_linear_753_1442)"/>
<ellipse cx="235.128" cy="605.394" rx="61.2471" ry="38.1592" fill="#D9D9D9"/>
<ellipse cx="235.128" cy="605.394" rx="61.2471" ry="38.1592" fill="url(#paint20_linear_753_1442)"/>
<ellipse cx="500.337" cy="605.394" rx="61.2471" ry="38.1592" fill="#D9D9D9"/>
<ellipse cx="500.337" cy="605.394" rx="61.2471" ry="38.1592" fill="url(#paint21_linear_753_1442)"/>
<path d="M344.496 480.083L368 413.891L391.504 480.083L368 546.276L344.496 480.083Z" fill="#FE71A5"/>
<defs>
<filter id="filter2_f_753_1442" x="521.42" y="204.896" width="123.717" height="129.923" filterUnits="userSpaceOnUse" color-interpolation-filters="sRGB">
<feFlood flood-opacity="0" result="BackgroundImageFix"/>
<feBlend mode="normal" in="SourceGraphic" in2="BackgroundImageFix" result="shape"/>
<feGaussianBlur stdDeviation="4" result="effect1_foregroundBlur_753_1442"/>
</filter>
<filter id="filter3_f_753_1442" x="439.99" y="305.512" width="61.9004" height="68.5447" filterUnits="userSpaceOnUse" color-interpolation-filters="sRGB">
<feFlood flood-opacity="0" result="BackgroundImageFix"/>
<feBlend mode="normal" in="SourceGraphic" in2="BackgroundImageFix" result="shape"/>
<feGaussianBlur stdDeviation="4" result="effect1_foregroundBlur_753_1442"/>
</filter>
<filter id="filter4_f_753_1442" x="106.441" y="204.896" width="123.717" height="129.923" filterUnits="userSpaceOnUse" color-interpolation-filters="sRGB">
<feFlood flood-opacity="0" result="BackgroundImageFix"/>
<feBlend mode="normal" in="SourceGraphic" in2="BackgroundImageFix" result="shape"/>
<feGaussianBlur stdDeviation="4" result="effect1_foregroundBlur_753_1442"/>
</filter>
<filter id="filter5_f_753_1442" x="253.98" y="301.336" width="61.9004" height="68.5447" filterUnits="userSpaceOnUse" color-interpolation-filters="sRGB">
<feFlood flood-opacity="0" result="BackgroundImageFix"/>
<feBlend mode="normal" in="SourceGraphic" in2="BackgroundImageFix" result="shape"/>
<feGaussianBlur stdDeviation="4" result="effect1_foregroundBlur_753_1442"/>
</filter>
<filter id="filter6_f_753_1442" x="150.348" y="376.34" width="47.0684" height="47.0679" filterUnits="userSpaceOnUse" color-interpolation-filters="sRGB">
<feFlood flood-opacity="0" result="BackgroundImageFix"/>
<feBlend mode="normal" in="SourceGraphic" in2="BackgroundImageFix" result="shape"/>
<feGaussianBlur stdDeviation="2" result="effect1_foregroundBlur_753_1442"/>
</filter>
<filter id="filter7_f_753_1442" x="136.41" y="362.543" width="28.5742" height="28.5752" filterUnits="userSpaceOnUse" color-interpolation-filters="sRGB">
<feFlood flood-opacity="0" result="BackgroundImageFix"/>
<feBlend mode="normal" in="SourceGraphic" in2="BackgroundImageFix" result="shape"/>
<feGaussianBlur stdDeviation="2" result="effect1_foregroundBlur_753_1442"/>
</filter>
<filter id="filter8_f_753_1442" x="580.248" y="362.543" width="28.5742" height="28.5752" filterUnits="userSpaceOnUse" color-interpolation-filters="sRGB">
<feFlood flood-opacity="0" result="BackgroundImageFix"/>
<feBlend mode="normal" in="SourceGraphic" in2="BackgroundImageFix" result="shape"/>
<feGaussianBlur stdDeviation="2" result="effect1_foregroundBlur_753_1442"/>
</filter>
<filter id="filter9_f_753_1442" x="552.809" y="376.34" width="47.0684" height="47.0679" filterUnits="userSpaceOnUse" color-interpolation-filters="sRGB">
<feFlood flood-opacity="0" result="BackgroundImageFix"/>
<feBlend mode="normal" in="SourceGraphic" in2="BackgroundImageFix" result="shape"/>
<feGaussianBlur stdDeviation="2" result="effect1_foregroundBlur_753_1442"/>
</filter>
<linearGradient id="paint0_linear_753_1442" x1="368.001" y1="559.498" x2="377.11" y2="925.975" gradientUnits="userSpaceOnUse">
<stop/>
<stop offset="1" stop-color="#FBFCEE"/>
</linearGradient>
<radialGradient id="paint1_radial_753_1442" cx="0" cy="0" r="1" gradientUnits="userSpaceOnUse" gradientTransform="translate(368.001 90.2915) rotate(90) scale(555.795 542.189)">
<stop/>
<stop offset="0.817936"/>
<stop offset="1" stop-color="#FBFCEE"/>
</radialGradient>
<linearGradient id="paint2_linear_753_1442" x1="368.001" y1="90.2915" x2="368.001" y2="596.596" gradientUnits="userSpaceOnUse">
<stop/>
<stop offset="1" stop-color="#FBFCEE"/>
</linearGradient>
<radialGradient id="paint3_radial_753_1442" cx="0" cy="0" r="1" gradientUnits="userSpaceOnUse" gradientTransform="translate(368.001 90.2911) rotate(90) scale(555.796 542.189)">
<stop/>
<stop offset="0.817936"/>
<stop offset="1" stop-color="#FBFCEE"/>
</radialGradient>
<linearGradient id="paint4_linear_753_1442" x1="368" y1="0" x2="368" y2="596.596" gradientUnits="userSpaceOnUse">
<stop/>
<stop offset="1" stop-color="#FBFCEE"/>
</linearGradient>
<linearGradient id="paint5_linear_753_1442" x1="723.598" y1="281.832" x2="466.47" y2="42.9236" gradientUnits="userSpaceOnUse">
<stop stop-color="#FBFCEE"/>
<stop offset="0.5" stop-color="#E56695"/>
<stop offset="1" stop-color="#CB5A84"/>
</linearGradient>
<linearGradient id="paint6_linear_753_1442" x1="17.0053" y1="277.127" x2="274.134" y2="38.2188" gradientUnits="userSpaceOnUse">
<stop stop-color="#FBFCEE"/>
<stop offset="0.5" stop-color="#E56695"/>
<stop offset="1" stop-color="#CB5A84"/>
</linearGradient>
<linearGradient id="paint7_linear_753_1442" x1="535.825" y1="151.404" x2="535.825" y2="497.993" gradientUnits="userSpaceOnUse">
<stop stop-color="#FFF5FD"/>
<stop offset="1" stop-color="#EAE9EA"/>
</linearGradient>
<linearGradient id="paint8_linear_753_1442" x1="535.825" y1="151.404" x2="535.825" y2="497.993" gradientUnits="userSpaceOnUse">
<stop stop-color="white"/>
<stop offset="1" stop-color="#EAE9EA"/>
</linearGradient>
<linearGradient id="paint9_linear_753_1442" x1="455.244" y1="171.279" x2="616.407" y2="478.118" gradientUnits="userSpaceOnUse">
<stop/>
<stop offset="1" stop-color="#FBFCEE"/>
</linearGradient>
<linearGradient id="paint10_linear_753_1442" x1="527.103" y1="230.536" x2="533.058" y2="467.813" gradientUnits="userSpaceOnUse">
<stop stop-color="#1E1D1E"/>
<stop offset="1" stop-color="#662D42"/>
</linearGradient>
<linearGradient id="paint11_linear_753_1442" x1="146.578" y1="0" x2="146.578" y2="346.589" gradientUnits="userSpaceOnUse">
<stop stop-color="#FFF5FD"/>
<stop offset="1" stop-color="#EAE9EA"/>
</linearGradient>
<linearGradient id="paint12_linear_753_1442" x1="146.578" y1="0" x2="146.578" y2="346.589" gradientUnits="userSpaceOnUse">
<stop stop-color="white"/>
<stop offset="1" stop-color="#EAE9EA"/>
</linearGradient>
<linearGradient id="paint13_linear_753_1442" x1="290.93" y1="171.279" x2="129.767" y2="478.118" gradientUnits="userSpaceOnUse">
<stop/>
<stop offset="1" stop-color="#FBFCEE"/>
</linearGradient>
<linearGradient id="paint14_linear_753_1442" x1="122.534" y1="66.5394" x2="128.489" y2="303.817" gradientUnits="userSpaceOnUse">
<stop stop-color="#1E1D1E"/>
<stop offset="1" stop-color="#662D42"/>
</linearGradient>
<linearGradient id="paint15_linear_753_1442" x1="390.312" y1="596.596" x2="390.312" y2="683.346" gradientUnits="userSpaceOnUse">
<stop stop-color="#FE71A5"/>
<stop offset="1" stop-color="#FBFCEE"/>
</linearGradient>
<linearGradient id="paint16_linear_753_1442" x1="344.325" y1="596.598" x2="344.325" y2="651.122" gradientUnits="userSpaceOnUse">
<stop stop-color="#FE8DB7"/>
<stop offset="1" stop-color="#FE8DB7"/>
</linearGradient>
<linearGradient id="paint17_linear_753_1442" x1="344.325" y1="596.598" x2="344.325" y2="651.122" gradientUnits="userSpaceOnUse">
<stop stop-color="#FE71A5"/>
<stop offset="1" stop-color="#FBFCEE"/>
</linearGradient>
<linearGradient id="paint18_linear_753_1442" x1="344.325" y1="596.598" x2="344.325" y2="678.85" gradientUnits="userSpaceOnUse">
<stop stop-color="#FE71A5"/>
<stop offset="1" stop-color="#FBFCEE"/>
</linearGradient>
<linearGradient id="paint19_linear_753_1442" x1="344.325" y1="596.598" x2="344.325" y2="695.363" gradientUnits="userSpaceOnUse">
<stop stop-color="#FE71A5"/>
<stop offset="1" stop-color="#FBFCEE"/>
</linearGradient>
<linearGradient id="paint20_linear_753_1442" x1="235.128" y1="599.459" x2="235.128" y2="669.936" gradientUnits="userSpaceOnUse">
<stop/>
<stop offset="1" stop-color="#FBFCEE"/>
</linearGradient>
<linearGradient id="paint21_linear_753_1442" x1="500.337" y1="599.459" x2="500.337" y2="669.936" gradientUnits="userSpaceOnUse">
<stop/>
<stop offset="1" stop-color="#FBFCEE"/>
</linearGradient>
</defs>
</svg>
